<svg width="257" height="800" viewBox="0 0 257 800" fill="none" xmlns="http://www.w3.org/2000/svg">
<g clip-path="url(#clip0_255_67)">
<path d="M67.7333 502.944H49.4444V589.177H67.7333V502.944ZM58.5888 493.811C63.6444 493.811 67.7333 489.711 67.7333 484.633C67.7333 479.566 63.6444 475.466 58.5888 475.466C53.5333 475.466 49.4444 479.566 49.4444 484.633C49.4444 489.711 53.5333 493.811 58.5888 493.811ZM79.9555 165.144L92.6333 232.833H81.5444L85.2889 238.866C86.4333 240.711 88.4444 241.833 90.6111 241.833H94.5777V244.3H162.678V241.833H166.644C168.822 241.833 170.822 240.711 171.967 238.866L175.711 232.833H164.622L177.311 165.144V165.133H180.244V150.978H78.4666V165.133H79.9666L79.9555 165.144ZM244.189 256.4H11.7333V420.689H244.189V256.4ZM244.189 432.789H11.7333V597.066H112.856V480.033H136.567V597.066H244.189V432.789ZM244.189 609.166H11.7333V773.444H100V662.7H127.956V773.444H161.522V657.111H187.711V773.444H244.189V609.166ZM256.244 244.3V785.544H243.111L240.8 792.322C239.678 795.644 236.567 797.877 233.067 797.877H203.589C200.089 797.877 196.978 795.644 195.844 792.322L193.544 785.544H62.3777L60.0666 792.322C58.9444 795.644 55.8333 797.877 52.3333 797.877H22.8555C19.3555 797.877 16.2444 795.644 15.1111 792.322L12.8111 785.544H-0.333374V244.3H256.244ZM186.467 595.9L136.567 488.566L164.878 475.333L214.767 582.666L186.467 595.9Z" fill="#E95F52"/>
<path d="M100 671.8H74.2111V773.444H100V671.8ZM210.467 641.478H187.711V773.444H210.467V641.478ZM210.467 773.444H244.189V654.889H210.467V773.444ZM244.189 289.8H210.467V420.689H244.189V289.8ZM100 289.8H66.2778V420.689H100V289.8ZM66.2778 279.667H42.9667V420.689H66.2778V279.667ZM42.9667 597.067H11.7333V478.644H42.9667V597.067Z" fill="#17292F"/>
<path d="M82.2111 519.056H104.844V579.111C105.078 578.833 105.3 578.556 105.533 578.289C105.844 577.922 106.2 577.578 106.522 577.222C107.478 577.978 107.689 578.933 107.067 579.8C106.489 580.611 105.722 580.589 104.844 580.1V587.3H82.2111V519.056ZM93.5333 485.067C99.7778 485.067 104.844 490.144 104.844 496.422C104.844 502.689 99.7778 507.767 93.5333 507.767C87.2778 507.767 82.2111 502.689 82.2111 496.422C82.2111 490.144 87.2778 485.067 93.5333 485.067ZM6.65557 419.611C6.86668 419.822 7.03335 419.989 7.21113 420.156C6.86668 420.333 6.52224 420.567 6.15557 420.644C6.03335 420.667 5.82224 420.333 5.64446 420.156C5.9889 419.978 6.32224 419.789 6.65557 419.611ZM8.23335 368.067C8.06668 368.056 7.83335 368.111 7.71113 368.022C6.93335 367.444 6.94446 365.9 7.75557 365.478C7.87779 365.4 8.14446 365.422 8.26668 365.511C9.05557 366.089 9.02224 367.611 8.23335 368.067ZM1.21113 361.533C1.13335 361.444 1.57779 360.644 1.82224 360.622C2.51113 360.567 3.46668 360.244 3.80001 361.133C4.02224 361.722 3.87779 362.467 3.80001 363.133C3.7889 363.333 3.47779 363.489 3.30002 363.667C2.5889 362.967 1.84446 362.289 1.21113 361.533ZM6.42224 707.267C6.60001 707.433 6.94446 707.644 6.91113 707.767C6.83335 708.133 6.60001 708.467 6.42224 708.811C6.25557 708.644 6.07779 708.467 5.86668 708.267C6.04446 707.933 6.24446 707.6 6.42224 707.267ZM117.256 717.8C117.133 717.833 116.911 717.489 116.744 717.322C117.089 717.133 117.422 716.956 117.756 716.767C117.956 716.978 118.133 717.156 118.311 717.322C117.956 717.489 117.622 717.722 117.256 717.8ZM112.344 717.589C112.422 717.222 112.656 716.9 112.833 716.544C113.011 716.722 113.178 716.9 113.389 717.1C113.211 717.422 113.022 717.756 112.833 718.1C112.656 717.922 112.322 717.722 112.344 717.589ZM0.266682 704.189C0.422236 704.078 0.811125 704.078 0.922238 704.189C1.04446 704.3 0.955571 704.622 0.955571 704.856C0.644463 705.1 0.177793 705.6 0.0444599 705.533C-0.888873 704.978 -0.255541 704.544 0.266682 704.189ZM1.85557 702.744C2.04446 702.922 2.37779 703.178 2.34446 703.233C2.15557 703.567 1.92224 703.9 1.63335 704.144C1.4889 704.256 1.08891 704.256 0.977793 704.144C0.85557 704.033 0.855569 703.633 0.966682 703.489C1.21112 703.189 1.55557 702.989 1.85557 702.744ZM251.033 616.456C250.944 616.822 250.711 617.144 250.533 617.5C250.367 617.322 250.189 617.144 249.978 616.944C250.156 616.622 250.344 616.278 250.533 615.944C250.711 616.122 251.056 616.322 251.033 616.456ZM7.21113 611.989C6.90001 612.233 6.43335 612.733 6.31113 612.667C5.36668 612.122 6.01112 611.678 6.52224 611.322C6.67779 611.211 7.06668 611.211 7.1889 611.333C7.30001 611.444 7.21113 611.767 7.21113 611.989ZM7.23335 611.278C7.12224 611.167 7.11112 610.767 7.23335 610.633C7.46668 610.333 7.82224 610.122 8.12224 609.878C8.30001 610.056 8.63335 610.311 8.60001 610.378C8.41113 610.711 8.1889 611.044 7.8889 611.278C7.75557 611.4 7.35557 611.4 7.23335 611.278ZM240.367 608.978C240.011 609.156 239.678 609.389 239.311 609.467C239.178 609.489 238.967 609.156 238.8 608.978C239.144 608.811 239.478 608.578 239.844 608.5C239.978 608.467 240.189 608.811 240.367 608.978ZM0.166682 609.756C1.47834e-05 609.411 -0.244428 609.078 -0.322207 608.722C-0.355541 608.589 1.47834e-05 608.389 0.166682 608.211C0.35557 608.544 0.54446 608.878 0.722238 609.211C0.522239 609.411 0.34446 609.589 0.166682 609.756ZM220.8 790.844C220.633 790.667 220.456 790.489 220.244 790.289C220.422 789.967 220.622 789.622 220.8 789.289C220.978 789.467 221.322 789.667 221.289 789.8C221.211 790.167 220.978 790.489 220.8 790.844ZM243.267 784.1C243.056 784.3 242.889 784.478 242.711 784.644C242.533 784.3 242.3 783.967 242.222 783.611C242.189 783.478 242.533 783.278 242.711 783.1C242.9 783.433 243.089 783.778 243.267 784.1ZM245.067 766.844C245.4 766.678 245.744 766.444 246.111 766.367C246.233 766.333 246.444 766.678 246.622 766.844C246.278 767.022 245.933 767.256 245.567 767.333C245.444 767.356 245.233 767.022 245.067 766.844ZM185.6 782.322C185.933 782.144 186.278 781.956 186.6 781.778C186.811 781.989 186.989 782.156 187.156 782.322C186.811 782.5 186.478 782.733 186.111 782.811C185.978 782.833 185.767 782.5 185.6 782.322ZM178.556 776.911C178.367 776.578 178.178 776.233 178 775.911C178.211 775.711 178.378 775.533 178.556 775.367C178.733 775.711 178.956 776.033 179.044 776.4C179.067 776.533 178.733 776.744 178.556 776.911ZM125.356 776.911C125.178 776.567 124.944 776.233 124.867 775.867C124.833 775.744 125.178 775.533 125.356 775.367C125.522 775.711 125.756 776.033 125.844 776.4C125.867 776.533 125.522 776.744 125.356 776.911ZM26.2778 774.322C26.2556 774.189 26.6 773.989 26.7667 773.811C26.9556 774.144 27.1445 774.489 27.3333 774.811C27.1222 775.022 26.9445 775.189 26.7667 775.367C26.6 775.022 26.3556 774.689 26.2778 774.322ZM122.378 728.756C122.044 728.578 121.7 728.344 121.456 728.056C121.344 727.922 121.344 727.522 121.467 727.411C121.589 727.289 121.978 727.289 122.122 727.4C122.422 727.644 122.633 727.989 122.878 728.278C122.7 728.467 122.444 728.789 122.378 728.756ZM245.067 732.8C245.233 732.622 245.444 732.289 245.567 732.311C245.933 732.4 246.278 732.622 246.622 732.8C246.444 732.967 246.278 733.144 246.067 733.356C245.744 733.167 245.4 732.978 245.067 732.8ZM118.011 729.967C118.044 730.1 117.7 730.3 117.522 730.478C117.356 730.133 117.122 729.8 117.044 729.433C117.011 729.311 117.356 729.1 117.522 728.933C117.7 729.278 117.933 729.6 118.011 729.967ZM247.178 762.756C246.967 762.544 246.8 762.378 246.622 762.2C246.967 762.033 247.3 761.8 247.667 761.722C247.8 761.689 248.011 762.033 248.189 762.2C247.844 762.389 247.511 762.578 247.178 762.756ZM148.044 223.6C148.389 223.433 148.722 223.2 149.089 223.122C149.222 223.089 149.433 223.433 149.611 223.6C149.256 223.767 148.922 224 148.556 224.089C148.422 224.111 148.211 223.767 148.044 223.6ZM156.644 227.467C156.822 227.822 157.056 228.144 157.133 228.511C157.167 228.633 156.822 228.844 156.644 229.022C156.478 228.667 156.233 228.344 156.156 227.978C156.133 227.844 156.478 227.644 156.644 227.467ZM148.044 198.833C148.389 198.667 148.722 198.433 149.089 198.356C149.222 198.322 149.433 198.667 149.611 198.833C149.256 199.011 148.922 199.233 148.556 199.322C148.422 199.344 148.211 199.011 148.044 198.833ZM239.578 430.222C239.411 429.878 239.178 429.544 239.1 429.178C239.067 429.056 239.411 428.844 239.578 428.678C239.756 429.022 239.989 429.344 240.067 429.711C240.1 429.844 239.756 430.044 239.578 430.222ZM230.744 427.678C230.567 428 230.378 428.344 230.189 428.678C230.022 428.5 229.678 428.289 229.7 428.167C229.789 427.8 230.022 427.478 230.189 427.122C230.367 427.3 230.544 427.478 230.744 427.678ZM246.856 260.967C247.033 260.644 247.222 260.311 247.4 259.967C247.578 260.144 247.922 260.356 247.9 260.478C247.811 260.844 247.578 261.178 247.4 261.522C247.233 261.344 247.056 261.178 246.856 260.967ZM253.889 353.056C254.1 353.267 254.278 353.433 254.444 353.611C254.1 353.778 253.767 354.011 253.4 354.089C253.267 354.122 253.056 353.778 252.889 353.611C253.222 353.422 253.567 353.244 253.889 353.056ZM255.011 453.656C255.333 453.844 255.667 454.022 256.011 454.211C255.833 454.378 255.622 454.722 255.5 454.689C255.133 454.611 254.789 454.378 254.444 454.211C254.622 454.044 254.789 453.867 255.011 453.656ZM126.911 190.322C126.744 190.156 126.4 189.944 126.422 189.822C126.511 189.456 126.744 189.122 126.911 188.778C127.089 188.944 127.267 189.122 127.478 189.322C127.3 189.656 127.1 189.989 126.911 190.322ZM149.611 188.778C149.367 188.778 149.144 188.778 148.9 188.778C148.667 188.478 148.156 188.011 148.222 187.889C148.778 186.956 149.233 187.589 149.589 188.1C149.7 188.256 149.611 188.544 149.611 188.778ZM130.133 252.178C130.3 252.478 130.156 252.956 130.156 253.356C129.811 254 129.356 255.233 129.1 255.2C127.844 255 127.256 253.978 127.622 252.8C127.889 251.989 126.378 250.1 128.767 250.478C129.311 250.567 129.767 251.544 130.133 252.178ZM234.322 255C234.2 255.078 233.933 255.1 233.8 255.033C233 254.6 232.989 253.067 233.767 252.478C233.889 252.4 234.122 252.456 234.289 252.444C235.078 252.889 235.111 254.411 234.322 255ZM249.456 266.667C249.544 266.778 249.489 267.011 249.5 267.178C249.044 267.956 247.5 267.989 246.922 267.211C246.822 267.089 246.811 266.822 246.878 266.7C247.322 265.911 248.867 265.889 249.456 266.667ZM93.7889 249.633C93.9222 250.322 93.8333 251.067 93.8333 251.789C93.5889 251.789 93.2889 251.867 93.1222 251.778C92.1333 251.189 92.1222 250.278 92.4222 249.333C92.4778 249.133 92.8556 248.822 92.9 248.844C93.2333 249.067 93.7333 249.311 93.7889 249.633ZM161.344 600.467C162.467 601.5 162.467 602.533 161.344 603.567C160.211 602.533 160.211 601.5 161.344 600.467ZM247.4 592.733C246.278 591.7 246.278 590.667 247.4 589.633C248.533 590.667 248.533 591.7 247.4 592.733ZM1.4889 515.6C1.62224 515.533 1.88891 515.556 2.01113 515.633C2.78891 516.222 2.76668 517.733 1.97779 518.189C1.80002 518.178 1.57779 518.233 1.45557 518.144C0.666681 517.567 0.688904 516.033 1.4889 515.6ZM53.8556 782.056C53.9445 782.167 53.8889 782.4 53.9 782.578C53.4445 783.344 51.9 783.378 51.3222 782.6C51.2333 782.478 51.2111 782.211 51.2778 782.089C51.7111 781.3 53.2778 781.278 53.8556 782.056ZM115.478 756.289C115.389 756.167 115.367 755.9 115.433 755.767C115.878 754.989 117.433 754.967 118.011 755.744C118.1 755.856 118.044 756.089 118.056 756.256C117.611 757.033 116.056 757.067 115.478 756.289ZM126.144 766.844C125.089 767.956 124.044 767.956 123 766.844C124.044 765.744 125.089 765.744 126.144 766.844ZM143.056 427.622C143.133 427.744 143.144 428.089 143.089 428.122C142.678 428.344 142.233 428.5 141.822 428.667C141.044 428.733 140.278 428.533 140.511 427.667C140.733 426.833 142.467 426.844 143.056 427.622ZM58.8556 430.989C57.8111 432.1 56.7667 432.1 55.7111 430.989C56.7667 429.889 57.8111 429.889 58.8556 430.989ZM6.91113 296.067C7.00001 296.189 6.94446 296.411 6.96668 296.589C6.50001 297.367 4.95557 297.4 4.37779 296.622C4.2889 296.5 4.26668 296.233 4.34446 296.1C4.77779 295.322 6.33335 295.289 6.91113 296.067ZM252.889 480.522C251.833 481.633 250.8 481.633 249.744 480.522C250.8 479.411 251.833 479.411 252.889 480.522ZM250.344 461.433C250.433 461.356 251.244 461.789 251.267 462.033C251.322 462.722 251.656 463.667 250.756 463.989C250.156 464.211 249.4 464.067 248.722 464C248.533 463.978 248.367 463.667 248.189 463.5C248.9 462.8 249.578 462.067 250.344 461.433ZM246.878 436.889C247.767 436.189 248.744 436 249.456 436.944C250.1 437.8 249.878 438.767 249 439.478C248.289 438.633 247.122 438.144 246.878 436.889ZM251.633 423.178C251.122 422.644 250.589 422.133 250.111 421.567C249.878 421.278 249.756 420.9 249.578 420.533C250.511 419.844 251.478 419.622 252.189 420.589C252.811 421.456 252.589 422.422 251.633 423.178ZM249.833 523.078C250.322 523.1 250.822 523.089 251.311 523.089C251.311 523.578 251.3 524.067 251.322 524.556C251.4 525.833 250.678 526.233 249.533 526.178C248.689 526.144 248.222 525.689 248.189 524.856C248.133 523.722 248.533 523 249.833 523.078ZM117.467 759.856C118.567 761.267 121.2 762.078 119.156 764.556C118.056 763.156 115.422 762.333 117.467 759.856ZM151.211 192.122C151.456 192.933 152.089 193.622 152.556 194.378C152.133 194.578 151.722 194.9 151.3 194.933C150.867 194.967 150.411 194.689 149.789 194.511C149.789 192.633 149.789 190.7 149.789 188.4C151.644 189.656 150.889 191.022 151.211 192.122ZM118.467 725.244C117.444 724.644 116.344 724.156 115.278 723.622C119.311 721.878 121.133 723 121.444 727.422C119.911 727.389 119.522 725.856 118.467 725.244ZM232.567 424C232.533 423.589 232.889 423.156 233.044 422.789C234.278 423.3 235.6 423.678 236.7 424.378C237.122 424.656 237.378 425.822 237.144 426.311C236.911 426.767 235.767 427.244 235.322 427.056C234 426.478 232.689 425.667 232.567 424ZM254.778 514.289C253.567 515.578 252.311 516.844 251.167 518.022C250.222 518.022 249.456 518.022 248.689 518.022C251.956 513.633 251.978 513.644 253.956 513.4C254.144 513.378 254.356 513.633 254.556 513.767C254.644 513.944 254.833 514.233 254.778 514.289ZM114.744 752.089C114.489 752.189 113.922 751.644 113.578 751.311C112.522 750.322 111.511 749.289 110.489 748.278C111.756 746.967 113.133 747.778 114.478 747.467C115.789 750.433 119.722 750.178 121.278 752.978C121.233 753.033 121.122 753.244 120.944 753.389C120.767 753.533 120.522 753.689 120.311 753.678C118.344 753.622 117.056 751.2 114.744 752.089ZM252.056 735.322C252.167 735.2 252.311 734.956 252.4 734.989C252.633 735.044 252.844 735.2 253.078 735.322C252.956 735.444 252.844 735.567 252.711 735.711C252.5 735.578 252.289 735.456 252.056 735.322ZM252.056 650.211C252.289 650.078 252.5 649.944 252.711 649.822C252.844 649.967 252.956 650.089 253.078 650.211C252.844 650.333 252.633 650.489 252.4 650.556C252.311 650.567 252.167 650.333 252.056 650.211ZM253.078 391.589C252.844 391.711 252.633 391.878 252.4 391.933C252.311 391.944 252.178 391.711 252.056 391.589C252.289 391.467 252.5 391.311 252.744 391.256C252.822 391.222 252.956 391.467 253.078 391.589ZM256.111 648.033C255.889 648.156 255.667 648.289 255.456 648.411C255.322 648.267 255.211 648.144 255.089 648.033C255.322 647.9 255.544 647.744 255.778 647.689C255.856 647.656 255.989 647.9 256.111 648.033ZM5.3889 466.878C5.61113 466.767 5.82224 466.6 6.05557 466.544C6.14446 466.522 6.27779 466.767 6.3889 466.878C6.16668 467 5.94446 467.167 5.71113 467.222C5.63335 467.244 5.50002 467 5.3889 466.878ZM5.8889 460.889C5.76668 460.644 5.64446 460.4 5.52224 460.178C5.66668 460.033 5.77779 459.911 5.8889 459.789C6.00001 460.033 6.14446 460.267 6.20001 460.522C6.22224 460.611 6.00001 460.756 5.8889 460.889ZM8.60001 595.833C8.65557 595.578 8.81112 595.344 8.92224 595.1C9.03335 595.222 9.14446 595.344 9.27779 595.489C9.16668 595.722 9.04446 595.956 8.92224 596.189C8.81112 596.078 8.5889 595.922 8.60001 595.833ZM11.2556 651.467C11.1111 652.056 10 652.033 9.61113 651.489C9.55557 651.411 9.55557 651.167 9.5889 651.133C9.85557 650.989 10.1333 650.878 10.4111 650.756C10.9111 650.711 11.4111 650.844 11.2556 651.467ZM252.056 450.511C252.733 449.733 253.411 449.733 254.089 450.511C253.411 451.3 252.733 451.3 252.056 450.511ZM152.478 424.878C151.756 424.144 151.756 423.411 152.478 422.689C153.2 423.411 153.2 424.144 152.478 424.878ZM146.922 422.144C146.244 422.933 145.578 422.933 144.9 422.144C145.578 421.356 146.244 421.356 146.922 422.144ZM59.8111 786.778C59.5333 787.333 58.5222 787.356 58.1445 786.8C58.0889 786.722 58.1222 786.556 58.1111 786.433C58.4111 785.889 59.4 785.867 59.7778 786.411C59.8445 786.5 59.8556 786.689 59.8111 786.778ZM171.178 425.411C171.856 424.633 172.533 424.633 173.2 425.411C172.533 426.2 171.856 426.2 171.178 425.411ZM102.456 200.622C101.433 201.533 100.411 201.533 99.3889 200.622C100.411 199.711 101.433 199.711 102.456 200.622ZM59.3667 790.544C59.2222 790.011 58.9778 789.544 58.9889 789.078C59 788.378 59.7 788 60.4111 788.278C60.6111 788.344 60.8667 788.856 60.8111 788.922C60.4 789.456 59.9222 789.933 59.3667 790.544ZM53.9 779.522C53.9556 778.7 54.3556 778.311 55.1556 778.422C55.6778 778.5 55.9333 778.867 55.9333 779.5C55.9333 780.333 55.4778 780.756 54.6889 780.6C54.1778 780.489 53.8445 780.211 53.9 779.522ZM22.6 249.556C22.0667 250.5 21.5222 250.256 21.0556 250.267C19.9222 250.3 18.8 250.278 17.3 250.278C18.6111 249.144 18.6111 249.144 22.6 249.556ZM108.967 667.144C109.444 667.378 109.622 667.911 109.5 668.456C109.422 668.756 109.211 669.211 109 669.267C108.533 669.389 108.022 669.322 107.522 669.3C106.733 669.267 106.333 668.778 106.489 667.967C106.589 667.411 106.856 667 107.478 667.122C107.644 667.144 107.811 667.122 107.978 667.122C108.311 667.122 108.678 667.011 108.967 667.144ZM121.644 781.156C121.189 781.644 120.733 782.144 120.278 782.622C120.167 782.611 119.989 782.644 119.944 782.578C119.511 781.9 118.533 781.633 118.622 780.578C118.656 780.267 118.767 779.844 118.978 779.711C119.844 779.144 120.422 779.756 120.967 780.422C121.178 780.678 121.411 780.9 121.644 781.156ZM190.4 601.622C189.144 601.667 189.333 600.722 189.511 599.867C190.211 599.1 191.078 599.656 191.833 599.467C192.756 600.333 193.589 601.278 194.389 602.167C193.9 602.956 193.111 602.9 192.967 602.7C192.267 601.744 191.422 601.6 190.4 601.622ZM121.644 706.956C121.422 707.067 121.2 707.233 120.967 707.289C120.878 707.311 120.744 707.067 120.633 706.956C120.856 706.822 121.078 706.667 121.311 706.611C121.4 706.589 121.533 706.822 121.644 706.956ZM117.6 733.133C117.822 733.022 118.044 732.856 118.278 732.8C118.367 732.778 118.5 733.022 118.611 733.133C118.389 733.267 118.167 733.422 117.933 733.478C117.844 733.5 117.711 733.267 117.6 733.133ZM156.022 254.1C156.244 253.978 156.467 253.811 156.7 253.756C156.778 253.733 156.911 253.978 157.022 254.1C156.811 254.233 156.589 254.356 156.378 254.489C156.244 254.344 156.133 254.211 156.022 254.1ZM153.489 183.711C153.611 183.944 153.733 184.189 153.856 184.411C153.711 184.556 153.6 184.678 153.489 184.8C153.378 184.556 153.233 184.322 153.178 184.067C153.156 183.989 153.378 183.833 153.489 183.711ZM128.711 224.7C128.778 224.811 128.778 225.078 128.711 225.167C128.633 225.244 128.422 225.178 128.267 225.178C128.111 224.967 127.789 224.633 127.833 224.556C128.189 223.889 128.478 224.344 128.711 224.7ZM124.344 673.867C124.433 673.856 124.567 674.1 124.678 674.211C124.456 674.344 124.233 674.5 124 674.556C123.911 674.578 123.778 674.344 123.667 674.211C123.889 674.1 124.111 673.933 124.344 673.867ZM251.411 268.978C251.278 269.133 251.167 269.256 251.056 269.378L251.411 268.978ZM251.556 416.144C251.678 416.378 251.8 416.611 251.922 416.844C251.778 416.989 251.667 417.111 251.556 417.233C251.444 416.989 251.3 416.756 251.244 416.5C251.222 416.411 251.444 416.267 251.556 416.144ZM244.622 257.756C244.411 257.633 244.2 257.5 243.978 257.367C244.089 257.256 244.222 257.011 244.3 257.022C244.544 257.078 244.767 257.256 244.989 257.367C244.878 257.489 244.767 257.611 244.622 257.756ZM256.111 407.956C255.889 408.089 255.667 408.222 255.456 408.344C255.322 408.2 255.211 408.078 255.089 407.956C255.322 407.833 255.544 407.678 255.778 407.611C255.856 407.589 255.989 407.833 256.111 407.956ZM216.489 251.711C216.544 251.8 216.556 252.044 216.511 252.067C216.244 252.222 215.967 252.333 215.7 252.456C215.189 252.5 214.7 252.367 214.856 251.744C214.989 251.167 216.111 251.178 216.489 251.711ZM214.811 776.956C214.822 776.833 214.789 776.678 214.844 776.589C215.222 776.044 216.233 776.067 216.511 776.622C216.556 776.711 216.544 776.9 216.489 776.989C216.111 777.533 215.111 777.511 214.811 776.956ZM255.289 491.789C255.667 491.244 256.667 491.256 256.956 491.811C257 491.911 256.978 492.089 256.922 492.178C256.544 492.722 255.556 492.7 255.256 492.156C255.267 492.033 255.233 491.867 255.289 491.789ZM28.6333 781.156C29.3111 780.367 29.9778 780.367 30.6556 781.156C29.9778 781.944 29.3111 781.944 28.6333 781.156ZM94.5333 248.467C95.0444 248.767 95.0556 249.844 94.5556 250.256C94.4778 250.322 94.3333 250.278 94.2111 250.289C93.7111 249.967 93.6889 248.889 94.2 248.489C94.2778 248.422 94.4444 248.411 94.5333 248.467ZM173.222 608.744C172.2 609.656 171.189 609.656 170.156 608.744C171.189 607.833 172.2 607.833 173.222 608.744ZM228.156 604.722C227.522 604.233 227.667 603.556 228.111 602.911C229.011 602.956 229.133 604.056 229.889 604.289C229.356 605 228.722 605.156 228.156 604.722ZM129.011 225.178C130 226.578 129.833 228.022 129.322 229.956C128.356 228.156 128.889 226.611 129.011 225.178ZM156.044 230.1C154.422 231.633 153.9 229.678 152.967 228.978C154.589 227.444 155.111 229.411 156.044 230.1ZM255.3 559.089C254 560.222 254 560.222 250.011 559.811C250.544 558.867 251.1 559.111 251.556 559.1C252.689 559.067 253.811 559.089 255.3 559.089ZM186.378 716.544C186.211 716.2 185.967 715.878 185.889 715.511C185.856 715.389 186.211 715.178 186.378 715C186.567 715.333 186.756 715.678 186.933 716C186.733 716.2 186.556 716.378 186.378 716.544ZM182.167 702.122C181.578 702.889 180.033 702.878 179.589 702.089C179.522 701.956 179.544 701.689 179.633 701.567C180.211 700.789 181.756 700.822 182.211 701.6C182.2 701.778 182.256 702 182.167 702.122ZM179.778 659.489C179.889 659.733 180.044 659.956 180.089 660.211C180.111 660.3 179.889 660.456 179.778 660.578C179.667 660.333 179.511 660.1 179.467 659.844C179.444 659.756 179.667 659.6 179.778 659.489ZM177.756 658.389C177.633 658.156 177.511 657.911 177.389 657.689C177.533 657.544 177.644 657.422 177.756 657.3C177.867 657.544 178.011 657.778 178.067 658.033C178.089 658.122 177.867 658.267 177.756 658.389ZM176 687.733C174.889 687.733 173.767 687.733 172.356 687.733C171.878 688.478 171.333 689.322 170.811 690.144C170.1 689.389 169.622 688.9 169.1 688.344C169.478 687.622 170.289 686.9 170.733 686.867C171.7 686.811 172.1 686.022 172.8 685.722C173.378 685.478 174.111 685.611 174.767 685.689C175.544 685.789 176.411 685.3 177.4 686.333C176.8 686.633 176.233 686.922 175.678 687.211C175.789 687.389 175.889 687.556 176 687.733ZM165.511 689.9C165.367 689.622 165.2 689.344 165.122 689.033C165 688.456 165.289 687.956 165.756 687.889C166.544 687.767 167.356 687.856 168.156 687.856C168.111 687.322 168.211 686.844 168.822 686.989C168.989 687.033 169.044 687.556 169.167 687.856C168.822 687.856 168.489 687.856 168.156 687.856C168.022 688.011 165.522 689.933 165.511 689.9ZM167.6 711.911C167.422 711.556 167.2 711.233 167.111 710.867C167.078 710.733 167.422 710.533 167.6 710.356C167.778 710.7 168.011 711.033 168.089 711.4C168.122 711.522 167.778 711.733 167.6 711.911ZM173.178 679.367C173.178 679.911 172.833 680.333 172.233 680.2C171.933 680.144 171.478 680.067 171.411 679.867C171.278 679.433 171.156 678.811 171.356 678.467C171.678 677.878 172.233 677.444 172.7 676.944C173.5 677.589 173.178 678.544 173.178 679.367ZM169.133 662.489C169.944 663.978 170.767 665.467 171.611 667.011C171.767 666.944 172.078 666.944 172.2 667.044C172.489 667.278 172.7 667.622 172.956 667.922C172.767 668.1 172.511 668.433 172.456 668.4C172.122 668.222 171.778 667.989 171.533 667.7C171.411 667.567 171.422 667.167 171.544 667.044C171.556 667.044 171.567 667.033 171.578 667.022C168.411 666.878 168.389 666.867 168.389 664.533C168.389 663.833 168.178 663.044 169.133 662.489ZM176.578 661.867C176.811 661.933 177.022 662.089 177.256 662.211C177.144 662.333 177.022 662.456 176.889 662.6C176.678 662.467 176.456 662.344 176.233 662.211C176.344 662.089 176.489 661.844 176.578 661.867ZM161.522 657.111V773.444H187.711V657.111H161.522ZM131.656 591.078H117.767V507.589H131.656V591.078ZM131.656 493.689C131.656 497.533 128.544 500.656 124.711 500.656C120.878 500.656 117.767 497.533 117.767 493.689C117.767 489.844 120.878 486.722 124.711 486.722C128.544 486.722 131.656 489.844 131.656 493.689ZM197.333 585C197.156 584.822 196.811 584.611 196.844 584.489C196.922 584.122 197.156 583.789 197.333 583.444C197.5 583.622 197.678 583.789 197.889 584C197.7 584.322 197.522 584.656 197.333 585ZM157.722 518.722L174.3 510.967L205.578 578.256L189 586.011L157.722 518.722ZM177.211 567.744C176.889 567.567 176.544 567.378 176.211 567.189C176.378 567.022 176.589 566.678 176.722 566.711C177.089 566.789 177.422 567.022 177.778 567.189C177.6 567.367 177.422 567.533 177.211 567.744ZM155.044 513.267C155.533 513.222 156.033 513.267 156.522 513.267C156.989 513.767 157.456 514.256 157.922 514.767C157.733 515.422 157.733 515.422 154.489 515.422C153.856 513.744 153.956 513.356 155.044 513.267ZM152.656 507.6C152.411 507.544 152.2 507.378 151.978 507.256C152.089 507.133 152.2 507.022 152.333 506.878C152.544 507 152.767 507.133 152.989 507.256C152.878 507.378 152.744 507.622 152.656 507.6ZM150 502.122C147.878 497.533 149.856 492.067 154.433 489.933C159.011 487.789 164.456 489.778 166.589 494.367C168.722 498.967 166.744 504.422 162.156 506.567C157.589 508.711 152.144 506.722 150 502.122ZM189.022 532.878C189.611 532.089 191.144 532.122 191.611 532.9C191.6 533.078 191.644 533.3 191.556 533.422C190.978 534.189 189.422 534.167 188.989 533.389C188.911 533.256 188.933 532.989 189.022 532.878ZM192.578 540.922C192.844 540.778 193.133 540.667 193.4 540.544C193.9 540.5 194.4 540.633 194.244 541.256C194.1 541.844 192.978 541.833 192.611 541.278C192.544 541.189 192.544 540.956 192.578 540.922ZM164.878 475.333L136.567 488.567L186.456 595.9L214.767 582.667L164.878 475.333ZM36.5 589.178H18.2V514.922H36.5V589.178ZM36.5 496.622C36.5 501.689 32.4111 505.8 27.3556 505.8C22.3 505.8 18.2 501.689 18.2 496.622C18.2 491.556 22.3 487.444 27.3556 487.444C32.4111 487.444 36.5 491.556 36.5 496.622ZM176.944 152.978C176.122 152.811 175.8 152 175.244 151.5C175.711 150.889 176.344 150.733 176.9 151.189C177.522 151.678 177.389 152.367 176.944 152.978ZM94.8556 152.067C94.7444 151.822 94.5889 151.589 94.5333 151.333C94.5222 151.244 94.7444 151.1 94.8556 150.978C94.9778 151.211 95.1 151.456 95.2111 151.678C95.0778 151.822 94.9667 151.944 94.8556 152.067ZM80.7 160.8C80.5889 160.678 80.4778 160.556 80.3444 160.411C80.4556 160.178 80.5778 159.944 80.7 159.7C80.8111 159.822 81.0333 159.978 81.0222 160.067C80.9667 160.322 80.8111 160.556 80.7 160.8ZM110.522 170.067C109.856 170.856 109.178 170.856 108.5 170.067C109.178 169.289 109.856 169.289 110.522 170.067ZM144.122 179.489C144.322 179.822 144.5 180.167 144.689 180.489C144.478 180.689 144.3 180.867 144.122 181.033C143.956 180.689 143.722 180.367 143.644 180C143.611 179.867 143.956 179.667 144.122 179.489ZM181.567 150.778H75.7C73.9889 150.778 72.6 152.178 72.6 153.889V162.022C72.6 163.744 73.9889 165.133 75.7 165.133H79.9556V165.144L82.7889 180.222C88.9222 179.967 91.9778 187.311 98.0444 188.267C104.256 189.244 109.256 183.344 115.222 181.344C121.344 179.3 127.956 181.533 134.233 183.022C140.522 184.511 148.011 184.911 152.544 180.289C154.711 178.078 156.056 174.811 158.944 173.678C162.178 172.422 165.678 174.433 168.556 176.367C170.056 177.378 173.167 178.178 174.667 179.189L176.778 168L89.7556 165.244C89.9333 165.367 90.0667 165.611 90.2222 165.8C89.9667 165.956 89.7222 166.189 89.4444 166.233C89.1778 166.267 88.8667 166.133 88.6 166.022C88.4667 165.978 88.3444 165.811 88.2889 165.667C88.2111 165.444 88.2111 165.289 88.2667 165.2L87 165.156C86.6 165.156 86.2 165.156 85.7889 165.156C84.6333 164.289 84.1889 162.311 82.1 163.044C82.7445 161.422 83.6556 162.044 84.3556 161.9C84.4667 161.878 87.9778 164.844 88.2556 165.144H88.3444C88.4111 165.1 88.5111 165.1 88.6444 165.144H89.1556C89.2 165.133 89.2333 165.144 89.2667 165.144H177.311V165.133H181.567C183.278 165.133 184.667 163.744 184.667 162.022V153.889C184.667 152.178 183.278 150.778 181.567 150.778ZM133.778 236.633C134.456 235.856 135.122 235.856 135.8 236.633C135.122 237.422 134.456 237.422 133.778 236.633ZM98.9778 238.078C98.6444 237.9 98.3111 237.711 97.9667 237.533C98.1444 237.356 98.3556 237.022 98.4778 237.044C98.8444 237.133 99.1889 237.356 99.5333 237.533C99.3556 237.7 99.1889 237.867 98.9778 238.078ZM150.867 232.833H81.5444L85.2889 238.867C86.4333 240.711 88.4444 241.833 90.6111 241.833H94.5778V244.3H162.678V241.833H166.644C168.822 241.833 170.822 240.711 171.967 238.867L175.711 232.833H150.867Z" fill="#FABE57"/>
<path d="M161.522 773.445H127.956V648.733H161.522V773.445ZM58.5889 493.811C53.5333 493.811 49.4444 489.711 49.4444 484.633C49.4444 479.567 53.5333 475.467 58.5889 475.467C63.6445 475.467 67.7333 479.567 67.7333 484.633C67.7333 489.711 63.6445 493.811 58.5889 493.811ZM67.7333 589.178H49.4444V502.944H67.7333V589.178ZM42.9667 466.667V597.067H74.2111V466.667H42.9667ZM42.9667 420.689H11.7333V302.267H42.9667V420.689ZM54.9778 59.7C59.5445 78.9556 71.4111 91.7111 82.0667 102.7C84.8444 105.544 87.7 108.411 90.4667 111.344C89.7889 109.256 89.0889 107.167 88.4445 105.067C85.4556 95.2889 82.8667 85.2889 82.3111 75.0778C81.9556 68.3667 82.3111 33.7222 109.767 0C108.689 9.6 111.211 20.1 113.167 29.5556C116.489 45.6 119.111 61.8 121.011 78.0889C121.311 80.6889 121.589 83.2778 121.856 85.8667C124.711 66.1778 131.311 46.7333 143.611 31.1778C144.8 38.6667 146.511 46.7667 147.7 54.2667C148.578 59.7333 149.444 65.2 150.089 70.7C161.489 50.7556 178.056 33.6667 197.367 21.1556C192.633 32.8444 186.822 45.5667 184.511 57.9667C182.233 70.2222 182.411 82.8333 180.267 95.1111C180.267 95.1556 180.256 95.1889 180.244 95.2222C183.9 92.0445 187.778 89.1 191.7 86.2556C202.722 78.2556 214.211 70.8889 226.078 64.2C222.156 99.5333 189.8 113.333 174.5 150.778H81.5111C80.1889 149.667 78.8889 148.544 77.6111 147.378C59.4333 130.778 45.8333 97.9556 54.9778 59.7ZM93.5333 507.767C87.2778 507.767 82.2111 502.689 82.2111 496.422C82.2111 490.144 87.2778 485.067 93.5333 485.067C99.7778 485.067 104.844 490.144 104.844 496.422C104.844 502.689 99.7778 507.767 93.5333 507.767ZM104.844 587.3H82.2111V519.056H104.844V587.3ZM74.2111 474.178V597.067H112.856V474.178H74.2111Z" fill="#009D39"/>
<path d="M75.2778 502.967C75.4556 503.311 75.6889 503.633 75.7667 504.011C75.7889 504.133 75.4556 504.344 75.2778 504.511C75.1 504.167 74.8778 503.833 74.7889 503.478C74.7556 503.344 75.1 503.144 75.2778 502.967ZM75.2778 479.744C75.4556 480.089 75.6889 480.422 75.7667 480.789C75.7889 480.911 75.4556 481.122 75.2778 481.3C75.1 480.944 74.8778 480.622 74.7889 480.256C74.7556 480.133 75.1 479.922 75.2778 479.744ZM78.1778 509.378C78.5111 509.556 78.8556 509.744 79.1889 509.922C79.0222 510.1 78.8111 510.433 78.6778 510.411C78.3111 510.333 77.9778 510.1 77.6222 509.922C77.8 509.756 77.9778 509.589 78.1778 509.378ZM82.2111 519.056H104.844V579.111C105.078 578.833 105.3 578.556 105.533 578.289C105.844 577.922 106.2 577.578 106.522 577.222C107.478 577.978 107.689 578.933 107.067 579.8C106.489 580.611 105.722 580.589 104.844 580.1V587.3H82.2111V519.056ZM93.5334 485.067C99.7778 485.067 104.844 490.144 104.844 496.422C104.844 502.689 99.7778 507.767 93.5334 507.767C87.2778 507.767 82.2111 502.689 82.2111 496.422C82.2111 490.144 87.2778 485.067 93.5334 485.067ZM83.3222 483.067C83.5334 483.278 83.7111 483.444 83.8889 483.611C83.5334 483.789 83.2 484.022 82.8334 484.1C82.7 484.122 82.4889 483.789 82.3222 483.611C82.6556 483.433 83 483.244 83.3222 483.067ZM101.144 479.6C101.478 479.367 102.3 479.378 102.544 479.622C102.789 479.867 102.6 480.544 102.6 481.033C101.944 481.533 100.956 482.611 100.689 482.456C98.6889 481.3 100.056 480.367 101.144 479.6ZM106.678 490.911C106.944 490.978 107.044 491.767 107.233 492.222C106.678 492.222 106.122 492.222 105.578 492.222C105.522 491.422 105.678 490.7 106.678 490.911ZM74.2111 597.067H112.856V474.178H74.2111V597.067ZM222.367 414.744C222.2 414.4 221.956 414.067 221.878 413.7C221.844 413.578 222.2 413.367 222.367 413.2C222.556 413.533 222.744 413.867 222.922 414.2C222.722 414.4 222.544 414.578 222.367 414.744ZM63.3556 386.189C63.6778 386.511 63.9445 386.778 64.2111 387.033C63.6778 387.3 63.1556 387.655 62.5889 387.778C62.3889 387.822 62.0667 387.3 61.8 387.033C62.3222 386.744 62.8445 386.467 63.3556 386.189ZM241.144 304.855C240.956 304.522 240.767 304.178 240.589 303.855C240.8 303.655 240.978 303.478 241.144 303.311C241.322 303.655 241.556 303.978 241.633 304.344C241.667 304.478 241.322 304.678 241.144 304.855ZM43.9778 283.189C43.8111 282.844 43.5778 282.511 43.4889 282.144C43.4667 282.022 43.8111 281.811 43.9889 281.644C44.1556 281.989 44.3889 282.311 44.4667 282.678C44.5 282.811 44.1556 283.011 43.9778 283.189ZM52.0333 286.067C51.7 285.878 51.3667 285.689 51.0222 285.511C51.2 285.344 51.4111 285 51.5333 285.022C51.9111 285.111 52.2333 285.344 52.5889 285.511C52.4111 285.678 52.2333 285.855 52.0333 286.067ZM241.933 359.8C242.278 359.633 242.611 359.4 242.978 359.322C243.111 359.289 243.322 359.633 243.5 359.8C243.144 359.967 242.811 360.2 242.444 360.278C242.311 360.311 242.1 359.967 241.933 359.8ZM211.411 346.644C211.244 346.3 211.011 345.967 210.933 345.6C210.9 345.478 211.244 345.267 211.411 345.1C211.589 345.444 211.822 345.767 211.9 346.133C211.933 346.267 211.589 346.467 211.411 346.644ZM43.9778 352.833C43.8 352.489 43.5778 352.155 43.4889 351.8C43.4667 351.667 43.8 351.455 43.9778 351.289C44.1556 351.633 44.3889 351.967 44.4667 352.333C44.5 352.455 44.1556 352.667 43.9778 352.833ZM12.6889 526.178C12.8556 526.522 13.0889 526.856 13.1778 527.222C13.2 527.344 12.8556 527.556 12.6889 527.733C12.5111 527.378 12.2778 527.056 12.2 526.689C12.1667 526.567 12.5111 526.356 12.6889 526.178ZM37.7222 575.7C37.8889 576.056 38.1333 576.378 38.2111 576.744C38.2445 576.878 37.8889 577.078 37.7222 577.256C37.5333 576.922 37.3445 576.578 37.1667 576.256C37.3778 576.056 37.5445 575.878 37.7222 575.7ZM59.7 394.889C60.8111 395.922 60.8111 396.944 59.7 397.978C58.5667 396.944 58.5667 395.922 59.7 394.889ZM247.9 358.478C247.2 359.455 246.222 359.233 245.3 358.555C245.378 357.155 246.944 356.978 247.278 355.833C248.311 356.655 248.522 357.611 247.9 358.478ZM226.889 419.555C226.256 418.822 225.578 418.111 225.033 417.322C224.922 417.155 225.344 416.333 225.5 416.344C226.189 416.389 227.1 416.411 227.489 416.833C227.833 417.233 227.656 418.133 227.633 418.8C227.622 418.978 227.3 419.155 226.889 419.555ZM217.844 408.289C218.489 409.3 219.089 410.244 219.7 411.233C219.222 411.8 218.256 412 217.4 411.322C216.5 410.6 216.633 409.644 217.844 408.289ZM214.844 324.122C214.9 323.867 215.056 323.633 215.167 323.389C215.278 323.511 215.389 323.633 215.522 323.778C215.4 324 215.289 324.244 215.167 324.478C215.056 324.355 214.822 324.211 214.844 324.122ZM48.2 418.478C48.4111 418.611 48.6333 418.744 48.8556 418.867C48.7334 418.989 48.6111 419.233 48.5222 419.211C48.2889 419.156 48.0667 418.989 47.8445 418.867C47.9556 418.744 48.0667 418.622 48.2 418.478ZM52.2222 333.411C52.4556 333.478 52.6778 333.633 52.9 333.755C52.7889 333.878 52.6778 334 52.5333 334.144C52.3222 334.011 52.1111 333.889 51.8889 333.755C52 333.633 52.1333 333.389 52.2222 333.411ZM12.9667 495.8C13.0778 496.044 13.2222 496.278 13.2778 496.533C13.3 496.622 13.0778 496.767 12.9667 496.889C12.8445 496.656 12.7222 496.422 12.6 496.189C12.7445 496.044 12.8556 495.922 12.9667 495.8ZM230.844 407.955C230.822 407.255 230.789 406.533 230.856 405.833C230.878 405.667 231.267 405.5 231.5 405.422C231.578 405.4 231.8 405.633 231.822 405.778C231.878 406.122 231.844 406.489 231.844 406.844C231.844 407.2 231.922 407.578 231.811 407.889C231.744 408.089 231.411 408.233 231.167 408.311C231.1 408.333 230.856 408.089 230.844 407.955ZM46.1 376.822C45.6667 376.778 45.1889 376.589 44.8556 376.289C44.6889 376.144 44.6778 375.489 44.8333 375.3C45.3222 374.722 45.6667 373.911 46.5 373.733C47.1445 374.533 46.7333 375.444 46.7889 376.289C46.8111 376.455 46.3222 376.844 46.1 376.822ZM235.911 393.622C236.467 393.411 237.078 393.244 237.633 392.955C238.044 392.722 238.378 392.344 238.6 392.144C239.856 392.055 240.122 393.144 240.8 393.611C241.011 394.833 241.1 396.055 240.733 397.289C239.8 397.7 238.744 398.011 238.033 397.111C237.133 395.967 236.844 397.6 236.222 397.433C235.556 396.233 235.978 394.967 235.911 393.622ZM224.4 390.878C224.189 390.755 223.978 390.622 223.756 390.5C223.867 390.378 224.011 390.133 224.089 390.155C224.322 390.211 224.544 390.378 224.767 390.5C224.656 390.622 224.544 390.744 224.4 390.878ZM54.9222 289.022C54.2445 289.8 53.5778 289.8 52.9 289.022C53.5778 288.233 54.2445 288.233 54.9222 289.022ZM242.967 292.311C242.967 291.955 242.878 291.578 242.989 291.255C243.067 291.055 243.4 290.922 243.633 290.844C243.711 290.822 243.945 291.067 243.956 291.2C243.989 291.911 244.022 292.622 243.944 293.322C243.933 293.489 243.545 293.644 243.3 293.733C243.233 293.755 243 293.522 242.978 293.378C242.933 293.033 242.967 292.667 242.967 292.311ZM205.156 719.644C205.333 719.989 205.556 720.311 205.644 720.689C205.678 720.811 205.333 721.022 205.156 721.189C204.967 720.856 204.778 720.511 204.6 720.189C204.811 719.989 204.978 719.822 205.156 719.644ZM203.589 739.767C203.767 739.933 203.933 740.111 204.144 740.311C203.967 740.633 203.778 740.978 203.589 741.311C203.411 741.133 203.078 740.933 203.1 740.8C203.189 740.433 203.411 740.111 203.589 739.767ZM206.222 698.944C206.733 699.256 206.756 700.333 206.244 700.744C206.167 700.811 205.989 700.822 205.911 700.767C205.389 700.467 205.378 699.378 205.878 698.978C205.956 698.911 206.111 698.944 206.222 698.944ZM202.522 723.322C202.3 723.444 202.089 723.6 201.844 723.656C201.767 723.678 201.622 723.444 201.511 723.322C201.733 723.2 201.956 723.033 202.189 722.978C202.267 722.956 202.411 723.2 202.522 723.322ZM191.911 648.567C192.022 648.7 192.133 648.811 192.267 648.956C192.156 649.189 192.033 649.422 191.911 649.667C191.789 649.544 191.578 649.389 191.6 649.3C191.644 649.044 191.789 648.811 191.911 648.567ZM191.911 750.056C192.033 750.289 192.156 750.533 192.267 750.756C192.133 750.9 192.022 751.022 191.911 751.144C191.789 750.9 191.644 750.667 191.6 750.411C191.578 750.322 191.789 750.178 191.911 750.056ZM207.589 658.378C207.533 659.2 207.133 659.6 206.333 659.478C205.833 659.322 205.489 659.078 205.544 658.411C205.6 657.589 206.011 657.156 206.8 657.311C207.311 657.411 207.644 657.7 207.589 658.378ZM180.244 95.2222C176.544 116.344 165.733 136.111 150.144 150.778H149.589C150.678 145.489 152.7 140.322 154.744 135.278C158.856 125.155 163.033 114.878 169.7 106.222C172.811 102.178 176.411 98.5666 180.244 95.2222ZM133.078 150.778H131.567C132.1 134.222 133.233 117.622 137.411 101.644C137.133 101.311 137.011 100.833 137.089 100.3C137.178 99.4888 137.567 99.1777 138.078 99.0555C138.089 99.0333 138.089 98.9999 138.1 98.9666C140.922 89.0777 145 79.5999 150.089 70.6999C150.667 75.5888 151.078 80.4888 151.144 85.411C151.267 93.5777 150.444 101.711 148.822 109.689C149.8 110.778 149.933 112.244 149.211 114.1C148.844 113.722 148.489 113.255 148.156 112.755C145.122 126.044 139.9 138.878 133.078 150.778ZM90.4667 111.344C93.5778 114.633 96.5556 118.033 99.1778 121.633C99.5223 121.633 99.8778 121.633 100.256 121.633C100.733 120.889 101.278 120.044 101.811 119.222C102.511 119.978 102.989 120.467 103.522 121.022C103.122 121.744 102.322 122.467 101.878 122.5C101.189 122.533 100.789 122.944 100.356 123.289C103.022 127.189 105.233 131.333 106.667 135.889C108.178 140.7 108.733 145.733 109.067 150.778H105.844C105.111 149.111 104.378 147.455 103.644 145.8C98.6556 134.555 94.2778 123.044 90.4667 111.344ZM14.7333 373.467C14.6556 373.833 14.4222 374.155 14.2556 374.5C14.0778 374.333 13.9 374.155 13.6889 373.955C13.8778 373.633 14.0667 373.289 14.2556 372.955C14.4222 373.133 14.7667 373.333 14.7333 373.467ZM43.9778 550.944C43.8111 550.6 43.5778 550.267 43.4889 549.9C43.4667 549.778 43.8 549.567 43.9778 549.389C44.1667 549.733 44.3556 550.067 44.5333 550.389C44.3333 550.6 44.1556 550.767 43.9778 550.944ZM47.3445 520.211C47.5445 520.422 47.7222 520.589 47.8889 520.767C47.5445 520.933 47.2111 521.167 46.8445 521.244C46.7111 521.278 46.5 520.933 46.3222 520.767C46.6667 520.578 47.0111 520.389 47.3445 520.211ZM21.0556 392.133C21.1667 392.378 21.3111 392.611 21.3667 392.867C21.3889 392.955 21.1667 393.111 21.0556 393.222C20.9333 392.989 20.8111 392.755 20.6889 392.522C20.8222 392.378 20.9445 392.255 21.0556 392.133ZM43.6556 522.378C43.5333 522.611 43.4111 522.844 43.3 523.078C43.1778 522.967 42.9556 522.811 42.9778 522.722C43.0333 522.467 43.1778 522.233 43.3 521.989C43.4111 522.111 43.5222 522.233 43.6556 522.378ZM17.1556 401.022C17.2889 401.167 17.4 401.289 17.5111 401.411C17.2889 401.533 17.0778 401.7 16.8333 401.755C16.7556 401.778 16.6111 401.533 16.5 401.411C16.7222 401.278 16.9445 401.144 17.1556 401.022ZM32.6778 346.855C33.3556 346.067 34.0333 346.067 34.7 346.855C34.0333 347.633 33.3556 347.633 32.6778 346.855ZM17.3222 317.578C16.9445 318.122 15.9445 318.111 15.6556 317.555C15.6111 317.455 15.6222 317.278 15.6778 317.189C16.0556 316.644 17.0556 316.667 17.3556 317.211C17.3445 317.333 17.3778 317.5 17.3222 317.578ZM37.3667 339.6C37.1556 339.467 36.9445 339.333 36.7222 339.211C36.8333 339.089 36.9778 338.855 37.0556 338.867C37.2889 338.922 37.5111 339.089 37.7333 339.211C37.6222 339.333 37.5111 339.455 37.3667 339.6ZM20.5445 417.778C20.3222 417.9 20.1111 418.055 19.8667 418.111C19.7889 418.144 19.6445 417.9 19.5333 417.778C19.7556 417.655 19.9778 417.489 20.2111 417.433C20.3 417.422 20.4333 417.655 20.5445 417.778ZM20.5445 358.855C19.8667 359.633 19.2 359.633 18.5222 358.855C19.2 358.067 19.8667 358.067 20.5445 358.855ZM41.7556 401.411C41.8 402.111 41.8222 402.833 41.7445 403.533C41.7333 403.7 41.3445 403.867 41.1111 403.944C41.0333 403.967 40.8 403.733 40.7889 403.589C40.7333 403.244 40.7667 402.878 40.7667 402.522C40.7667 402.167 40.6889 401.789 40.8 401.478C40.8667 401.278 41.1889 401.133 41.4333 401.055C41.5 401.033 41.7556 401.278 41.7556 401.411ZM30.4222 375.733C29.9222 375.733 29.5111 375.355 29.6556 374.7C29.7222 374.378 29.7889 373.989 29.9889 373.8C30.2 373.622 30.6667 373.489 30.8556 373.611C31.5222 374.067 32.1 374.644 32.7111 375.178C32.0556 376.1 31.1778 375.744 30.4222 375.733ZM36.7 415.744C36.1445 415.955 35.5333 416.122 34.9778 416.411C34.5667 416.644 34.2222 417.033 34 417.222C32.7445 417.322 32.4889 416.222 31.8111 415.755C31.6 414.533 31.5111 413.311 31.8667 412.078C32.8 411.667 33.8556 411.355 34.5778 412.255C35.4778 413.4 35.7667 411.767 36.3889 411.933C37.0445 413.133 36.6222 414.4 36.7 415.744ZM70.8111 521.756C71.0222 521.967 71.1889 522.133 71.3667 522.311C71.0222 522.478 70.6889 522.711 70.3222 522.789C70.1889 522.822 69.9778 522.478 69.8 522.311C70.1445 522.122 70.4778 521.944 70.8111 521.756ZM44.1556 585.433C44.3667 585.567 44.5889 585.689 44.8111 585.822C44.7 585.944 44.5667 586.189 44.4778 586.167C44.2445 586.111 44.0222 585.944 43.8 585.822C43.9111 585.7 44.0222 585.578 44.1556 585.433ZM151.156 683.367C151.256 683.522 151.256 683.911 151.144 684.022C151.033 684.133 150.711 684.044 150.467 684.044C150.233 683.744 149.722 683.278 149.789 683.156C150.344 682.222 150.789 682.856 151.156 683.367ZM139.433 667.022C139.622 667.356 139.811 667.7 139.989 668.022C139.778 668.222 139.611 668.4 139.433 668.567C139.256 668.222 139.033 667.889 138.944 667.533C138.922 667.4 139.256 667.189 139.433 667.022ZM148.022 672.533C148.133 672.689 148.133 673.078 148.011 673.189C147.9 673.3 147.578 673.211 147.344 673.211C147.1 672.911 146.589 672.444 146.667 672.322C147.211 671.389 147.667 672.022 148.022 672.533ZM151.956 697.978C152.144 698.311 152.333 698.644 152.511 698.978C152.3 699.178 152.133 699.356 151.956 699.522C151.778 699.178 151.544 698.844 151.467 698.489C151.433 698.356 151.778 698.156 151.956 697.978ZM150.156 651.767C150.489 651.944 150.833 652.133 151.167 652.322C150.989 652.489 150.778 652.833 150.656 652.8C150.289 652.722 149.956 652.489 149.611 652.322C149.778 652.144 149.956 651.978 150.156 651.767ZM134.967 746.178C135.178 746.389 135.344 746.556 135.522 746.722C135.178 746.9 134.844 747.133 134.478 747.211C134.344 747.233 134.133 746.9 133.956 746.722C134.3 746.544 134.644 746.356 134.967 746.178ZM148.822 742.856C149 743.211 149.233 743.533 149.311 743.9C149.344 744.033 149 744.233 148.822 744.411C148.644 744.056 148.411 743.733 148.333 743.367C148.3 743.244 148.644 743.033 148.822 742.856ZM153.511 750.6C153.689 750.767 153.867 750.944 154.078 751.144C153.9 751.467 153.711 751.811 153.511 752.144C153.344 751.978 153 751.767 153.033 751.633C153.111 751.267 153.344 750.944 153.511 750.6ZM181.789 131.344C181.678 131.844 181.356 132.3 181.122 132.767C180.889 132.533 180.656 132.3 180.367 132.022C180.611 131.578 180.867 131.111 181.122 130.655C181.356 130.9 181.833 131.178 181.789 131.344ZM151.167 689.411C151.167 689.889 151.289 690.411 151.133 690.844C151.022 691.167 150.556 691.389 150.256 691.656C150.044 691.267 149.689 690.889 149.644 690.467C149.578 690.056 149.767 689.589 149.933 689.167C150 688.978 150.244 688.778 150.444 688.7C151.156 688.422 151.411 688.689 151.167 689.411ZM187.156 105.555C186.933 106.322 186.589 106.844 185.611 106.767C184.433 106.678 183.811 106.055 184.044 104.844C184.189 104.078 184.6 103.555 185.578 103.633C186.756 103.722 187.333 104.344 187.156 105.555ZM148.411 673.222C150.022 675.211 149.756 677.233 148.989 679.956C147.389 677.433 148.533 675.211 148.411 673.222ZM134.3 694.922C135.311 695.567 136.2 696.389 137.122 697.144C136.078 698.444 134.733 697.944 133.556 697.922C132.8 697.922 132.189 697.344 132.4 696.422C132.511 695.978 132.633 695.422 132.956 695.167C133.278 694.911 134.011 694.733 134.3 694.922ZM155.811 690.733C156.422 692.333 155.589 693.333 154.244 693.344C152.767 693.367 152.778 692.389 152.722 691.367C152.689 690.644 152.678 689.878 152.422 689.233C152.3 688.933 151.611 688.867 151.167 688.689C151.167 687.144 151.167 685.6 151.167 684.044C154.456 685.078 154.833 688.167 155.811 690.733ZM204.822 101.322C204.633 101.522 204.444 101.733 204.222 101.967C203.867 101.755 203.5 101.544 203.122 101.322C203.311 101.122 203.544 100.711 203.678 100.744C204.089 100.844 204.444 101.122 204.822 101.322ZM151.456 103.144C151.789 102.967 152.1 102.733 152.456 102.655C152.567 102.622 152.778 102.967 152.944 103.144C152.611 103.333 152.289 103.567 151.944 103.644C151.822 103.678 151.622 103.322 151.456 103.144ZM154.689 75.211C155.056 75.011 155.411 74.7444 155.8 74.6444C155.944 74.611 156.167 75.011 156.356 75.211C155.978 75.411 155.622 75.6777 155.233 75.7777C155.1 75.7999 154.867 75.411 154.689 75.211ZM138.322 755.511C138.444 755.744 138.567 755.989 138.689 756.211C138.556 756.356 138.433 756.478 138.322 756.6C138.211 756.356 138.067 756.122 138.011 755.867C137.989 755.778 138.211 755.633 138.322 755.511ZM146.489 136.244C146.878 136.044 147.244 135.767 147.644 135.667C147.778 135.633 148.011 136.044 148.2 136.244C147.822 136.444 147.456 136.733 147.056 136.822C146.911 136.855 146.689 136.444 146.489 136.244ZM171.378 65.511C171.311 65.4222 171.311 65.1777 171.356 65.1555C171.611 64.9999 171.9 64.8888 172.167 64.7666C172.667 64.7222 173.167 64.8666 173.011 65.4777C172.867 66.0666 171.756 66.0555 171.378 65.511ZM153.311 736.078C153.389 736.011 153.611 736.011 153.644 736.044C153.778 736.333 153.878 736.644 154 736.933C154.033 737.467 153.911 738.011 153.344 737.844C152.8 737.678 152.811 736.478 153.311 736.078ZM115.567 108.989C114.844 109.755 114.256 109.755 111.533 108.967C112 108.455 112.467 107.967 112.933 107.455C115.422 107.255 115.422 107.278 115.567 108.989ZM201.722 87.2222C201.567 87.0444 201.4 86.8666 201.2 86.6555C201.378 86.3222 201.556 85.9777 201.722 85.6333C201.889 85.811 202.211 86.0222 202.189 86.1555C202.111 86.5333 201.889 86.8666 201.722 87.2222ZM134.278 53.8555C134.167 53.6222 134.033 53.3777 133.922 53.1555C134.056 53.011 134.167 52.8888 134.278 52.7666C134.389 53.011 134.544 53.2444 134.6 53.4999C134.611 53.5888 134.389 53.7333 134.278 53.8555ZM66.9667 107.567C67.0778 107.478 67.3222 107.467 67.4445 107.533C68.1889 107.967 68.2 109.522 67.4778 110.1C67.3667 110.189 67.1556 110.133 66.9889 110.155C66.2667 109.689 66.2445 108.144 66.9667 107.567ZM119.3 73.2888C119.222 73.3555 118.989 73.3666 118.967 73.3222C118.833 73.0333 118.722 72.7222 118.611 72.4333C118.567 71.8999 118.7 71.3555 119.267 71.5222C119.822 71.6888 119.811 72.8888 119.3 73.2888ZM166.122 141.4C166.011 141.955 165.756 142.367 165.122 142.255C164.967 142.222 164.8 142.244 164.633 142.244C164.3 142.244 163.922 142.355 163.656 142.222C163.167 141.989 162.989 141.455 163.111 140.911C163.189 140.611 163.389 140.167 163.611 140.1C164.078 139.978 164.589 140.044 165.089 140.067C165.889 140.1 166.278 140.589 166.122 141.4ZM215.567 75.0555C215.711 74.7555 215.656 74.3666 215.767 74.0666C215.889 73.7555 216.111 73.511 216.289 73.2333C217.411 73.3777 218.589 72.8444 219.667 73.5999C218.611 75.4888 218.611 75.4888 219.589 76.7777C218.756 77.8777 217.956 78.9444 217.189 79.9444C214.222 78.0333 214.233 78.0444 215.567 75.0555ZM121.856 85.8888C123.944 106.244 124.922 126.722 124.767 147.178C124.756 148.378 124.744 149.578 124.711 150.778H121.344C120.056 130.467 118.911 110.033 121.333 89.8333C121.489 88.511 121.667 87.1999 121.856 85.8888ZM74.4667 740.767C74.4778 740.711 74.4889 740.667 74.5111 740.633C74.7556 740.333 75.1 740.133 74.9556 740.6C75.5889 740.067 75.9111 740.322 75.8889 740.378C75.7 740.722 75.4667 741.044 75.1778 741.289C75.1111 741.356 74.9667 741.378 74.8334 741.378C74.7 741.378 74.5778 741.344 74.5222 741.289C74.4334 741.189 74.4111 740.933 74.4667 740.767ZM75.0556 690.456C75.3778 690.644 75.7222 690.822 76.0556 691.011C75.8889 691.178 75.6778 691.522 75.5445 691.489C75.1778 691.411 74.8445 691.178 74.4889 691.011C74.6667 690.844 74.8445 690.667 75.0556 690.456ZM76.8334 768.811C76.9111 768.789 77.0445 769.033 77.1556 769.144C76.9445 769.278 76.7222 769.411 76.5111 769.533C76.3778 769.389 76.2667 769.278 76.1556 769.144C76.3778 769.033 76.5889 768.867 76.8334 768.811ZM76.8445 752.144C77.0222 752.489 77.2556 752.822 77.3334 753.189C77.3556 753.311 77.0222 753.522 76.8445 753.689C76.6667 753.344 76.4334 753.022 76.3556 752.656C76.3222 752.522 76.6667 752.322 76.8445 752.144ZM78.4111 679.411C78.6 679.733 78.7778 680.078 78.9667 680.4C78.7556 680.611 78.5778 680.778 78.4111 680.956C78.2334 680.611 78 680.278 77.9222 679.911C77.8889 679.778 78.2334 679.578 78.4111 679.411ZM79.2111 725.156C79.4445 724.867 79.8 724.656 80.1 724.411C80.2778 724.589 80.6111 724.844 80.5889 724.9C80.4 725.244 80.1667 725.567 79.8667 725.811C79.7334 725.922 79.3334 725.922 79.2222 725.811C79.1 725.7 79.0889 725.3 79.2111 725.156ZM79.9667 676.311C80.1445 676.656 80.3778 676.978 80.4556 677.344C80.4889 677.478 80.1445 677.689 79.9667 677.856C79.8 677.511 79.5667 677.178 79.4889 676.822C79.4556 676.689 79.8 676.478 79.9667 676.311ZM80.7556 752.144C81.9556 752.333 82.2222 751.022 83.0445 750.733C83.6 750.533 84.5445 750.633 84.9667 750.989C85.9111 751.778 84.5222 751.922 84.3445 752.456C84.2111 752.878 84.0445 753.289 83.8889 753.689C83.1778 753.689 82.4445 753.822 81.7778 753.656C81.1111 753.489 80.5889 752.989 80.7556 752.144C79.9 752.311 79.4 751.8 79.2334 751.133C79.0667 750.478 79.1889 749.756 79.1889 749.056C80.0445 748.878 80.5556 749.4 80.7222 750.067C80.8778 750.722 80.7556 751.444 80.7556 752.144ZM82.3334 738.333C82.3556 738.411 82.3445 738.489 82.3334 738.544C82.3334 738.578 82.3222 738.6 82.3222 738.567C82.0111 739.144 81.5445 739.656 81.4222 739.578C80.4778 739.033 81.1222 738.589 81.6334 738.233C81.7889 738.122 82.1778 738.122 82.2889 738.244C82.3222 738.267 82.3334 738.3 82.3334 738.333ZM81.8 718.389C81.9334 718.356 82.1445 718.7 82.3222 718.867C81.9667 719.044 81.6445 719.267 81.2667 719.356C81.1445 719.378 80.9222 719.044 80.7556 718.867C81.1 718.7 81.4334 718.467 81.8 718.389ZM81.5334 673.211C81.7222 673.544 81.9111 673.889 82.0889 674.211C81.8778 674.411 81.7111 674.589 81.5334 674.767C81.3556 674.411 81.1334 674.089 81.0556 673.722C81.0222 673.589 81.3556 673.389 81.5334 673.211ZM83.2 741.333C83.3556 741.222 83.7445 741.222 83.8556 741.333C83.8889 741.356 83.9 741.4 83.9 741.433C83.9334 740.211 84.4334 739.722 85.4556 739.767C86.2111 739.711 86.9 739.867 86.6889 740.789C86.6334 741.044 85.8778 741.144 85.4556 741.311C84.9334 741.311 84.4222 741.322 83.9 741.644C83.9 741.656 83.8889 741.656 83.8889 741.656C83.5778 742.244 83.1111 742.744 82.9778 742.678C82.0334 742.122 82.6889 741.689 83.2 741.333ZM85.3556 762.944C85.1445 762.889 84.8222 763 84.5334 763.056C84.1556 763.133 83.8556 763.078 83.9222 762.422C83.9222 762.356 83.9222 762.333 83.9222 762.267C83.9889 761.944 84.5778 761.667 84.9667 761.456C85.1556 761.344 85.4556 761.433 84.7889 762.2C86.0889 761.644 86.8445 761.922 86.8222 762.067C86.7 762.811 86.0667 763.167 85.3556 762.944ZM89.1222 746.211C89.2445 746.144 89.5111 746.156 89.6445 746.244C90.4222 746.822 90.3889 748.356 89.6111 748.8C89.4334 748.789 89.2 748.844 89.0889 748.756C88.3 748.178 88.3222 746.644 89.1222 746.211ZM90.6556 701.356C91.0222 701.444 91.3556 701.678 91.7111 701.844C91.5334 702.011 91.3556 702.189 91.1445 702.4C90.8222 702.211 90.4889 702.033 90.1445 701.844C90.3111 701.678 90.5334 701.333 90.6556 701.356ZM94.7889 759.389C94.8 759.322 94.8222 759.256 94.8556 759.211C95.1 758.911 95.4445 758.711 95.3 759.178C95.9334 758.644 96.2667 758.9 96.2334 758.956C96.0445 759.289 95.8111 759.622 95.5222 759.867C95.4445 759.933 95.3 759.944 95.1556 759.944C95.0334 759.944 94.9111 759.911 94.8667 759.867C94.7778 759.778 94.7556 759.567 94.7889 759.389ZM98.9778 716.833C99.9667 717.522 99.7334 718.489 99.0445 719.4C97.6556 719.322 97.4667 717.778 96.3 717.444C97.1334 716.433 98.1 716.211 98.9778 716.833ZM82.7222 770.789C82.6111 770.667 82.5 770.544 82.3667 770.4C82.4778 770.167 82.6 769.933 82.7222 769.7C82.8334 769.811 83.0556 769.967 83.0445 770.056C82.9778 770.311 82.8334 770.544 82.7222 770.789ZM74.2111 773.444H100V671.8H74.2111V773.444ZM210.967 738.233C210.989 738.189 211.222 738.189 211.3 738.256C211.811 738.667 211.822 739.867 211.267 740.022C210.7 740.189 210.567 739.656 210.611 739.111C210.722 738.822 210.833 738.522 210.967 738.233ZM214.144 756.6C214.278 756.833 214.389 757.078 214.511 757.3C214.378 757.444 214.256 757.578 214.144 757.689C214.033 757.444 213.889 757.222 213.833 756.956C213.811 756.867 214.033 756.722 214.144 756.6ZM214.544 742.856C214.722 743.033 215.067 743.244 215.033 743.367C214.956 743.733 214.722 744.056 214.544 744.411C214.378 744.233 214.2 744.056 213.989 743.856C214.167 743.533 214.356 743.189 214.544 742.856ZM219.233 696.433C219.411 696.6 219.756 696.811 219.733 696.933C219.644 697.3 219.411 697.633 219.233 697.978C219.067 697.8 218.889 697.633 218.689 697.422C218.867 697.1 219.056 696.767 219.233 696.433ZM225.422 770.989C225.967 771.156 225.956 772.356 225.456 772.767C225.378 772.822 225.144 772.833 225.122 772.789C224.978 772.5 224.878 772.2 224.767 771.911C224.722 771.367 224.856 770.833 225.422 770.989ZM225.5 690.233C225.689 690.578 225.878 690.911 226.056 691.233C225.844 691.444 225.667 691.611 225.5 691.789C225.322 691.444 225.089 691.111 225.011 690.744C224.978 690.622 225.322 690.411 225.5 690.233ZM227.067 738.211C227.233 738.389 227.578 738.6 227.556 738.722C227.467 739.089 227.233 739.422 227.067 739.767C226.889 739.589 226.711 739.422 226.5 739.211C226.689 738.889 226.878 738.544 227.067 738.211ZM228.311 752.233C228.422 752.478 228.567 752.711 228.622 752.967C228.633 753.056 228.422 753.211 228.311 753.333C228.178 753.089 228.067 752.856 227.944 752.622C228.078 752.478 228.2 752.356 228.311 752.233ZM231.656 668.589C232.067 669.189 231.933 669.867 231.356 670.378C230.9 669.778 230.144 669.444 229.989 668.544C230.567 668.056 231.189 667.922 231.656 668.589ZM231.756 674.767C230.633 673.733 230.633 672.7 231.756 671.656C232.878 672.7 232.878 673.733 231.756 674.767ZM232.356 705.278C231.9 705.244 231.311 705.233 231.067 704.933C230.833 704.656 230.956 704.022 230.978 703.544C230.978 703.422 231.189 703.289 231.456 703.011C231.856 703.533 232.3 704.033 232.644 704.589C232.722 704.711 232.444 705.278 232.356 705.278ZM236.078 656.589C236.222 656 237.344 656.011 237.711 656.567C237.778 656.644 237.789 656.889 237.744 656.911C237.478 657.067 237.189 657.178 236.922 657.3C236.422 657.344 235.922 657.2 236.078 656.589ZM238.411 744.6C238.522 744.833 238.678 745.078 238.733 745.333C238.745 745.422 238.522 745.567 238.411 745.689C238.289 745.444 238.178 745.211 238.056 744.978C238.189 744.833 238.3 744.722 238.411 744.6ZM240.122 750.433C240.267 749.844 241.378 749.856 241.767 750.4C241.822 750.489 241.822 750.733 241.789 750.756C241.522 750.911 241.244 751.022 240.967 751.144C240.467 751.189 239.967 751.044 240.122 750.433ZM238.411 757.689C238.311 757.567 238.189 757.444 238.056 757.3C238.178 757.078 238.289 756.833 238.411 756.6C238.522 756.722 238.745 756.867 238.733 756.956C238.678 757.222 238.522 757.444 238.411 757.689ZM210.467 773.444H244.189V654.889H210.467V773.444ZM94.6 389.922C95.2778 389.133 95.9556 389.133 96.6334 389.922C95.9556 390.7 95.2778 390.7 94.6 389.922ZM96.4 322.655C96.2222 322.822 96.0556 323 95.8445 323.211C95.5222 323.022 95.1778 322.844 94.8445 322.655C95.0111 322.489 95.2223 322.144 95.3556 322.167C95.7223 322.255 96.0556 322.489 96.4 322.655ZM96.1778 317.211C96.5889 317.822 96.4556 318.489 95.8889 319.011C95.4223 318.411 94.6778 318.067 94.5111 317.178C95.0889 316.678 95.7222 316.544 96.1778 317.211ZM85.4334 297.2C84.5556 296.489 83.3667 296.155 82.3111 295.644C83.5222 294.011 85.1111 295.422 86.1556 294.744C87.1667 295.744 87.8889 296.455 88.6111 297.167C87.5556 298.233 86.6222 298.144 85.4334 297.2ZM84.5667 318.767C84.4334 318.878 84.1111 318.789 83.8889 318.789C83.8889 319.544 83.9667 320.322 83.8334 321.055C83.7889 321.289 83.1889 321.489 82.8222 321.578C82.7111 321.611 82.3556 321.255 82.3445 321.067C82.2889 320.311 82.3222 319.544 82.3222 318.789C82.0889 318.789 81.8556 318.789 81.6222 318.789C81.3778 318.478 80.8667 318.011 80.9445 317.9C81.4889 316.955 81.9445 317.6 82.3111 318.111C82.4111 318.255 82.3222 318.555 82.3222 318.789C82.8445 318.789 83.3667 318.789 83.8889 318.789C83.8889 318.555 83.7889 318.255 83.9 318.111C84.1445 317.811 84.4889 317.611 84.7889 317.367C84.9667 317.544 85.3111 317.8 85.2778 317.855C85.0889 318.189 84.8556 318.522 84.5667 318.767ZM76.8222 393.078C75.5445 393.078 74.2667 393.078 72.9222 393.078C72.9889 393.833 72.8334 394.522 71.9 394.3C71.6334 394.244 71.5334 393.511 71.3667 393.078C71.8667 393.078 72.3667 393.078 72.8667 393.078C73.9334 390.144 75.9 389.278 78.8556 390.389C78.8 391.744 77.4667 392.167 76.8222 393.078ZM68.7222 394.889C68.4445 393.722 68.2556 393.289 68.2556 392.855C68.2334 392.022 68.7445 391.467 69.5445 391.567C70.1778 391.644 70.9556 391.933 71.3222 392.389C71.7667 392.955 71.3222 393.044 70.6556 393.155C70.0556 393.267 69.5889 394.067 68.7222 394.889ZM100 289.8H66.2778V420.689H100V289.8Z" fill="#245D78"/>
</g>
<defs>
<clipPath id="clip0_255_67">
<rect width="257" height="800" fill="white"/>
</clipPath>
</defs>
</svg>