<svg width="306" height="84" viewBox="0 0 306 84" fill="none" xmlns="http://www.w3.org/2000/svg">
<path d="M0.00867651 46.726C-0.191323 32.926 3.00868 14.426 15.6087 6.62599C21.4087 3.02599 30.4087 2.52598 39.0087 1.92598C78.1087 -1.07402 119.009 0.125977 158.409 0.925977C182.009 1.42598 205.509 2.12595 229.009 3.02595C249.509 3.82595 272.509 3.626 292.109 6.826C301.609 8.326 307.309 12.526 305.209 22.826C303.309 32.126 303.309 41.726 304.109 51.126C304.709 58.326 306.509 66.926 302.609 73.826C298.709 80.826 291.609 84.026 284.009 83.826C247.909 83.226 211.009 83.826 175.209 82.226C148.909 81.026 122.609 79.726 96.3087 79.126C81.6087 78.826 7.60869 84.026 4.20869 73.826C1.90869 66.326 0.208677 56.626 0.00867651 46.726Z" fill="#FDF4EF"/>
</svg>