<svg width="1552" height="346" viewBox="0 0 1552 346" fill="none" xmlns="http://www.w3.org/2000/svg">
<path fill-rule="evenodd" clip-rule="evenodd" d="M130.806 299V248.654C184.557 248.654 225.881 195.838 205.374 139.624C197.917 118.93 181.14 102.251 160.322 94.8385C103.775 74.4532 50.6446 115.841 50.6446 168.967H0C0 84.0281 82.6469 17.6216 172.13 45.4197C211.278 57.4655 242.348 88.6611 254.777 127.579C282.739 216.841 216.249 299 130.806 299Z" fill="#0069FF"/>
<path fill-rule="evenodd" clip-rule="evenodd" d="M130.797 248.962H80.4629V198.925H130.797V248.962Z" fill="#0069FF"/>
<path fill-rule="evenodd" clip-rule="evenodd" d="M80.466 287.571H41.6282V248.963H80.466V287.571Z" fill="#0069FF"/>
<path fill-rule="evenodd" clip-rule="evenodd" d="M41.6382 248.964H9.0144V216.842H41.3274V248.964H41.6382Z" fill="#0069FF"/>
<path fill-rule="evenodd" clip-rule="evenodd" d="M465.131 114.605C450.217 104.413 431.575 99.1619 409.826 99.1619H362.599V248.653H409.826C431.575 248.653 450.217 243.094 465.131 232.284C473.21 226.415 479.734 218.385 484.084 208.193C488.434 198 490.919 186.262 490.919 172.981C490.919 159.7 488.745 147.963 484.084 138.079C479.734 127.887 473.52 119.856 465.131 114.605ZM390.265 124.181H405.179C421.647 124.181 435.318 127.27 445.571 133.756C457.067 140.551 462.97 153.832 462.97 172.673C462.97 192.132 457.067 205.723 445.571 213.135C435.628 219.621 422.268 223.019 405.49 223.019H390.577V124.181H390.265Z" fill="#0069FF"/>
<path fill-rule="evenodd" clip-rule="evenodd" d="M524.17 96.9998C519.51 96.9998 515.781 98.5441 512.673 101.633C509.567 104.721 507.702 108.428 507.702 113.061C507.702 117.694 509.256 121.401 512.363 124.798C515.47 127.887 519.51 129.43 524.17 129.43C528.83 129.43 532.558 127.887 535.976 124.798C539.083 121.709 540.637 117.694 540.637 113.061C540.637 108.428 539.083 104.721 535.976 101.633C532.558 98.8529 528.519 96.9998 524.17 96.9998Z" fill="#0069FF"/>
<path d="M537.216 143.02H510.496V248.344H537.216V143.02Z" fill="#0069FF"/>
<path fill-rule="evenodd" clip-rule="evenodd" d="M633.821 151.977C625.744 144.874 616.733 140.858 607.101 140.858C592.498 140.858 580.07 145.8 570.749 155.993C561.117 165.877 556.456 178.539 556.456 193.675C556.456 208.5 561.117 221.163 570.438 231.356C579.759 241.24 592.187 246.182 606.79 246.182C617.043 246.182 625.744 243.402 633.2 237.842V240.313C633.2 248.961 630.715 255.757 626.364 260.39C621.704 265.023 615.179 267.494 607.412 267.494C594.984 267.494 587.527 262.552 577.895 250.197L559.875 267.494L560.495 268.111C564.535 273.671 570.438 278.922 578.206 283.864C585.973 288.805 596.226 291.585 607.722 291.585C623.568 291.585 636.307 286.643 645.628 277.069C654.95 267.494 659.921 254.521 659.921 238.769V143.02H633.821V151.977ZM626.682 214.06C622.021 219.312 616.118 221.782 608.351 221.782C600.582 221.782 594.679 219.312 590.329 214.06C585.669 208.81 583.494 202.015 583.494 193.367C583.494 184.718 585.669 177.923 590.329 172.672C594.99 167.421 600.894 164.95 608.351 164.95C616.118 164.95 622.021 167.421 626.682 172.672C631.342 177.923 633.517 185.027 633.517 193.367C633.828 202.015 631.342 208.81 626.682 214.06Z" fill="#0069FF"/>
<path d="M709.331 143.02H682.61V248.344H709.331V143.02Z" fill="#0069FF"/>
<path fill-rule="evenodd" clip-rule="evenodd" d="M696.3 96.9998C691.64 96.9998 687.912 98.5441 684.804 101.633C681.698 104.721 679.833 108.428 679.833 113.061C679.833 117.694 681.387 121.401 684.494 124.798C687.601 127.887 691.64 129.43 696.3 129.43C700.961 129.43 704.689 127.887 708.107 124.798C711.214 121.709 712.768 117.694 712.768 113.061C712.768 108.428 711.214 104.721 708.107 101.633C704.689 98.8529 700.961 96.9998 696.3 96.9998Z" fill="#0069FF"/>
<path fill-rule="evenodd" clip-rule="evenodd" d="M767.752 114.604H741.653V143.02H726.429V167.112H741.653V210.662C741.653 224.252 744.45 234.136 749.731 239.696C755.324 245.255 764.956 248.344 778.316 248.344C782.666 248.344 787.016 248.344 791.366 248.035H792.609V223.944L783.598 224.561C777.384 224.561 773.034 223.326 770.859 221.164C768.685 219.002 767.752 214.369 767.752 207.265V167.421H792.609V143.329H767.752V114.604Z" fill="#0069FF"/>
<path fill-rule="evenodd" clip-rule="evenodd" d="M917.508 98.8525H944.225V248.345H917.508V98.8525Z" fill="#0069FF"/>
<path fill-rule="evenodd" clip-rule="evenodd" d="M1212.99 210.662C1208.33 215.913 1203.35 220.546 1199.62 223.017C1195.9 225.487 1191.24 226.414 1185.96 226.414C1178.19 226.414 1171.66 223.635 1166.69 217.766C1161.72 211.897 1158.92 204.485 1158.92 195.527C1158.92 186.57 1161.41 179.158 1166.38 173.289C1171.35 167.42 1177.88 164.641 1185.65 164.641C1194.34 164.641 1203.35 169.891 1211.12 179.158L1228.83 162.479C1217.34 147.653 1202.73 140.858 1185.33 140.858C1170.73 140.858 1157.99 146.109 1147.74 156.61C1137.49 167.112 1132.2 180.084 1132.2 195.837C1132.2 211.589 1137.49 224.87 1147.74 235.063C1157.99 245.564 1170.73 250.815 1185.33 250.815C1204.6 250.815 1220.13 242.475 1230.7 227.341L1212.99 210.662Z" fill="#0069FF"/>
<path fill-rule="evenodd" clip-rule="evenodd" d="M1322.35 157.847C1318.62 152.596 1313.34 148.272 1307.13 145.184C1300.91 142.095 1293.45 140.55 1285.06 140.55C1270.15 140.55 1258.03 146.11 1249.03 156.612C1240.02 167.422 1235.66 180.703 1235.66 196.146C1235.66 212.208 1240.63 225.18 1250.26 235.373C1259.9 245.256 1272.95 250.508 1288.79 250.508C1306.82 250.508 1321.42 243.404 1332.6 229.196L1333.22 228.578L1315.83 211.899C1314.27 213.752 1311.78 215.915 1309.92 218.077C1307.43 220.547 1304.95 222.401 1302.15 223.636C1298.11 225.489 1293.77 226.725 1288.79 226.725C1281.33 226.725 1275.44 224.563 1270.77 220.239C1266.42 216.223 1263.94 210.972 1263.31 204.177H1333.84L1334.16 194.603C1334.16 187.808 1333.22 181.321 1331.36 175.144C1328.88 168.658 1326.07 163.098 1322.35 157.847ZM1264.25 182.557C1265.5 177.616 1267.98 173.292 1271.09 170.202C1274.82 166.805 1279.47 164.952 1285.07 164.952C1291.6 164.952 1296.56 166.805 1299.98 170.512C1303.09 173.909 1304.96 177.924 1305.26 182.866H1264.25V182.557Z" fill="#0069FF"/>
<path fill-rule="evenodd" clip-rule="evenodd" d="M1424.58 151.051C1416.5 144.255 1405.32 140.858 1391.34 140.858C1382.33 140.858 1374.25 142.711 1366.79 146.417C1359.96 149.815 1353.12 155.684 1348.77 163.405L1349.09 163.714L1366.17 180.084C1373.32 168.965 1381.08 164.95 1391.34 164.95C1396.93 164.95 1401.59 166.494 1405.01 169.274C1408.43 172.053 1410.29 175.76 1410.29 180.702V185.953C1403.76 184.099 1397.24 182.864 1390.71 182.864C1377.36 182.864 1366.79 185.953 1358.71 192.13C1350.64 198.308 1346.6 207.265 1346.6 218.384C1346.6 228.268 1350.01 236.298 1356.85 242.166C1363.69 248.035 1372.38 250.815 1382.64 250.815C1392.89 250.815 1402.21 246.799 1410.91 239.696V248.344H1437.01V180.702C1436.7 167.729 1432.66 157.846 1424.58 151.051ZM1377.35 208.19C1380.46 206.028 1384.5 205.102 1390.09 205.102C1396.61 205.102 1403.45 206.338 1410.28 208.808V219.001C1404.38 224.252 1396.61 227.031 1387.29 227.031C1382.63 227.031 1379.22 226.105 1376.73 223.943C1374.24 222.089 1373 219.619 1373 216.221C1373 212.824 1374.24 210.043 1377.35 208.19Z" fill="#0069FF"/>
<path fill-rule="evenodd" clip-rule="evenodd" d="M1539.23 152.905C1531.77 144.566 1521.51 140.55 1508.15 140.55C1497.59 140.55 1488.9 143.639 1482.68 149.508V143.022H1456.58V248.345H1483.3V190.279C1483.3 182.248 1485.17 176.07 1488.9 171.437C1492.62 166.805 1497.9 164.643 1504.74 164.643C1510.64 164.643 1515.3 166.496 1518.72 170.51C1522.14 174.526 1523.69 180.086 1523.69 187.189V248.037H1550.41V187.189C1550.41 172.672 1546.69 161.245 1539.23 152.905Z" fill="#0069FF"/>
<path fill-rule="evenodd" clip-rule="evenodd" d="M883.974 151.051C875.897 144.255 864.708 140.858 850.732 140.858C841.72 140.858 833.643 142.711 826.184 146.417C819.35 149.815 812.512 155.684 808.162 163.405L808.472 163.714L825.558 180.084C832.709 168.965 840.477 164.95 850.732 164.95C856.322 164.95 860.978 166.494 864.399 169.274C867.82 172.053 869.681 175.76 869.681 180.702V185.953C863.156 184.099 856.631 182.864 850.106 182.864C836.747 182.864 826.184 185.953 818.107 192.13C810.026 198.308 805.987 207.265 805.987 218.384C805.987 228.268 809.405 236.298 816.238 242.166C823.072 248.035 831.774 250.815 842.029 250.815C852.284 250.815 861.604 246.799 870.306 239.696V248.344H896.398V180.702C896.089 167.729 892.051 157.846 883.974 151.051ZM836.739 208.19C839.851 206.028 843.89 205.102 849.48 205.102C856.005 205.102 862.839 206.338 869.672 208.808V219.001C863.773 224.252 856.005 227.031 846.685 227.031C842.021 227.031 838.608 226.105 836.122 223.943C833.635 222.089 832.392 219.619 832.392 216.221C832.392 212.824 833.635 210.043 836.739 208.19Z" fill="#0069FF"/>
<path fill-rule="evenodd" clip-rule="evenodd" d="M1040.55 250.507C997.985 250.507 963.183 215.913 963.183 173.598C963.183 131.284 997.985 96.6902 1040.55 96.6902C1083.12 96.6902 1117.91 131.284 1117.91 173.598C1117.91 215.913 1083.43 250.507 1040.55 250.507ZM1040.54 123.563C1012.89 123.563 990.517 145.801 990.517 173.291C990.517 200.78 1012.89 223.019 1040.54 223.019C1068.19 223.019 1090.56 200.78 1090.56 173.291C1090.56 145.801 1068.19 123.563 1040.54 123.563Z" fill="#0069FF"/>
</svg>