<svg width="2089" height="1023" preserveAspectRatio="none" fill="none" xmlns="http://www.w3.org/2000/svg">
<path d="M1748 68.1249C1544.87 66.8358 1437.18 71.0855 1234.08 68.1249C1035.02 65.6579 834.704 58.569 636.213 61.9647C514.69 63.8732 379.636 67.6187 276.898 111.68C159.875 161.744 131.766 257.361 124.806 340.833C115.143 460.622 108.724 731.792 130.794 850.92C138.133 891.605 154.305 929.11 224.905 943.388C254.49 949.376 284.262 945.334 313.995 943.382C512.689 929.122 713.551 943.327 913.244 947.896C1110.23 952.832 1307.33 951.501 1504.4 952.258C1555.01 952.368 1604.94 953.302 1655.56 952.994C1699.44 952.56 1746.06 950.087 1784.12 936.168C1858.86 909.141 1896.38 851.739 1929.66 804.707C2031.59 659.472 2002.28 397.171 1944.5 238.5C1934.88 211.567 1888.37 104.021 1849.5 89.5C1809.28 74.5358 1793.21 68.5521 1748 68.1249Z" fill="#A47556"/>
<path d="M1810.14 289.023C1808.81 286.831 1807.92 285.181 1810.14 289.023V289.023Z" fill="#543E2E"/>
<path d="M1875.32 997.351C1917.08 1020.24 1959.17 1005.73 1994.08 953.954C2030.74 899.532 2056.13 795.61 2062.99 678.272C2076.47 448.423 2011.29 120.703 1924.92 37.9836C1893.21 7.74092 1860.82 6.98743 1829.38 12.6942C1797.85 18.4065 1753.7 37.5619 1754.9 147.94C1756.07 252.373 1804 285.115 1829.15 338.377C1862.06 408.2 1881.5 537.956 1869.02 637.199C1857.49 728.176 1828 787.015 1816.72 879.111C1805.5 972.053 1847.73 992.65 1870.16 994.806C1871.84 996.129 1873.6 997.164 1875.32 997.351ZM1796.46 241.638C1796.56 241.633 1796.66 241.627 1796.76 241.622C1797.28 241.876 1797.79 242.131 1798.3 242.103C1799.86 243.149 1800.66 244.804 1796.46 241.638ZM1820.24 257.312C1820.34 257.306 1820.34 257.306 1820.24 257.312C1821.03 258.967 1822.11 260.323 1823.18 261.397C1823.22 262.244 1822.17 261.452 1820.24 257.312Z" fill="#543E2E"/>
<path d="M1839.18 357.928C1842.11 367.395 1840.5 361.82 1839.18 357.928V357.928Z" fill="#543E2E"/>
<path d="M319.526 743.173C320.923 745.521 321.844 747.275 319.526 743.173V743.173Z" fill="#543E2E"/>
<path d="M328.873 31.7898C278.927 3.60918 223.698 12.4949 172.743 59.2995C119.21 108.499 73.5513 208.293 49.6283 323.825C2.70658 550.129 42.7693 883.849 141.478 977.237C177.745 1011.4 218.696 1016.39 259.269 1014.84C299.969 1013.3 358.403 1000.08 371.216 890.397C383.294 786.619 326.805 747.854 301.841 691.711C269.205 618.119 261.402 486.82 290.104 389.98C316.531 301.217 361.541 246.695 387.78 156.789C414.069 66.0355 363.223 40.0671 335.087 34.992C333.129 33.4594 331.026 32.2012 328.873 31.7898ZM330.709 791.981C330.581 791.973 330.453 791.966 330.326 791.958C329.704 791.638 329.083 791.318 328.445 791.28C326.597 790.037 325.805 788.29 330.709 791.981ZM302.614 773.315C302.486 773.308 302.486 773.308 302.614 773.315C301.821 771.569 300.629 770.082 299.42 768.877C299.47 768.03 300.696 768.953 302.614 773.315Z" fill="#543E2E"/>
<path d="M291.674 670.998C289.182 661.222 290.505 666.964 291.674 670.998V670.998Z" fill="#543E2E"/>
</svg>