<svg width="200" height="200" viewBox="0 0 200 200" fill="none" xmlns="http://www.w3.org/2000/svg">
<path d="M151.75 134.829C151.75 150.863 119.821 163.865 80.4313 163.865C41.0438 163.865 9.11255 150.865 9.11255 134.829C9.11255 131.098 9.11255 113.677 9.11255 113.677H151.75C151.75 113.679 151.75 124.096 151.75 134.829Z" fill="#F3C68B"/>
<path d="M151.748 113.679C151.748 114.154 151.719 114.629 151.663 115.104C151.606 115.577 151.519 116.052 151.404 116.525C151.29 116.998 151.148 117.469 150.977 117.94C150.806 118.408 150.606 118.877 150.377 119.344C150.15 119.808 149.894 120.273 149.61 120.733C149.327 121.194 149.017 121.652 148.677 122.106C148.34 122.563 147.973 123.013 147.579 123.46C147.185 123.908 146.767 124.35 146.319 124.79C145.873 125.229 145.4 125.663 144.902 126.092C144.402 126.523 143.877 126.946 143.327 127.365C142.777 127.785 142.202 128.198 141.602 128.606C141.002 129.013 140.377 129.415 139.729 129.81C139.081 130.204 138.408 130.594 137.713 130.975C137.019 131.356 136.3 131.731 135.56 132.098C134.819 132.465 134.058 132.825 133.273 133.177C132.49 133.529 131.685 133.873 130.86 134.208C130.035 134.546 129.19 134.873 128.325 135.192C127.46 135.51 126.577 135.821 125.675 136.123C124.771 136.425 123.852 136.717 122.915 137C121.977 137.283 121.023 137.556 120.052 137.821C119.081 138.083 118.096 138.338 117.096 138.583C116.094 138.827 115.079 139.06 114.05 139.285C113.021 139.508 111.977 139.723 110.923 139.925C109.867 140.129 108.8 140.321 107.723 140.504C106.644 140.685 105.556 140.856 104.456 141.017C103.358 141.177 102.25 141.325 101.133 141.463C100.017 141.602 98.8917 141.727 97.7584 141.844C96.6271 141.958 95.4876 142.063 94.3438 142.156C93.2001 142.248 92.0501 142.329 90.8959 142.4C89.7396 142.469 88.5813 142.527 87.4209 142.573C86.2584 142.621 85.0959 142.654 83.9292 142.679C82.7646 142.702 81.598 142.713 80.4313 142.713C79.2626 142.713 78.0959 142.702 76.9313 142.679C75.7646 142.654 74.6021 142.621 73.4396 142.573C72.2792 142.527 71.1209 142.469 69.9667 142.4C68.8105 142.329 67.6626 142.248 66.5167 142.156C65.373 142.063 64.2334 141.958 63.1021 141.844C61.9688 141.727 60.8438 141.602 59.7271 141.463C58.6105 141.325 57.5021 141.177 56.4042 141.017C55.3042 140.856 54.2167 140.685 53.1376 140.504C52.0605 140.321 50.9938 140.129 49.9375 139.925C48.8834 139.723 47.8396 139.508 46.8105 139.285C45.7813 139.06 44.7667 138.827 43.7646 138.583C42.7646 138.338 41.7792 138.083 40.8084 137.821C39.8376 137.556 38.8834 137.283 37.9459 137C37.0084 136.717 36.0896 136.425 35.1875 136.123C34.2855 135.821 33.4001 135.51 32.5355 135.192C31.6709 134.873 30.8271 134.546 30 134.208C29.1751 133.873 28.3709 133.529 27.5875 133.177C26.8042 132.825 26.0417 132.465 25.3 132.098C24.5605 131.731 23.8417 131.356 23.148 130.975C22.4521 130.594 21.7792 130.204 21.1313 129.81C20.4834 129.415 19.8584 129.013 19.2584 128.606C18.6584 128.198 18.0834 127.785 17.5334 127.365C16.9834 126.946 16.4584 126.523 15.9605 126.092C15.4605 125.663 14.9875 125.229 14.5417 124.79C14.0938 124.35 13.675 123.908 13.2813 123.46C12.8875 123.013 12.523 122.563 12.1834 122.106C11.8438 121.652 11.5334 121.194 11.25 120.733C10.9667 120.273 10.7105 119.808 10.4834 119.344C10.2542 118.877 10.0563 118.408 9.88338 117.94C9.71255 117.469 9.57088 116.998 9.4563 116.525C9.34172 116.052 9.2563 115.577 9.19797 115.104C9.14172 114.629 9.11255 114.154 9.11255 113.679C9.11255 113.204 9.14172 112.729 9.19797 112.254C9.2563 111.779 9.34172 111.306 9.4563 110.833C9.57088 110.36 9.71255 109.888 9.88338 109.419C10.0563 108.948 10.2542 108.481 10.4834 108.015C10.7105 107.548 10.9667 107.085 11.25 106.623C11.5334 106.163 11.8438 105.704 12.1834 105.25C12.523 104.796 12.8875 104.344 13.2813 103.898C13.675 103.45 14.0938 103.006 14.5417 102.567C14.9875 102.129 15.4605 101.694 15.9605 101.265C16.4584 100.835 16.9834 100.41 17.5334 99.9917C18.0834 99.573 18.6584 99.1605 19.2584 98.7521C19.8584 98.3438 20.4834 97.9438 21.1313 97.548C21.7792 97.1521 22.4521 96.7646 23.148 96.3834C23.8417 96 24.5605 95.6271 25.3 95.2584C26.0417 94.8917 26.8042 94.5313 27.5875 94.1792C28.3709 93.8271 29.1751 93.4834 30 93.148C30.8271 92.8125 31.6709 92.4855 32.5355 92.1646C33.4001 91.8459 34.2855 91.5355 35.1875 91.2355C36.0896 90.9334 37.0084 90.6417 37.9459 90.3584C38.8834 90.075 39.8376 89.8021 40.8084 89.5375C41.7792 89.273 42.7646 89.0188 43.7646 88.775C44.7667 88.5313 45.7813 88.2959 46.8105 88.073C47.8396 87.848 48.8834 87.6355 49.9375 87.4313C50.9938 87.2292 52.0605 87.0355 53.1376 86.8542C54.2167 86.673 55.3042 86.5021 56.4042 86.3417C57.5021 86.1813 58.6105 86.0313 59.7271 85.8938C60.8438 85.7563 61.9688 85.6292 63.1021 85.5146C64.2334 85.398 65.373 85.2938 66.5167 85.2021C67.6626 85.1084 68.8105 85.0271 69.9667 84.9584C71.1209 84.8875 72.2792 84.8313 73.4396 84.7834C74.6021 84.7375 75.7646 84.7021 76.9313 84.6792C78.0959 84.6563 79.2626 84.6438 80.4313 84.6438C81.598 84.6438 82.7646 84.6563 83.9292 84.6792C85.0959 84.7021 86.2584 84.7375 87.4209 84.7834C88.5813 84.8313 89.7396 84.8875 90.8959 84.9584C92.0501 85.0271 93.2001 85.1084 94.3438 85.2021C95.4876 85.2938 96.6271 85.398 97.7584 85.5146C98.8917 85.6292 100.017 85.7563 101.133 85.8938C102.25 86.0313 103.358 86.1813 104.456 86.3417C105.556 86.5021 106.644 86.673 107.723 86.8542C108.8 87.0355 109.867 87.2292 110.923 87.4313C111.977 87.6355 113.021 87.848 114.05 88.073C115.079 88.2959 116.094 88.5313 117.096 88.775C118.096 89.0188 119.081 89.273 120.052 89.5375C121.023 89.8021 121.977 90.075 122.915 90.3584C123.852 90.6417 124.771 90.9334 125.675 91.2355C126.577 91.5355 127.46 91.8459 128.325 92.1646C129.19 92.4855 130.035 92.8125 130.86 93.148C131.685 93.4834 132.49 93.8271 133.273 94.1792C134.058 94.5313 134.819 94.8917 135.56 95.2584C136.3 95.6271 137.019 96 137.713 96.3834C138.408 96.7646 139.081 97.1521 139.729 97.548C140.377 97.9438 141.002 98.3438 141.602 98.7521C142.202 99.1605 142.777 99.573 143.327 99.9917C143.877 100.41 144.402 100.835 144.902 101.265C145.4 101.694 145.873 102.129 146.319 102.567C146.767 103.006 147.185 103.45 147.579 103.898C147.973 104.344 148.34 104.796 148.677 105.25C149.017 105.704 149.327 106.163 149.61 106.623C149.894 107.085 150.15 107.548 150.377 108.015C150.606 108.481 150.806 108.948 150.977 109.419C151.148 109.888 151.29 110.36 151.404 110.833C151.519 111.306 151.604 111.779 151.663 112.254C151.719 112.729 151.748 113.204 151.748 113.679Z" fill="#FFE5B6"/>
<path d="M151.75 103.423C151.75 119.458 119.821 132.458 80.4313 132.458C41.0438 132.458 9.11255 119.458 9.11255 103.423C9.11255 99.6917 9.11255 82.2729 9.11255 82.2729H151.75C151.75 82.2729 151.75 92.6875 151.75 103.423Z" fill="#F3C68B"/>
<path d="M151.748 82.273C151.748 82.748 151.719 83.223 151.663 83.698C151.606 84.173 151.519 84.6459 151.404 85.1188C151.29 85.5917 151.148 86.0625 150.977 86.5334C150.806 87.0042 150.606 87.4709 150.377 87.9375C150.15 88.4042 149.894 88.8667 149.61 89.3271C149.327 89.7896 149.017 90.2459 148.677 90.7021C148.34 91.1563 147.973 91.6063 147.579 92.0542C147.185 92.5021 146.767 92.9459 146.319 93.3834C145.873 93.823 145.4 94.2584 144.902 94.6875C144.402 95.1167 143.877 95.5417 143.327 95.9605C142.777 96.3792 142.202 96.7917 141.602 97.2C141.002 97.6084 140.377 98.0084 139.729 98.4042C139.081 98.8 138.408 99.1875 137.713 99.5688C137.019 99.95 136.3 100.325 135.56 100.694C134.819 101.06 134.058 101.419 133.273 101.771C132.49 102.123 131.685 102.469 130.86 102.804C130.035 103.14 129.19 103.467 128.325 103.788C127.46 104.106 126.577 104.417 125.675 104.717C124.771 105.019 123.852 105.31 122.915 105.594C121.977 105.877 121.023 106.15 120.052 106.415C119.081 106.679 118.096 106.933 117.096 107.177C116.094 107.421 115.079 107.656 114.05 107.879C113.021 108.104 111.977 108.317 110.923 108.521C109.867 108.723 108.8 108.917 107.723 109.098C106.644 109.279 105.556 109.45 104.456 109.61C103.358 109.771 102.25 109.921 101.133 110.058C100.017 110.196 98.8917 110.323 97.7584 110.438C96.6271 110.554 95.4876 110.658 94.3438 110.75C93.2001 110.844 92.0501 110.925 90.8959 110.994C89.7396 111.065 88.5813 111.123 87.4209 111.169C86.2584 111.215 85.0959 111.25 83.9292 111.273C82.7646 111.296 81.598 111.308 80.4313 111.308C79.2626 111.308 78.0959 111.296 76.9313 111.273C75.7646 111.25 74.6021 111.215 73.4396 111.169C72.2792 111.123 71.1209 111.065 69.9667 110.994C68.8105 110.925 67.6626 110.844 66.5167 110.75C65.373 110.658 64.2334 110.554 63.1021 110.438C61.9688 110.323 60.8438 110.196 59.7271 110.058C58.6105 109.921 57.5021 109.771 56.4042 109.61C55.3042 109.45 54.2167 109.279 53.1376 109.098C52.0605 108.917 50.9938 108.723 49.9375 108.521C48.8834 108.317 47.8396 108.104 46.8105 107.879C45.7813 107.656 44.7667 107.421 43.7646 107.177C42.7646 106.933 41.7792 106.679 40.8084 106.415C39.8376 106.15 38.8834 105.877 37.9459 105.594C37.0084 105.31 36.0896 105.019 35.1875 104.717C34.2855 104.417 33.4001 104.106 32.5355 103.788C31.6709 103.467 30.8271 103.14 30 102.804C29.1751 102.469 28.3709 102.123 27.5875 101.771C26.8042 101.419 26.0417 101.06 25.3 100.694C24.5605 100.325 23.8417 99.95 23.148 99.5688C22.4521 99.1875 21.7792 98.8 21.1313 98.4042C20.4834 98.0084 19.8584 97.6084 19.2584 97.2C18.6584 96.7917 18.0834 96.3792 17.5334 95.9605C16.9834 95.5417 16.4584 95.1167 15.9605 94.6875C15.4605 94.2584 14.9875 93.823 14.5417 93.3834C14.0938 92.9459 13.675 92.5021 13.2813 92.0542C12.8875 91.6063 12.523 91.1563 12.1834 90.7021C11.8438 90.2459 11.5334 89.7896 11.25 89.3271C10.9667 88.8667 10.7105 88.4042 10.4834 87.9375C10.2542 87.4709 10.0563 87.0042 9.88338 86.5334C9.71255 86.0625 9.57088 85.5917 9.4563 85.1188C9.34172 84.6459 9.2563 84.173 9.19797 83.698C9.14172 83.223 9.11255 82.748 9.11255 82.273C9.11255 81.798 9.14172 81.323 9.19797 80.848C9.2563 80.373 9.34172 79.9 9.4563 79.4271C9.57088 78.9542 9.71255 78.4834 9.88338 78.0125C10.0563 77.5417 10.2542 77.075 10.4834 76.6084C10.7105 76.1417 10.9667 75.6792 11.25 75.2188C11.5334 74.7563 11.8438 74.3 12.1834 73.8438C12.523 73.3896 12.8875 72.9375 13.2813 72.4917C13.675 72.0438 14.0938 71.6 14.5417 71.1605C14.9875 70.723 15.4605 70.2875 15.9605 69.8584C16.4584 69.4292 16.9834 69.0042 17.5334 68.5855C18.0834 68.1667 18.6584 67.7542 19.2584 67.3459C19.8584 66.9375 20.4834 66.5375 21.1313 66.1417C21.7792 65.7459 22.4521 65.3584 23.148 64.9771C23.8417 64.5938 24.5605 64.2209 25.3 63.8521C26.0417 63.4855 26.8042 63.125 27.5875 62.773C28.3709 62.4209 29.1751 62.0771 30 61.7417C30.8271 61.4063 31.6709 61.0792 32.5355 60.7584C33.4001 60.4396 34.2855 60.1292 35.1875 59.8292C36.0896 59.5271 37.0084 59.2355 37.9459 58.9521C38.8834 58.6688 39.8376 58.3938 40.8084 58.1313C41.7792 57.8667 42.7646 57.6125 43.7646 57.3688C44.7667 57.125 45.7813 56.8896 46.8105 56.6667C47.8396 56.4417 48.8834 56.2292 49.9375 56.025C50.9938 55.823 52.0605 55.6292 53.1376 55.448C54.2167 55.2667 55.3042 55.0959 56.4042 54.9355C57.5021 54.775 58.6105 54.625 59.7271 54.4875C60.8438 54.35 61.9688 54.223 63.1021 54.1084C64.2334 53.9917 65.373 53.8875 66.5167 53.7959C67.6626 53.7021 68.8105 53.6209 69.9667 53.5521C71.1209 53.4813 72.2792 53.423 73.4396 53.3771C74.6021 53.3313 75.7646 53.2959 76.9313 53.273C78.0959 53.25 79.2626 53.2375 80.4313 53.2375C81.598 53.2375 82.7646 53.25 83.9292 53.273C85.0959 53.2959 86.2584 53.3313 87.4209 53.3771C88.5813 53.423 89.7396 53.4813 90.8959 53.5521C92.0501 53.6209 93.2001 53.7021 94.3438 53.7959C95.4876 53.8875 96.6271 53.9917 97.7584 54.1084C98.8917 54.223 100.017 54.35 101.133 54.4875C102.25 54.625 103.358 54.775 104.456 54.9355C105.556 55.0959 106.644 55.2667 107.723 55.448C108.8 55.6292 109.867 55.823 110.923 56.025C111.977 56.2292 113.021 56.4417 114.05 56.6667C115.079 56.8896 116.094 57.125 117.096 57.3688C118.096 57.6125 119.081 57.8667 120.052 58.1313C121.023 58.3938 121.977 58.6688 122.915 58.9521C123.852 59.2355 124.771 59.5271 125.675 59.8292C126.577 60.1292 127.46 60.4396 128.325 60.7584C129.19 61.0792 130.035 61.4063 130.86 61.7417C131.685 62.0771 132.49 62.4209 133.273 62.773C134.058 63.125 134.819 63.4855 135.56 63.8521C136.3 64.2209 137.019 64.5938 137.713 64.9771C138.408 65.3584 139.081 65.7459 139.729 66.1417C140.377 66.5375 141.002 66.9375 141.602 67.3459C142.202 67.7542 142.777 68.1667 143.327 68.5855C143.877 69.0042 144.402 69.4292 144.902 69.8584C145.4 70.2875 145.873 70.723 146.319 71.1625C146.767 71.6 147.185 72.0438 147.579 72.4917C147.973 72.9375 148.34 73.3896 148.677 73.8438C149.017 74.3 149.327 74.7563 149.61 75.2188C149.894 75.6792 150.15 76.1417 150.377 76.6084C150.606 77.075 150.806 77.5417 150.977 78.0125C151.148 78.4834 151.29 78.9542 151.404 79.4271C151.519 79.9 151.604 80.373 151.663 80.848C151.719 81.323 151.748 81.798 151.748 82.273Z" fill="#FFE5B6"/>
<path d="M151.75 72.7646C151.75 88.8 119.821 101.8 80.4313 101.8C41.0438 101.8 9.11255 88.8 9.11255 72.7646C9.11255 69.0334 9.11255 51.6146 9.11255 51.6146H151.75C151.75 51.6146 151.75 62.0313 151.75 72.7646Z" fill="#F3C68B"/>
<path d="M151.748 51.6146C151.748 52.0896 151.719 52.5646 151.663 53.0396C151.606 53.5146 151.519 53.9876 151.404 54.4605C151.29 54.9334 151.148 55.4042 150.977 55.8751C150.806 56.3459 150.606 56.8126 150.377 57.2792C150.15 57.7459 149.894 58.2084 149.61 58.6688C149.327 59.1313 149.017 59.5876 148.677 60.0438C148.34 60.498 147.973 60.948 147.579 61.3959C147.185 61.8438 146.767 62.2876 146.319 62.7251C145.873 63.1646 145.4 63.598 144.902 64.0292C144.402 64.4584 143.877 64.8834 143.327 65.3021C142.777 65.7209 142.202 66.1334 141.602 66.5417C141.002 66.948 140.377 67.3501 139.729 67.7459C139.081 68.1396 138.408 68.5292 137.713 68.9105C137.019 69.2917 136.3 69.6667 135.56 70.0334C134.819 70.4021 134.058 70.7605 133.273 71.1126C132.49 71.4646 131.685 71.8084 130.86 72.1459C130.035 72.4813 129.19 72.8084 128.325 73.1271C127.46 73.448 126.577 73.7563 125.675 74.0584C124.771 74.3605 123.852 74.6521 122.915 74.9355C121.977 75.2188 121.023 75.4917 120.052 75.7563C119.081 76.0209 118.096 76.2751 117.096 76.5188C116.094 76.7626 115.079 76.998 114.05 77.2209C113.021 77.4459 111.977 77.6584 110.923 77.8626C109.867 78.0646 108.8 78.2563 107.723 78.4396C106.644 78.6209 105.556 78.7917 104.456 78.9521C103.358 79.1126 102.25 79.2605 101.133 79.4001C100.017 79.5376 98.8917 79.6646 97.7584 79.7792C96.6271 79.8938 95.4876 79.998 94.3438 80.0917C93.2001 80.1834 92.0501 80.2646 90.8959 80.3355C89.7396 80.4042 88.5813 80.4626 87.4209 80.5105C86.2584 80.5563 85.0959 80.5917 83.9292 80.6146C82.7646 80.6376 81.598 80.6501 80.4313 80.6501C79.2626 80.6501 78.0959 80.6376 76.9313 80.6146C75.7646 80.5917 74.6021 80.5563 73.4396 80.5105C72.2792 80.4626 71.1209 80.4042 69.9667 80.3355C68.8105 80.2646 67.6626 80.1834 66.5167 80.0917C65.373 79.998 64.2334 79.8938 63.1021 79.7792C61.9688 79.6646 60.8438 79.5376 59.7271 79.4001C58.6105 79.2605 57.5021 79.1126 56.4042 78.9521C55.3042 78.7917 54.2167 78.6209 53.1376 78.4396C52.0605 78.2563 50.9938 78.0646 49.9375 77.8626C48.8834 77.6584 47.8396 77.4459 46.8105 77.2209C45.7813 76.9959 44.7667 76.7626 43.7646 76.5188C42.7646 76.2751 41.7792 76.0209 40.8084 75.7563C39.8376 75.4917 38.8834 75.2188 37.9459 74.9355C37.0084 74.6521 36.0896 74.3605 35.1875 74.0584C34.2855 73.7563 33.4001 73.448 32.5355 73.1271C31.6709 72.8084 30.8271 72.4813 30 72.1459C29.1751 71.8084 28.3709 71.4646 27.5875 71.1126C26.8042 70.7605 26.0417 70.4021 25.3 70.0334C24.5605 69.6667 23.8417 69.2917 23.148 68.9105C22.4521 68.5292 21.7792 68.1396 21.1313 67.7459C20.4834 67.3501 19.8584 66.948 19.2584 66.5417C18.6584 66.1334 18.0834 65.7209 17.5334 65.3021C16.9834 64.8834 16.4584 64.4584 15.9605 64.0292C15.4605 63.598 14.9875 63.1646 14.5417 62.7251C14.0938 62.2876 13.675 61.8438 13.2813 61.3959C12.8875 60.948 12.523 60.498 12.1834 60.0438C11.8438 59.5876 11.5334 59.1313 11.25 58.6688C10.9667 58.2084 10.7105 57.7459 10.4834 57.2792C10.2542 56.8126 10.0563 56.3459 9.88338 55.8751C9.71255 55.4042 9.57088 54.9334 9.4563 54.4605C9.34172 53.9876 9.2563 53.5146 9.19797 53.0396C9.14172 52.5646 9.11255 52.0896 9.11255 51.6146C9.11255 51.1396 9.14172 50.6646 9.19797 50.1896C9.2563 49.7146 9.34172 49.2417 9.4563 48.7688C9.57088 48.2959 9.71255 47.8251 9.88338 47.3542C10.0563 46.8834 10.2542 46.4167 10.4834 45.9501C10.7105 45.4834 10.9667 45.0209 11.25 44.5605C11.5334 44.098 11.8438 43.6417 12.1834 43.1855C12.523 42.7313 12.8875 42.2813 13.2813 41.8334C13.675 41.3855 14.0938 40.9417 14.5417 40.5042C14.9875 40.0646 15.4605 39.6292 15.9605 39.2001C16.4584 38.7709 16.9834 38.3459 17.5334 37.9271C18.0834 37.5084 18.6584 37.0959 19.2584 36.6876C19.8584 36.2792 20.4834 35.8792 21.1313 35.4834C21.7792 35.0896 22.4521 34.7001 23.148 34.3188C23.8417 33.9376 24.5605 33.5626 25.3 33.1959C26.0417 32.8271 26.8042 32.4688 27.5875 32.1167C28.3709 31.7646 29.1751 31.4209 30 31.0834C30.8271 30.748 31.6709 30.4209 32.5355 30.1021C33.4001 29.7813 34.2855 29.4709 35.1875 29.1709C36.0896 28.8688 37.0084 28.5771 37.9459 28.2938C38.8834 28.0105 39.8376 27.7376 40.8084 27.473C41.7792 27.2084 42.7646 26.9542 43.7646 26.7105C44.7667 26.4667 45.7813 26.2313 46.8105 26.0084C47.8396 25.7834 48.8834 25.5709 49.9375 25.3667C50.9938 25.1646 52.0605 24.9709 53.1376 24.7896C54.2167 24.6084 55.3042 24.4376 56.4042 24.2771C57.5021 24.1167 58.6105 23.9688 59.7271 23.8292C60.8438 23.6917 61.9688 23.5646 63.1021 23.4501C64.2334 23.3355 65.373 23.2313 66.5167 23.1376C67.6626 23.0459 68.8105 22.9646 69.9667 22.8938C71.1209 22.8251 72.2792 22.7667 73.4396 22.7188C74.6021 22.673 75.7646 22.6376 76.9313 22.6146C78.0959 22.5917 79.2626 22.5792 80.4313 22.5792C81.598 22.5792 82.7646 22.5917 83.9292 22.6146C85.0959 22.6376 86.2584 22.673 87.4209 22.7188C88.5813 22.7667 89.7396 22.8251 90.8959 22.8938C92.0501 22.9646 93.2001 23.0459 94.3438 23.1376C95.4876 23.2313 96.6271 23.3355 97.7584 23.4501C98.8917 23.5646 100.017 23.6917 101.133 23.8292C102.25 23.9688 103.358 24.1167 104.456 24.2771C105.556 24.4376 106.644 24.6084 107.723 24.7896C108.8 24.9709 109.867 25.1646 110.923 25.3667C111.977 25.5709 113.021 25.7834 114.05 26.0084C115.079 26.2313 116.094 26.4667 117.096 26.7105C118.096 26.9542 119.081 27.2084 120.052 27.473C121.023 27.7376 121.977 28.0105 122.915 28.2938C123.852 28.5771 124.771 28.8688 125.675 29.1709C126.577 29.4709 127.46 29.7813 128.325 30.1021C129.19 30.4209 130.035 30.748 130.86 31.0834C131.685 31.4209 132.49 31.7646 133.273 32.1167C134.058 32.4688 134.819 32.8271 135.56 33.1959C136.3 33.5626 137.019 33.9376 137.713 34.3188C138.408 34.7001 139.081 35.0896 139.729 35.4834C140.377 35.8792 141.002 36.2792 141.602 36.6876C142.202 37.0959 142.777 37.5084 143.327 37.9271C143.877 38.3459 144.402 38.7709 144.902 39.2001C145.4 39.6292 145.873 40.0646 146.319 40.5042C146.767 40.9417 147.185 41.3855 147.579 41.8334C147.973 42.2813 148.34 42.7313 148.677 43.1855C149.017 43.6417 149.327 44.098 149.61 44.5605C149.894 45.0209 150.15 45.4834 150.377 45.9501C150.606 46.4167 150.806 46.8834 150.977 47.3542C151.148 47.8251 151.29 48.2959 151.404 48.7688C151.519 49.2417 151.604 49.7146 151.663 50.1896C151.719 50.6646 151.748 51.1396 151.748 51.6146Z" fill="#FFE5B6"/>
<path d="M173.029 141.704C173.336 139.921 173.496 138.138 173.496 136.388C173.496 118.025 155.258 109.806 140.84 113.129C129.671 115.7 122.331 124.013 122.331 124.013C122.331 124.013 116.625 121.21 110 122.771C96.9439 125.842 94.3439 136.052 94.3439 136.052C94.3439 136.052 91.0522 135.456 87.9876 136.281C78.6689 138.794 70.2397 145.152 72.6585 156.981C74.8168 167.521 83.2335 169.817 92.5606 172.302C104.661 175.529 164.333 176.329 172.163 174.298C183.571 171.342 190.988 163.969 189.158 153.217C187.606 144.096 180.502 140.865 173.029 141.704Z" fill="#2F80ED"/>
<path d="M169.265 143.586C169.571 141.802 169.731 140.019 169.731 138.271C169.731 119.908 151.363 111.158 137.075 115.011C129.677 117.002 123.661 121.531 119.598 127.469C115.931 124.486 110.719 123.446 106.236 124.654C99.6606 126.425 95.0543 131.815 93.7564 138.263C90.6335 137.398 87.2877 137.34 84.2231 138.165C74.9022 140.677 66.4752 147.036 68.8939 158.863C71.0522 169.402 79.4668 171.698 88.796 174.186C100.896 177.411 163.144 176.215 170.975 174.186C182.384 171.227 187.221 165.852 185.392 155.1C183.842 145.979 176.736 142.746 169.265 143.586Z" fill="#9DDCF8"/>
</svg>