<svg width="1440" height="648" viewBox="0 0 1440 648" fill="none" xmlns="http://www.w3.org/2000/svg">
<path d="M0.5625 37.1641H36.7773V0.949219H0.5625V37.1641ZM37.7266 38.1133H-0.390625V0H37.7266V38.1133Z" fill="#D5B391"/>
<path d="M38.6797 37.1641H74.8945V0.949219H38.6797V37.1641ZM75.8438 38.1133H37.7266V0H75.8438V38.1133Z" fill="#D5B391"/>
<path d="M76.7969 37.1641H113.008V0.949219H76.7969V37.1641ZM113.961 38.1133H75.8438V0H113.961V38.1133Z" fill="#D5B391"/>
<path d="M114.914 37.1641H151.125V0.949219H114.914V37.1641ZM152.078 38.1133H113.961V0H152.078V38.1133Z" fill="#D5B391"/>
<path d="M153.027 37.1641H189.242V0.949219H153.027V37.1641ZM190.195 38.1133H152.078V0H190.195V38.1133Z" fill="#D5B391"/>
<path d="M191.145 37.1641H227.359V0.949219H191.145V37.1641ZM228.309 38.1133H190.195V0H228.309V38.1133Z" fill="#D5B391"/>
<path d="M229.262 37.1641H265.477V0.949219H229.262V37.1641ZM266.426 38.1133H228.309V0H266.426V38.1133Z" fill="#D5B391"/>
<path d="M267.379 37.1641H303.594V0.949219H267.379V37.1641ZM304.543 38.1133H266.426V0H304.543V38.1133Z" fill="#D5B391"/>
<path d="M305.492 37.1641H341.707V0.949219H305.492V37.1641ZM342.66 38.1133H304.543V0H342.66V38.1133Z" fill="#D5B391"/>
<path d="M0.5625 75.2812H36.7773V39.0664H0.5625V75.2812ZM37.7266 76.2305H-0.390625V38.1133H37.7266V76.2305Z" fill="#D5B391"/>
<path d="M38.6797 75.2812H74.8945V39.0664H38.6797V75.2812ZM75.8438 76.2305H37.7266V38.1133H75.8438V76.2305Z" fill="#D5B391"/>
<path d="M76.7969 75.2812H113.008V39.0664H76.7969V75.2812ZM113.961 76.2305H75.8438V38.1133H113.961V76.2305Z" fill="#D5B391"/>
<path d="M114.914 75.2812H151.125V39.0664H114.914V75.2812ZM152.078 76.2305H113.961V38.1133H152.078V76.2305Z" fill="#D5B391"/>
<path d="M153.027 75.2812H189.242V39.0664H153.027V75.2812ZM190.195 76.2305H152.078V38.1133H190.195V76.2305Z" fill="#D5B391"/>
<path d="M191.145 75.2812H227.359V39.0664H191.145V75.2812ZM228.309 76.2305H190.195V38.1133H228.309V76.2305Z" fill="#D5B391"/>
<path d="M229.262 75.2812H265.477V39.0664H229.262V75.2812ZM266.426 76.2305H228.309V38.1133H266.426V76.2305Z" fill="#D5B391"/>
<path d="M267.379 75.2812H303.594V39.0664H267.379V75.2812ZM304.543 76.2305H266.426V38.1133H304.543V76.2305Z" fill="#D5B391"/>
<path d="M305.492 75.2812H341.707V39.0664H305.492V75.2812ZM342.66 76.2305H304.543V38.1133H342.66V76.2305Z" fill="#D5B391"/>
<path d="M0.5625 113.395H36.7773V77.1836H0.5625V113.395ZM37.7266 114.348H-0.390625V76.2305H37.7266V114.348Z" fill="#D5B391"/>
<path d="M38.6797 113.395H74.8945V77.1836H38.6797V113.395ZM75.8438 114.348H37.7266V76.2305H75.8438V114.348Z" fill="#D5B391"/>
<path d="M76.7969 113.395H113.008V77.1836H76.7969V113.395ZM113.961 114.348H75.8438V76.2305H113.961V114.348Z" fill="#D5B391"/>
<path d="M114.914 113.395H151.125V77.1836H114.914V113.395ZM152.078 114.348H113.961V76.2305H152.078V114.348Z" fill="#D5B391"/>
<path d="M153.027 113.395H189.242V77.1836H153.027V113.395ZM190.195 114.348H152.078V76.2305H190.195V114.348Z" fill="#D5B391"/>
<path d="M191.145 113.395H227.359V77.1836H191.145V113.395ZM228.309 114.348H190.195V76.2305H228.309V114.348Z" fill="#D5B391"/>
<path d="M229.262 113.395H265.477V77.1836H229.262V113.395ZM266.426 114.348H228.309V76.2305H266.426V114.348Z" fill="#D5B391"/>
<path d="M267.379 113.395H303.594V77.1836H267.379V113.395ZM304.543 114.348H266.426V76.2305H304.543V114.348Z" fill="#D5B391"/>
<path d="M305.492 113.395H341.707V77.1836H305.492V113.395ZM342.66 114.348H304.543V76.2305H342.66V114.348Z" fill="#D5B391"/>
<path d="M0.5625 151.512H36.7773V115.301H0.5625V151.512ZM37.7266 152.465H-0.390625V114.348H37.7266V152.465Z" fill="#D5B391"/>
<path d="M38.6797 151.512H74.8945V115.301H38.6797V151.512ZM75.8438 152.465H37.7266V114.348H75.8438V152.465Z" fill="#D5B391"/>
<path d="M76.7969 151.512H113.008V115.301H76.7969V151.512ZM113.961 152.465H75.8438V114.348H113.961V152.465Z" fill="#D5B391"/>
<path d="M114.914 151.512H151.125V115.301H114.914V151.512ZM152.078 152.465H113.961V114.348H152.078V152.465Z" fill="#D5B391"/>
<path d="M153.027 151.512H189.242V115.301H153.027V151.512ZM190.195 152.465H152.078V114.348H190.195V152.465Z" fill="#D5B391"/>
<path d="M191.145 151.512H227.359V115.301H191.145V151.512ZM228.309 152.465H190.195V114.348H228.309V152.465Z" fill="#D5B391"/>
<path d="M229.262 151.512H265.477V115.301H229.262V151.512ZM266.426 152.465H228.309V114.348H266.426V152.465Z" fill="#D5B391"/>
<path d="M267.379 151.512H303.594V115.301H267.379V151.512ZM304.543 152.465H266.426V114.348H304.543V152.465Z" fill="#D5B391"/>
<path d="M305.492 151.512H341.707V115.301H305.492V151.512ZM342.66 152.465H304.543V114.348H342.66V152.465Z" fill="#D5B391"/>
<path d="M0.5625 189.629H36.7773V153.418H0.5625V189.629ZM37.7266 190.582H-0.390625V152.465H37.7266V190.582Z" fill="#D5B391"/>
<path d="M38.6797 189.629H74.8945V153.418H38.6797V189.629ZM75.8438 190.582H37.7266V152.465H75.8438V190.582Z" fill="#D5B391"/>
<path d="M76.7969 189.629H113.008V153.418H76.7969V189.629ZM113.961 190.582H75.8438V152.465H113.961V190.582Z" fill="#D5B391"/>
<path d="M114.914 189.629H151.125V153.418H114.914V189.629ZM152.078 190.582H113.961V152.465H152.078V190.582Z" fill="#D5B391"/>
<path d="M153.027 189.629H189.242V153.418H153.027V189.629ZM190.195 190.582H152.078V152.465H190.195V190.582Z" fill="#D5B391"/>
<path d="M191.145 189.629H227.359V153.418H191.145V189.629ZM228.309 190.582H190.195V152.465H228.309V190.582Z" fill="#D5B391"/>
<path d="M229.262 189.629H265.477V153.418H229.262V189.629ZM266.426 190.582H228.309V152.465H266.426V190.582Z" fill="#D5B391"/>
<path d="M267.379 189.629H303.594V153.418H267.379V189.629ZM304.543 190.582H266.426V152.465H304.543V190.582Z" fill="#D5B391"/>
<path d="M305.492 189.629H341.707V153.418H305.492V189.629ZM342.66 190.582H304.543V152.465H342.66V190.582Z" fill="#D5B391"/>
<path d="M0.5625 227.746H36.7773V191.531H0.5625V227.746ZM37.7266 228.699H-0.390625V190.582H37.7266V228.699Z" fill="#D5B391"/>
<path d="M38.6797 227.746H74.8945V191.531H38.6797V227.746ZM75.8438 228.699H37.7266V190.582H75.8438V228.699Z" fill="#D5B391"/>
<path d="M76.7969 227.746H113.008V191.531H76.7969V227.746ZM113.961 228.699H75.8438V190.582H113.961V228.699Z" fill="#D5B391"/>
<path d="M114.914 227.746H151.125V191.531H114.914V227.746ZM152.078 228.699H113.961V190.582H152.078V228.699Z" fill="#D5B391"/>
<path d="M153.027 227.746H189.242V191.531H153.027V227.746ZM190.195 228.699H152.078V190.582H190.195V228.699Z" fill="#D5B391"/>
<path d="M191.145 227.746H227.359V191.531H191.145V227.746ZM228.309 228.699H190.195V190.582H228.309V228.699Z" fill="#D5B391"/>
<path d="M229.262 227.746H265.477V191.531H229.262V227.746ZM266.426 228.699H228.309V190.582H266.426V228.699Z" fill="#D5B391"/>
<path d="M267.379 227.746H303.594V191.531H267.379V227.746ZM304.543 228.699H266.426V190.582H304.543V228.699Z" fill="#D5B391"/>
<path d="M305.492 227.746H341.707V191.531H305.492V227.746ZM342.66 228.699H304.543V190.582H342.66V228.699Z" fill="#D5B391"/>
<path d="M0.5625 265.863H36.7773V229.648H0.5625V265.863ZM37.7266 266.812H-0.390625V228.699H37.7266V266.812Z" fill="#D5B391"/>
<path d="M38.6797 265.863H74.8945V229.648H38.6797V265.863ZM75.8438 266.812H37.7266V228.699H75.8438V266.812Z" fill="#D5B391"/>
<path d="M76.7969 265.863H113.008V229.648H76.7969V265.863ZM113.961 266.812H75.8438V228.699H113.961V266.812Z" fill="#D5B391"/>
<path d="M114.914 265.863H151.125V229.648H114.914V265.863ZM152.078 266.812H113.961V228.699H152.078V266.812Z" fill="#D5B391"/>
<path d="M153.027 265.863H189.242V229.648H153.027V265.863ZM190.195 266.812H152.078V228.699H190.195V266.812Z" fill="#D5B391"/>
<path d="M191.145 265.863H227.359V229.648H191.145V265.863ZM228.309 266.812H190.195V228.699H228.309V266.812Z" fill="#D5B391"/>
<path d="M229.262 265.863H265.477V229.648H229.262V265.863ZM266.426 266.812H228.309V228.699H266.426V266.812Z" fill="#D5B391"/>
<path d="M267.379 265.863H303.594V229.648H267.379V265.863ZM304.543 266.812H266.426V228.699H304.543V266.812Z" fill="#D5B391"/>
<path d="M305.492 265.863H341.707V229.648H305.492V265.863ZM342.66 266.812H304.543V228.699H342.66V266.812Z" fill="#D5B391"/>
<path d="M0.5625 303.98H36.7773V267.766H0.5625V303.98ZM37.7266 304.93H-0.390625V266.812H37.7266V304.93Z" fill="#D5B391"/>
<path d="M38.6797 303.98H74.8945V267.766H38.6797V303.98ZM75.8438 304.93H37.7266V266.812H75.8438V304.93Z" fill="#D5B391"/>
<path d="M76.7969 303.98H113.008V267.766H76.7969V303.98ZM113.961 304.93H75.8438V266.812H113.961V304.93Z" fill="#D5B391"/>
<path d="M114.914 303.98H151.125V267.766H114.914V303.98ZM152.078 304.93H113.961V266.812H152.078V304.93Z" fill="#D5B391"/>
<path d="M153.027 303.98H189.242V267.766H153.027V303.98ZM190.195 304.93H152.078V266.812H190.195V304.93Z" fill="#D5B391"/>
<path d="M191.145 303.98H227.359V267.766H191.145V303.98ZM228.309 304.93H190.195V266.812H228.309V304.93Z" fill="#D5B391"/>
<path d="M229.262 303.98H265.477V267.766H229.262V303.98ZM266.426 304.93H228.309V266.812H266.426V304.93Z" fill="#D5B391"/>
<path d="M267.379 303.98H303.594V267.766H267.379V303.98ZM304.543 304.93H266.426V266.812H304.543V304.93Z" fill="#D5B391"/>
<path d="M305.492 303.98H341.707V267.766H305.492V303.98ZM342.66 304.93H304.543V266.812H342.66V304.93Z" fill="#D5B391"/>
<path d="M0.5625 342.098H36.7773V305.883H0.5625V342.098ZM37.7266 343.047H-0.390625V304.93H37.7266V343.047Z" fill="#D5B391"/>
<path d="M38.6797 342.098H74.8945V305.883H38.6797V342.098ZM75.8438 343.047H37.7266V304.93H75.8438V343.047Z" fill="#D5B391"/>
<path d="M76.7969 342.098H113.008V305.883H76.7969V342.098ZM113.961 343.047H75.8438V304.93H113.961V343.047Z" fill="#D5B391"/>
<path d="M114.914 342.098H151.125V305.883H114.914V342.098ZM152.078 343.047H113.961V304.93H152.078V343.047Z" fill="#D5B391"/>
<path d="M153.027 342.098H189.242V305.883H153.027V342.098ZM190.195 343.047H152.078V304.93H190.195V343.047Z" fill="#D5B391"/>
<path d="M191.145 342.098H227.359V305.883H191.145V342.098ZM228.309 343.047H190.195V304.93H228.309V343.047Z" fill="#D5B391"/>
<path d="M229.262 342.098H265.477V305.883H229.262V342.098ZM266.426 343.047H228.309V304.93H266.426V343.047Z" fill="#D5B391"/>
<path d="M267.379 342.098H303.594V305.883H267.379V342.098ZM304.543 343.047H266.426V304.93H304.543V343.047Z" fill="#D5B391"/>
<path d="M305.492 342.098H341.707V305.883H305.492V342.098ZM342.66 343.047H304.543V304.93H342.66V343.047Z" fill="#D5B391"/>
<path d="M304.496 37.1641H340.711V0.949219H304.496V37.1641ZM341.664 38.1133H303.543V0H341.664V38.1133Z" fill="#D6B492"/>
<path d="M342.613 37.1641H378.828V0.949219H342.613V37.1641ZM379.777 38.1133H341.664V0H379.777V38.1133Z" fill="#D6B492"/>
<path d="M380.73 37.1641H416.945V0.949219H380.73V37.1641ZM417.895 38.1133H379.777V0H417.895V38.1133Z" fill="#D6B492"/>
<path d="M418.848 37.1641H455.062V0.949219H418.848V37.1641ZM456.012 38.1133H417.895V0H456.012V38.1133Z" fill="#D6B492"/>
<path d="M456.965 37.1641H493.18V0.949219H456.965V37.1641ZM494.129 38.1133H456.012V0H494.129V38.1133Z" fill="#D6B492"/>
<path d="M495.082 37.1641H531.297V0.949219H495.082V37.1641ZM532.246 38.1133H494.129V0H532.246V38.1133Z" fill="#D6B492"/>
<path d="M533.199 37.1641H569.41V0.949219H533.199V37.1641ZM570.363 38.1133H532.246V0H570.363V38.1133Z" fill="#D6B492"/>
<path d="M571.312 37.1641H607.527V0.949219H571.312V37.1641ZM608.48 38.1133H570.363V0H608.48V38.1133Z" fill="#D6B492"/>
<path d="M609.426 37.1641H645.645V0.949219H609.426V37.1641ZM646.594 38.1133H608.477V0H646.594V38.1133Z" fill="#D6B492"/>
<path d="M304.496 75.2812H340.711V39.0664H304.496V75.2812ZM341.664 76.2305H303.543V38.1133H341.664V76.2305Z" fill="#D6B492"/>
<path d="M342.613 75.2812H378.828V39.0664H342.613V75.2812ZM379.777 76.2305H341.664V38.1133H379.777V76.2305Z" fill="#D6B492"/>
<path d="M380.73 75.2812H416.945V39.0664H380.73V75.2812ZM417.895 76.2305H379.777V38.1133H417.895V76.2305Z" fill="#D6B492"/>
<path d="M418.848 75.2812H455.062V39.0664H418.848V75.2812ZM456.012 76.2305H417.895V38.1133H456.012V76.2305Z" fill="#D6B492"/>
<path d="M456.965 75.2812H493.18V39.0664H456.965V75.2812ZM494.129 76.2305H456.012V38.1133H494.129V76.2305Z" fill="#D6B492"/>
<path d="M495.082 75.2812H531.297V39.0664H495.082V75.2812ZM532.246 76.2305H494.129V38.1133H532.246V76.2305Z" fill="#D6B492"/>
<path d="M533.199 75.2812H569.41V39.0664H533.199V75.2812ZM570.363 76.2305H532.246V38.1133H570.363V76.2305Z" fill="#D6B492"/>
<path d="M571.312 75.2812H607.527V39.0664H571.312V75.2812ZM608.48 76.2305H570.363V38.1133H608.48V76.2305Z" fill="#D6B492"/>
<path d="M609.426 75.2812H645.645V39.0664H609.426V75.2812ZM646.594 76.2305H608.477V38.1133H646.594V76.2305Z" fill="#D6B492"/>
<path d="M304.496 113.395H340.711V77.1836H304.496V113.395ZM341.664 114.348H303.543V76.2305H341.664V114.348Z" fill="#D6B492"/>
<path d="M342.613 113.395H378.828V77.1836H342.613V113.395ZM379.777 114.348H341.664V76.2305H379.777V114.348Z" fill="#D6B492"/>
<path d="M380.73 113.395H416.945V77.1836H380.73V113.395ZM417.895 114.348H379.777V76.2305H417.895V114.348Z" fill="#D6B492"/>
<path d="M418.848 113.395H455.062V77.1836H418.848V113.395ZM456.012 114.348H417.895V76.2305H456.012V114.348Z" fill="#D6B492"/>
<path d="M456.965 113.395H493.18V77.1836H456.965V113.395ZM494.129 114.348H456.012V76.2305H494.129V114.348Z" fill="#D6B492"/>
<path d="M495.082 113.395H531.297V77.1836H495.082V113.395ZM532.246 114.348H494.129V76.2305H532.246V114.348Z" fill="#D6B492"/>
<path d="M533.199 113.395H569.41V77.1836H533.199V113.395ZM570.363 114.348H532.246V76.2305H570.363V114.348Z" fill="#D6B492"/>
<path d="M571.312 113.395H607.527V77.1836H571.312V113.395ZM608.48 114.348H570.363V76.2305H608.48V114.348Z" fill="#D6B492"/>
<path d="M609.426 113.395H645.645V77.1836H609.426V113.395ZM646.594 114.348H608.477V76.2305H646.594V114.348Z" fill="#D6B492"/>
<path d="M304.496 151.512H340.711V115.301H304.496V151.512ZM341.664 152.465H303.543V114.348H341.664V152.465Z" fill="#D6B492"/>
<path d="M342.613 151.512H378.828V115.301H342.613V151.512ZM379.777 152.465H341.664V114.348H379.777V152.465Z" fill="#D6B492"/>
<path d="M380.73 151.512H416.945V115.301H380.73V151.512ZM417.895 152.465H379.777V114.348H417.895V152.465Z" fill="#D6B492"/>
<path d="M418.848 151.512H455.062V115.301H418.848V151.512ZM456.012 152.465H417.895V114.348H456.012V152.465Z" fill="#D6B492"/>
<path d="M456.965 151.512H493.18V115.301H456.965V151.512ZM494.129 152.465H456.012V114.348H494.129V152.465Z" fill="#D6B492"/>
<path d="M495.082 151.512H531.297V115.301H495.082V151.512ZM532.246 152.465H494.129V114.348H532.246V152.465Z" fill="#D6B492"/>
<path d="M533.199 151.512H569.41V115.301H533.199V151.512ZM570.363 152.465H532.246V114.348H570.363V152.465Z" fill="#D6B492"/>
<path d="M571.312 151.512H607.527V115.301H571.312V151.512ZM608.48 152.465H570.363V114.348H608.48V152.465Z" fill="#D6B492"/>
<path d="M609.426 151.512H645.645V115.301H609.426V151.512ZM646.594 152.465H608.477V114.348H646.594V152.465Z" fill="#D6B492"/>
<path d="M304.496 189.629H340.711V153.418H304.496V189.629ZM341.664 190.582H303.543V152.465H341.664V190.582Z" fill="#D6B492"/>
<path d="M342.613 189.629H378.828V153.418H342.613V189.629ZM379.777 190.582H341.664V152.465H379.777V190.582Z" fill="#D6B492"/>
<path d="M380.73 189.629H416.945V153.418H380.73V189.629ZM417.895 190.582H379.777V152.465H417.895V190.582Z" fill="#D6B492"/>
<path d="M418.848 189.629H455.062V153.418H418.848V189.629ZM456.012 190.582H417.895V152.465H456.012V190.582Z" fill="#D6B492"/>
<path d="M456.965 189.629H493.18V153.418H456.965V189.629ZM494.129 190.582H456.012V152.465H494.129V190.582Z" fill="#D6B492"/>
<path d="M495.082 189.629H531.297V153.418H495.082V189.629ZM532.246 190.582H494.129V152.465H532.246V190.582Z" fill="#D6B492"/>
<path d="M533.199 189.629H569.41V153.418H533.199V189.629ZM570.363 190.582H532.246V152.465H570.363V190.582Z" fill="#D6B492"/>
<path d="M571.312 189.629H607.527V153.418H571.312V189.629ZM608.48 190.582H570.363V152.465H608.48V190.582Z" fill="#D6B492"/>
<path d="M609.426 189.629H645.645V153.418H609.426V189.629ZM646.594 190.582H608.477V152.465H646.594V190.582Z" fill="#D6B492"/>
<path d="M304.496 227.746H340.711V191.531H304.496V227.746ZM341.664 228.699H303.543V190.582H341.664V228.699Z" fill="#D6B492"/>
<path d="M342.613 227.746H378.828V191.531H342.613V227.746ZM379.777 228.699H341.664V190.582H379.777V228.699Z" fill="#D6B492"/>
<path d="M380.73 227.746H416.945V191.531H380.73V227.746ZM417.895 228.699H379.777V190.582H417.895V228.699Z" fill="#D6B492"/>
<path d="M418.848 227.746H455.062V191.531H418.848V227.746ZM456.012 228.699H417.895V190.582H456.012V228.699Z" fill="#D6B492"/>
<path d="M456.965 227.746H493.18V191.531H456.965V227.746ZM494.129 228.699H456.012V190.582H494.129V228.699Z" fill="#D6B492"/>
<path d="M495.082 227.746H531.297V191.531H495.082V227.746ZM532.246 228.699H494.129V190.582H532.246V228.699Z" fill="#D6B492"/>
<path d="M533.199 227.746H569.41V191.531H533.199V227.746ZM570.363 228.699H532.246V190.582H570.363V228.699Z" fill="#D6B492"/>
<path d="M571.312 227.746H607.527V191.531H571.312V227.746ZM608.48 228.699H570.363V190.582H608.48V228.699Z" fill="#D6B492"/>
<path d="M609.426 227.746H645.645V191.531H609.426V227.746ZM646.594 228.699H608.477V190.582H646.594V228.699Z" fill="#D6B492"/>
<path d="M304.496 265.863H340.711V229.648H304.496V265.863ZM341.664 266.812H303.543V228.699H341.664V266.812Z" fill="#D6B492"/>
<path d="M342.613 265.863H378.828V229.648H342.613V265.863ZM379.777 266.812H341.664V228.699H379.777V266.812Z" fill="#D6B492"/>
<path d="M380.73 265.863H416.945V229.648H380.73V265.863ZM417.895 266.812H379.777V228.699H417.895V266.812Z" fill="#D6B492"/>
<path d="M418.848 265.863H455.062V229.648H418.848V265.863ZM456.012 266.812H417.895V228.699H456.012V266.812Z" fill="#D6B492"/>
<path d="M456.965 265.863H493.18V229.648H456.965V265.863ZM494.129 266.812H456.012V228.699H494.129V266.812Z" fill="#D6B492"/>
<path d="M495.082 265.863H531.297V229.648H495.082V265.863ZM532.246 266.812H494.129V228.699H532.246V266.812Z" fill="#D6B492"/>
<path d="M533.199 265.863H569.41V229.648H533.199V265.863ZM570.363 266.812H532.246V228.699H570.363V266.812Z" fill="#D6B492"/>
<path d="M571.312 265.863H607.527V229.648H571.312V265.863ZM608.48 266.812H570.363V228.699H608.48V266.812Z" fill="#D6B492"/>
<path d="M609.426 265.863H645.645V229.648H609.426V265.863ZM646.594 266.812H608.477V228.699H646.594V266.812Z" fill="#D6B492"/>
<path d="M304.496 303.98H340.711V267.766H304.496V303.98ZM341.664 304.93H303.543V266.812H341.664V304.93Z" fill="#D6B492"/>
<path d="M342.613 303.98H378.828V267.766H342.613V303.98ZM379.777 304.93H341.664V266.812H379.777V304.93Z" fill="#D6B492"/>
<path d="M380.73 303.98H416.945V267.766H380.73V303.98ZM417.895 304.93H379.777V266.812H417.895V304.93Z" fill="#D6B492"/>
<path d="M418.848 303.98H455.062V267.766H418.848V303.98ZM456.012 304.93H417.895V266.812H456.012V304.93Z" fill="#D6B492"/>
<path d="M456.965 303.98H493.18V267.766H456.965V303.98ZM494.129 304.93H456.012V266.812H494.129V304.93Z" fill="#D6B492"/>
<path d="M495.082 303.98H531.297V267.766H495.082V303.98ZM532.246 304.93H494.129V266.812H532.246V304.93Z" fill="#D6B492"/>
<path d="M533.199 303.98H569.41V267.766H533.199V303.98ZM570.363 304.93H532.246V266.812H570.363V304.93Z" fill="#D6B492"/>
<path d="M571.312 303.98H607.527V267.766H571.312V303.98ZM608.48 304.93H570.363V266.812H608.48V304.93Z" fill="#D6B492"/>
<path d="M609.426 303.98H645.645V267.766H609.426V303.98ZM646.594 304.93H608.477V266.812H646.594V304.93Z" fill="#D6B492"/>
<path d="M304.496 342.098H340.711V305.883H304.496V342.098ZM341.664 343.047H303.543V304.93H341.664V343.047Z" fill="#D6B492"/>
<path d="M342.613 342.098H378.828V305.883H342.613V342.098ZM379.777 343.047H341.664V304.93H379.777V343.047Z" fill="#D6B492"/>
<path d="M380.73 342.098H416.945V305.883H380.73V342.098ZM417.895 343.047H379.777V304.93H417.895V343.047Z" fill="#D6B492"/>
<path d="M418.848 342.098H455.062V305.883H418.848V342.098ZM456.012 343.047H417.895V304.93H456.012V343.047Z" fill="#D6B492"/>
<path d="M456.965 342.098H493.18V305.883H456.965V342.098ZM494.129 343.047H456.012V304.93H494.129V343.047Z" fill="#D6B492"/>
<path d="M495.082 342.098H531.297V305.883H495.082V342.098ZM532.246 343.047H494.129V304.93H532.246V343.047Z" fill="#D6B492"/>
<path d="M533.199 342.098H569.41V305.883H533.199V342.098ZM570.363 343.047H532.246V304.93H570.363V343.047Z" fill="#D6B492"/>
<path d="M571.312 342.098H607.527V305.883H571.312V342.098ZM608.48 343.047H570.363V304.93H608.48V343.047Z" fill="#D6B492"/>
<path d="M609.426 342.098H645.645V305.883H609.426V342.098ZM646.594 343.047H608.477V304.93H646.594V343.047Z" fill="#D6B492"/>
<path d="M609.094 37.1641H645.309V0.949219H609.094V37.1641ZM646.262 38.1133H608.145V0H646.262V38.1133Z" fill="#D5B391"/>
<path d="M647.211 37.1641H683.426V0.949219H647.211V37.1641ZM684.375 38.1133H646.262V0H684.375V38.1133Z" fill="#D5B391"/>
<path d="M685.328 37.1641H721.543V0.949219H685.328V37.1641ZM722.492 38.1133H684.375V0H722.492V38.1133Z" fill="#D5B391"/>
<path d="M723.445 37.1641H759.66V0.949219H723.445V37.1641ZM760.609 38.1133H722.492V0H760.609V38.1133Z" fill="#D5B391"/>
<path d="M761.562 37.1641H797.777V0.949219H761.562V37.1641ZM798.727 38.1133H760.609V0H798.727V38.1133Z" fill="#D5B391"/>
<path d="M799.68 37.1641H835.895V0.949219H799.68V37.1641ZM836.844 38.1133H798.727V0H836.844V38.1133Z" fill="#D5B391"/>
<path d="M837.797 37.1641H874.012V0.949219H837.797V37.1641ZM874.961 38.1133H836.844V0H874.961V38.1133Z" fill="#D5B391"/>
<path d="M875.91 37.1641H912.129V0.949219H875.91V37.1641ZM913.078 38.1133H874.961V0H913.078V38.1133Z" fill="#D5B391"/>
<path d="M914.027 37.1641H950.242V0.949219H914.027V37.1641ZM951.191 38.1133H913.074V0H951.191V38.1133Z" fill="#D5B391"/>
<path d="M609.094 75.2812H645.309V39.0664H609.094V75.2812ZM646.262 76.2305H608.145V38.1133H646.262V76.2305Z" fill="#D5B391"/>
<path d="M647.211 75.2812H683.426V39.0664H647.211V75.2812ZM684.375 76.2305H646.262V38.1133H684.375V76.2305Z" fill="#D5B391"/>
<path d="M685.328 75.2812H721.543V39.0664H685.328V75.2812ZM722.492 76.2305H684.375V38.1133H722.492V76.2305Z" fill="#D5B391"/>
<path d="M723.445 75.2812H759.66V39.0664H723.445V75.2812ZM760.609 76.2305H722.492V38.1133H760.609V76.2305Z" fill="#D5B391"/>
<path d="M761.562 75.2812H797.777V39.0664H761.562V75.2812ZM798.727 76.2305H760.609V38.1133H798.727V76.2305Z" fill="#D5B391"/>
<path d="M799.68 75.2812H835.895V39.0664H799.68V75.2812ZM836.844 76.2305H798.727V38.1133H836.844V76.2305Z" fill="#D5B391"/>
<path d="M837.797 75.2812H874.012V39.0664H837.797V75.2812ZM874.961 76.2305H836.844V38.1133H874.961V76.2305Z" fill="#D5B391"/>
<path d="M875.91 75.2812H912.129V39.0664H875.91V75.2812ZM913.078 76.2305H874.961V38.1133H913.078V76.2305Z" fill="#D5B391"/>
<path d="M914.027 75.2812H950.242V39.0664H914.027V75.2812ZM951.191 76.2305H913.074V38.1133H951.191V76.2305Z" fill="#D5B391"/>
<path d="M609.094 113.395H645.309V77.1836H609.094V113.395ZM646.262 114.348H608.145V76.2305H646.262V114.348Z" fill="#D5B391"/>
<path d="M647.211 113.395H683.426V77.1836H647.211V113.395ZM684.375 114.348H646.262V76.2305H684.375V114.348Z" fill="#D5B391"/>
<path d="M685.328 113.395H721.543V77.1836H685.328V113.395ZM722.492 114.348H684.375V76.2305H722.492V114.348Z" fill="#D5B391"/>
<path d="M723.445 113.395H759.66V77.1836H723.445V113.395ZM760.609 114.348H722.492V76.2305H760.609V114.348Z" fill="#D5B391"/>
<path d="M761.562 113.395H797.777V77.1836H761.562V113.395ZM798.727 114.348H760.609V76.2305H798.727V114.348Z" fill="#D5B391"/>
<path d="M799.68 113.395H835.895V77.1836H799.68V113.395ZM836.844 114.348H798.727V76.2305H836.844V114.348Z" fill="#D5B391"/>
<path d="M837.797 113.395H874.012V77.1836H837.797V113.395ZM874.961 114.348H836.844V76.2305H874.961V114.348Z" fill="#D5B391"/>
<path d="M875.91 113.395H912.129V77.1836H875.91V113.395ZM913.078 114.348H874.961V76.2305H913.078V114.348Z" fill="#D5B391"/>
<path d="M914.027 113.395H950.242V77.1836H914.027V113.395ZM951.191 114.348H913.074V76.2305H951.191V114.348Z" fill="#D5B391"/>
<path d="M609.094 151.512H645.309V115.301H609.094V151.512ZM646.262 152.465H608.145V114.348H646.262V152.465Z" fill="#D5B391"/>
<path d="M647.211 151.512H683.426V115.301H647.211V151.512ZM684.375 152.465H646.262V114.348H684.375V152.465Z" fill="#D5B391"/>
<path d="M685.328 151.512H721.543V115.301H685.328V151.512ZM722.492 152.465H684.375V114.348H722.492V152.465Z" fill="#D5B391"/>
<path d="M723.445 151.512H759.66V115.301H723.445V151.512ZM760.609 152.465H722.492V114.348H760.609V152.465Z" fill="#D5B391"/>
<path d="M761.562 151.512H797.777V115.301H761.562V151.512ZM798.727 152.465H760.609V114.348H798.727V152.465Z" fill="#D5B391"/>
<path d="M799.68 151.512H835.895V115.301H799.68V151.512ZM836.844 152.465H798.727V114.348H836.844V152.465Z" fill="#D5B391"/>
<path d="M837.797 151.512H874.012V115.301H837.797V151.512ZM874.961 152.465H836.844V114.348H874.961V152.465Z" fill="#D5B391"/>
<path d="M875.91 151.512H912.129V115.301H875.91V151.512ZM913.078 152.465H874.961V114.348H913.078V152.465Z" fill="#D5B391"/>
<path d="M914.027 151.512H950.242V115.301H914.027V151.512ZM951.191 152.465H913.074V114.348H951.191V152.465Z" fill="#D5B391"/>
<path d="M609.094 189.629H645.309V153.418H609.094V189.629ZM646.262 190.582H608.145V152.465H646.262V190.582Z" fill="#D5B391"/>
<path d="M647.211 189.629H683.426V153.418H647.211V189.629ZM684.375 190.582H646.262V152.465H684.375V190.582Z" fill="#D5B391"/>
<path d="M685.328 189.629H721.543V153.418H685.328V189.629ZM722.492 190.582H684.375V152.465H722.492V190.582Z" fill="#D5B391"/>
<path d="M723.445 189.629H759.66V153.418H723.445V189.629ZM760.609 190.582H722.492V152.465H760.609V190.582Z" fill="#D5B391"/>
<path d="M761.562 189.629H797.777V153.418H761.562V189.629ZM798.727 190.582H760.609V152.465H798.727V190.582Z" fill="#D5B391"/>
<path d="M799.68 189.629H835.895V153.418H799.68V189.629ZM836.844 190.582H798.727V152.465H836.844V190.582Z" fill="#D5B391"/>
<path d="M837.797 189.629H874.012V153.418H837.797V189.629ZM874.961 190.582H836.844V152.465H874.961V190.582Z" fill="#D5B391"/>
<path d="M875.91 189.629H912.129V153.418H875.91V189.629ZM913.078 190.582H874.961V152.465H913.078V190.582Z" fill="#D5B391"/>
<path d="M914.027 189.629H950.242V153.418H914.027V189.629ZM951.191 190.582H913.074V152.465H951.191V190.582Z" fill="#D5B391"/>
<path d="M609.094 227.746H645.309V191.531H609.094V227.746ZM646.262 228.699H608.145V190.582H646.262V228.699Z" fill="#D5B391"/>
<path d="M647.211 227.746H683.426V191.531H647.211V227.746ZM684.375 228.699H646.262V190.582H684.375V228.699Z" fill="#D5B391"/>
<path d="M685.328 227.746H721.543V191.531H685.328V227.746ZM722.492 228.699H684.375V190.582H722.492V228.699Z" fill="#D5B391"/>
<path d="M723.445 227.746H759.66V191.531H723.445V227.746ZM760.609 228.699H722.492V190.582H760.609V228.699Z" fill="#D5B391"/>
<path d="M761.562 227.746H797.777V191.531H761.562V227.746ZM798.727 228.699H760.609V190.582H798.727V228.699Z" fill="#D5B391"/>
<path d="M799.68 227.746H835.895V191.531H799.68V227.746ZM836.844 228.699H798.727V190.582H836.844V228.699Z" fill="#D5B391"/>
<path d="M837.797 227.746H874.012V191.531H837.797V227.746ZM874.961 228.699H836.844V190.582H874.961V228.699Z" fill="#D5B391"/>
<path d="M875.91 227.746H912.129V191.531H875.91V227.746ZM913.078 228.699H874.961V190.582H913.078V228.699Z" fill="#D5B391"/>
<path d="M914.027 227.746H950.242V191.531H914.027V227.746ZM951.191 228.699H913.074V190.582H951.191V228.699Z" fill="#D5B391"/>
<path d="M609.094 265.863H645.309V229.648H609.094V265.863ZM646.262 266.812H608.145V228.699H646.262V266.812Z" fill="#D5B391"/>
<path d="M647.211 265.863H683.426V229.648H647.211V265.863ZM684.375 266.812H646.262V228.699H684.375V266.812Z" fill="#D5B391"/>
<path d="M685.328 265.863H721.543V229.648H685.328V265.863ZM722.492 266.812H684.375V228.699H722.492V266.812Z" fill="#D5B391"/>
<path d="M723.445 265.863H759.66V229.648H723.445V265.863ZM760.609 266.812H722.492V228.699H760.609V266.812Z" fill="#D5B391"/>
<path d="M761.562 265.863H797.777V229.648H761.562V265.863ZM798.727 266.812H760.609V228.699H798.727V266.812Z" fill="#D5B391"/>
<path d="M799.68 265.863H835.895V229.648H799.68V265.863ZM836.844 266.812H798.727V228.699H836.844V266.812Z" fill="#D5B391"/>
<path d="M837.797 265.863H874.012V229.648H837.797V265.863ZM874.961 266.812H836.844V228.699H874.961V266.812Z" fill="#D5B391"/>
<path d="M875.91 265.863H912.129V229.648H875.91V265.863ZM913.078 266.812H874.961V228.699H913.078V266.812Z" fill="#D5B391"/>
<path d="M914.027 265.863H950.242V229.648H914.027V265.863ZM951.191 266.812H913.074V228.699H951.191V266.812Z" fill="#D5B391"/>
<path d="M609.094 303.98H645.309V267.766H609.094V303.98ZM646.262 304.93H608.145V266.812H646.262V304.93Z" fill="#D5B391"/>
<path d="M647.211 303.98H683.426V267.766H647.211V303.98ZM684.375 304.93H646.262V266.812H684.375V304.93Z" fill="#D5B391"/>
<path d="M685.328 303.98H721.543V267.766H685.328V303.98ZM722.492 304.93H684.375V266.812H722.492V304.93Z" fill="#D5B391"/>
<path d="M723.445 303.98H759.66V267.766H723.445V303.98ZM760.609 304.93H722.492V266.812H760.609V304.93Z" fill="#D5B391"/>
<path d="M761.562 303.98H797.777V267.766H761.562V303.98ZM798.727 304.93H760.609V266.812H798.727V304.93Z" fill="#D5B391"/>
<path d="M799.68 303.98H835.895V267.766H799.68V303.98ZM836.844 304.93H798.727V266.812H836.844V304.93Z" fill="#D5B391"/>
<path d="M837.797 303.98H874.012V267.766H837.797V303.98ZM874.961 304.93H836.844V266.812H874.961V304.93Z" fill="#D5B391"/>
<path d="M875.91 303.98H912.129V267.766H875.91V303.98ZM913.078 304.93H874.961V266.812H913.078V304.93Z" fill="#D5B391"/>
<path d="M914.027 303.98H950.242V267.766H914.027V303.98ZM951.191 304.93H913.074V266.812H951.191V304.93Z" fill="#D5B391"/>
<path d="M609.094 342.098H645.309V305.883H609.094V342.098ZM646.262 343.047H608.145V304.93H646.262V343.047Z" fill="#D5B391"/>
<path d="M647.211 342.098H683.426V305.883H647.211V342.098ZM684.375 343.047H646.262V304.93H684.375V343.047Z" fill="#D5B391"/>
<path d="M685.328 342.098H721.543V305.883H685.328V342.098ZM722.492 343.047H684.375V304.93H722.492V343.047Z" fill="#D5B391"/>
<path d="M723.445 342.098H759.66V305.883H723.445V342.098ZM760.609 343.047H722.492V304.93H760.609V343.047Z" fill="#D5B391"/>
<path d="M761.562 342.098H797.777V305.883H761.562V342.098ZM798.727 343.047H760.609V304.93H798.727V343.047Z" fill="#D5B391"/>
<path d="M799.68 342.098H835.895V305.883H799.68V342.098ZM836.844 343.047H798.727V304.93H836.844V343.047Z" fill="#D5B391"/>
<path d="M837.797 342.098H874.012V305.883H837.797V342.098ZM874.961 343.047H836.844V304.93H874.961V343.047Z" fill="#D5B391"/>
<path d="M875.91 342.098H912.129V305.883H875.91V342.098ZM913.078 343.047H874.961V304.93H913.078V343.047Z" fill="#D5B391"/>
<path d="M914.027 342.098H950.242V305.883H914.027V342.098ZM951.191 343.047H913.074V304.93H951.191V343.047Z" fill="#D5B391"/>
<path d="M913.031 37.1641H949.246V0.949219H913.031V37.1641ZM950.195 38.1133H912.078V0H950.195V38.1133Z" fill="#D6B492"/>
<path d="M951.148 37.1641H987.363V0.949219H951.148V37.1641ZM988.312 38.1133H950.195V0H988.312V38.1133Z" fill="#D6B492"/>
<path d="M989.266 37.1641H1025.48V0.949219H989.266V37.1641ZM1026.43 38.1133H988.312V0H1026.43V38.1133Z" fill="#D6B492"/>
<path d="M1027.38 37.1641H1063.59V0.949219H1027.38V37.1641ZM1064.55 38.1133H1026.43V0H1064.55V38.1133Z" fill="#D6B492"/>
<path d="M1065.5 37.1641H1101.71V0.949219H1065.5V37.1641ZM1102.66 38.1133H1064.55V0H1102.66V38.1133Z" fill="#D6B492"/>
<path d="M1103.61 37.1641H1139.83V0.949219H1103.61V37.1641ZM1140.78 38.1133H1102.66V0H1140.78V38.1133Z" fill="#D6B492"/>
<path d="M1141.73 37.1641H1177.95V0.949219H1141.73V37.1641ZM1178.89 38.1133H1140.78V0H1178.89V38.1133Z" fill="#D6B492"/>
<path d="M1179.85 37.1641H1216.06V0.949219H1179.85V37.1641ZM1217.01 38.1133H1178.89V0H1217.01V38.1133Z" fill="#D6B492"/>
<path d="M1217.96 37.1641H1254.18V0.949219H1217.96V37.1641ZM1255.13 38.1133H1217.01V0H1255.13V38.1133Z" fill="#D6B492"/>
<path d="M913.031 75.2812H949.246V39.0664H913.031V75.2812ZM950.195 76.2305H912.078V38.1133H950.195V76.2305Z" fill="#D6B492"/>
<path d="M951.148 75.2812H987.363V39.0664H951.148V75.2812ZM988.312 76.2305H950.195V38.1133H988.312V76.2305Z" fill="#D6B492"/>
<path d="M989.266 75.2812H1025.48V39.0664H989.266V75.2812ZM1026.43 76.2305H988.312V38.1133H1026.43V76.2305Z" fill="#D6B492"/>
<path d="M1027.38 75.2812H1063.59V39.0664H1027.38V75.2812ZM1064.55 76.2305H1026.43V38.1133H1064.55V76.2305Z" fill="#D6B492"/>
<path d="M1065.5 75.2812H1101.71V39.0664H1065.5V75.2812ZM1102.66 76.2305H1064.55V38.1133H1102.66V76.2305Z" fill="#D6B492"/>
<path d="M1103.61 75.2812H1139.83V39.0664H1103.61V75.2812ZM1140.78 76.2305H1102.66V38.1133H1140.78V76.2305Z" fill="#D6B492"/>
<path d="M1141.73 75.2812H1177.95V39.0664H1141.73V75.2812ZM1178.89 76.2305H1140.78V38.1133H1178.89V76.2305Z" fill="#D6B492"/>
<path d="M1179.85 75.2812H1216.06V39.0664H1179.85V75.2812ZM1217.01 76.2305H1178.89V38.1133H1217.01V76.2305Z" fill="#D6B492"/>
<path d="M1217.96 75.2812H1254.18V39.0664H1217.96V75.2812ZM1255.13 76.2305H1217.01V38.1133H1255.13V76.2305Z" fill="#D6B492"/>
<path d="M913.031 113.395H949.246V77.1836H913.031V113.395ZM950.195 114.348H912.078V76.2305H950.195V114.348Z" fill="#D6B492"/>
<path d="M951.148 113.395H987.363V77.1836H951.148V113.395ZM988.312 114.348H950.195V76.2305H988.312V114.348Z" fill="#D6B492"/>
<path d="M989.266 113.395H1025.48V77.1836H989.266V113.395ZM1026.43 114.348H988.312V76.2305H1026.43V114.348Z" fill="#D6B492"/>
<path d="M1027.38 113.395H1063.59V77.1836H1027.38V113.395ZM1064.55 114.348H1026.43V76.2305H1064.55V114.348Z" fill="#D6B492"/>
<path d="M1065.5 113.395H1101.71V77.1836H1065.5V113.395ZM1102.66 114.348H1064.55V76.2305H1102.66V114.348Z" fill="#D6B492"/>
<path d="M1103.61 113.395H1139.83V77.1836H1103.61V113.395ZM1140.78 114.348H1102.66V76.2305H1140.78V114.348Z" fill="#D6B492"/>
<path d="M1141.73 113.395H1177.95V77.1836H1141.73V113.395ZM1178.89 114.348H1140.78V76.2305H1178.89V114.348Z" fill="#D6B492"/>
<path d="M1179.85 113.395H1216.06V77.1836H1179.85V113.395ZM1217.01 114.348H1178.89V76.2305H1217.01V114.348Z" fill="#D6B492"/>
<path d="M1217.96 113.395H1254.18V77.1836H1217.96V113.395ZM1255.13 114.348H1217.01V76.2305H1255.13V114.348Z" fill="#D6B492"/>
<path d="M913.031 151.512H949.246V115.301H913.031V151.512ZM950.195 152.465H912.078V114.348H950.195V152.465Z" fill="#D6B492"/>
<path d="M951.148 151.512H987.363V115.301H951.148V151.512ZM988.312 152.465H950.195V114.348H988.312V152.465Z" fill="#D6B492"/>
<path d="M989.266 151.512H1025.48V115.301H989.266V151.512ZM1026.43 152.465H988.312V114.348H1026.43V152.465Z" fill="#D6B492"/>
<path d="M1027.38 151.512H1063.59V115.301H1027.38V151.512ZM1064.55 152.465H1026.43V114.348H1064.55V152.465Z" fill="#D6B492"/>
<path d="M1065.5 151.512H1101.71V115.301H1065.5V151.512ZM1102.66 152.465H1064.55V114.348H1102.66V152.465Z" fill="#D6B492"/>
<path d="M1103.61 151.512H1139.83V115.301H1103.61V151.512ZM1140.78 152.465H1102.66V114.348H1140.78V152.465Z" fill="#D6B492"/>
<path d="M1141.73 151.512H1177.95V115.301H1141.73V151.512ZM1178.89 152.465H1140.78V114.348H1178.89V152.465Z" fill="#D6B492"/>
<path d="M1179.85 151.512H1216.06V115.301H1179.85V151.512ZM1217.01 152.465H1178.89V114.348H1217.01V152.465Z" fill="#D6B492"/>
<path d="M1217.96 151.512H1254.18V115.301H1217.96V151.512ZM1255.13 152.465H1217.01V114.348H1255.13V152.465Z" fill="#D6B492"/>
<path d="M913.031 189.629H949.246V153.418H913.031V189.629ZM950.195 190.582H912.078V152.465H950.195V190.582Z" fill="#D6B492"/>
<path d="M951.148 189.629H987.363V153.418H951.148V189.629ZM988.312 190.582H950.195V152.465H988.312V190.582Z" fill="#D6B492"/>
<path d="M989.266 189.629H1025.48V153.418H989.266V189.629ZM1026.43 190.582H988.312V152.465H1026.43V190.582Z" fill="#D6B492"/>
<path d="M1027.38 189.629H1063.59V153.418H1027.38V189.629ZM1064.55 190.582H1026.43V152.465H1064.55V190.582Z" fill="#D6B492"/>
<path d="M1065.5 189.629H1101.71V153.418H1065.5V189.629ZM1102.66 190.582H1064.55V152.465H1102.66V190.582Z" fill="#D6B492"/>
<path d="M1103.61 189.629H1139.83V153.418H1103.61V189.629ZM1140.78 190.582H1102.66V152.465H1140.78V190.582Z" fill="#D6B492"/>
<path d="M1141.73 189.629H1177.95V153.418H1141.73V189.629ZM1178.89 190.582H1140.78V152.465H1178.89V190.582Z" fill="#D6B492"/>
<path d="M1179.85 189.629H1216.06V153.418H1179.85V189.629ZM1217.01 190.582H1178.89V152.465H1217.01V190.582Z" fill="#D6B492"/>
<path d="M1217.96 189.629H1254.18V153.418H1217.96V189.629ZM1255.13 190.582H1217.01V152.465H1255.13V190.582Z" fill="#D6B492"/>
<path d="M913.031 227.746H949.246V191.531H913.031V227.746ZM950.195 228.699H912.078V190.582H950.195V228.699Z" fill="#D6B492"/>
<path d="M951.148 227.746H987.363V191.531H951.148V227.746ZM988.312 228.699H950.195V190.582H988.312V228.699Z" fill="#D6B492"/>
<path d="M989.266 227.746H1025.48V191.531H989.266V227.746ZM1026.43 228.699H988.312V190.582H1026.43V228.699Z" fill="#D6B492"/>
<path d="M1027.38 227.746H1063.59V191.531H1027.38V227.746ZM1064.55 228.699H1026.43V190.582H1064.55V228.699Z" fill="#D6B492"/>
<path d="M1065.5 227.746H1101.71V191.531H1065.5V227.746ZM1102.66 228.699H1064.55V190.582H1102.66V228.699Z" fill="#D6B492"/>
<path d="M1103.61 227.746H1139.83V191.531H1103.61V227.746ZM1140.78 228.699H1102.66V190.582H1140.78V228.699Z" fill="#D6B492"/>
<path d="M1141.73 227.746H1177.95V191.531H1141.73V227.746ZM1178.89 228.699H1140.78V190.582H1178.89V228.699Z" fill="#D6B492"/>
<path d="M1179.85 227.746H1216.06V191.531H1179.85V227.746ZM1217.01 228.699H1178.89V190.582H1217.01V228.699Z" fill="#D6B492"/>
<path d="M1217.96 227.746H1254.18V191.531H1217.96V227.746ZM1255.13 228.699H1217.01V190.582H1255.13V228.699Z" fill="#D6B492"/>
<path d="M913.031 265.863H949.246V229.648H913.031V265.863ZM950.195 266.812H912.078V228.699H950.195V266.812Z" fill="#D6B492"/>
<path d="M951.148 265.863H987.363V229.648H951.148V265.863ZM988.312 266.812H950.195V228.699H988.312V266.812Z" fill="#D6B492"/>
<path d="M989.266 265.863H1025.48V229.648H989.266V265.863ZM1026.43 266.812H988.312V228.699H1026.43V266.812Z" fill="#D6B492"/>
<path d="M1027.38 265.863H1063.59V229.648H1027.38V265.863ZM1064.55 266.812H1026.43V228.699H1064.55V266.812Z" fill="#D6B492"/>
<path d="M1065.5 265.863H1101.71V229.648H1065.5V265.863ZM1102.66 266.812H1064.55V228.699H1102.66V266.812Z" fill="#D6B492"/>
<path d="M1103.61 265.863H1139.83V229.648H1103.61V265.863ZM1140.78 266.812H1102.66V228.699H1140.78V266.812Z" fill="#D6B492"/>
<path d="M1141.73 265.863H1177.95V229.648H1141.73V265.863ZM1178.89 266.812H1140.78V228.699H1178.89V266.812Z" fill="#D6B492"/>
<path d="M1179.85 265.863H1216.06V229.648H1179.85V265.863ZM1217.01 266.812H1178.89V228.699H1217.01V266.812Z" fill="#D6B492"/>
<path d="M1217.96 265.863H1254.18V229.648H1217.96V265.863ZM1255.13 266.812H1217.01V228.699H1255.13V266.812Z" fill="#D6B492"/>
<path d="M913.031 303.98H949.246V267.766H913.031V303.98ZM950.195 304.93H912.078V266.812H950.195V304.93Z" fill="#D6B492"/>
<path d="M951.148 303.98H987.363V267.766H951.148V303.98ZM988.312 304.93H950.195V266.812H988.312V304.93Z" fill="#D6B492"/>
<path d="M989.266 303.98H1025.48V267.766H989.266V303.98ZM1026.43 304.93H988.312V266.812H1026.43V304.93Z" fill="#D6B492"/>
<path d="M1027.38 303.98H1063.59V267.766H1027.38V303.98ZM1064.55 304.93H1026.43V266.812H1064.55V304.93Z" fill="#D6B492"/>
<path d="M1065.5 303.98H1101.71V267.766H1065.5V303.98ZM1102.66 304.93H1064.55V266.812H1102.66V304.93Z" fill="#D6B492"/>
<path d="M1103.61 303.98H1139.83V267.766H1103.61V303.98ZM1140.78 304.93H1102.66V266.812H1140.78V304.93Z" fill="#D6B492"/>
<path d="M1141.73 303.98H1177.95V267.766H1141.73V303.98ZM1178.89 304.93H1140.78V266.812H1178.89V304.93Z" fill="#D6B492"/>
<path d="M1179.85 303.98H1216.06V267.766H1179.85V303.98ZM1217.01 304.93H1178.89V266.812H1217.01V304.93Z" fill="#D6B492"/>
<path d="M1217.96 303.98H1254.18V267.766H1217.96V303.98ZM1255.13 304.93H1217.01V266.812H1255.13V304.93Z" fill="#D6B492"/>
<path d="M913.031 342.098H949.246V305.883H913.031V342.098ZM950.195 343.047H912.078V304.93H950.195V343.047Z" fill="#D6B492"/>
<path d="M951.148 342.098H987.363V305.883H951.148V342.098ZM988.312 343.047H950.195V304.93H988.312V343.047Z" fill="#D6B492"/>
<path d="M989.266 342.098H1025.48V305.883H989.266V342.098ZM1026.43 343.047H988.312V304.93H1026.43V343.047Z" fill="#D6B492"/>
<path d="M1027.38 342.098H1063.59V305.883H1027.38V342.098ZM1064.55 343.047H1026.43V304.93H1064.55V343.047Z" fill="#D6B492"/>
<path d="M1065.5 342.098H1101.71V305.883H1065.5V342.098ZM1102.66 343.047H1064.55V304.93H1102.66V343.047Z" fill="#D6B492"/>
<path d="M1103.61 342.098H1139.83V305.883H1103.61V342.098ZM1140.78 343.047H1102.66V304.93H1140.78V343.047Z" fill="#D6B492"/>
<path d="M1141.73 342.098H1177.95V305.883H1141.73V342.098ZM1178.89 343.047H1140.78V304.93H1178.89V343.047Z" fill="#D6B492"/>
<path d="M1179.85 342.098H1216.06V305.883H1179.85V342.098ZM1217.01 343.047H1178.89V304.93H1217.01V343.047Z" fill="#D6B492"/>
<path d="M1217.96 342.098H1254.18V305.883H1217.96V342.098ZM1255.13 343.047H1217.01V304.93H1255.13V343.047Z" fill="#D6B492"/>
<path d="M1216.74 37.1641H1252.96V0.949219H1216.74V37.1641ZM1253.91 38.1133H1215.79V0H1253.91V38.1133Z" fill="#D6B492"/>
<path d="M1254.86 37.1641H1291.07V0.949219H1254.86V37.1641ZM1292.02 38.1133H1253.91V0H1292.02V38.1133Z" fill="#D6B492"/>
<path d="M1292.98 37.1641H1329.19V0.949219H1292.98V37.1641ZM1330.14 38.1133H1292.02V0H1330.14V38.1133Z" fill="#D6B492"/>
<path d="M1331.09 37.1641H1367.3V0.949219H1331.09V37.1641ZM1368.26 38.1133H1330.14V0H1368.26V38.1133Z" fill="#D6B492"/>
<path d="M1369.21 37.1641H1405.42V0.949219H1369.21V37.1641ZM1406.38 38.1133H1368.26V0H1406.38V38.1133Z" fill="#D6B492"/>
<path d="M1407.33 37.1641H1443.54V0.949219H1407.33V37.1641ZM1444.49 38.1133H1406.38V0H1444.49V38.1133Z" fill="#D6B492"/>
<path d="M1216.74 75.2812H1252.96V39.0664H1216.74V75.2812ZM1253.91 76.2305H1215.79V38.1133H1253.91V76.2305Z" fill="#D6B492"/>
<path d="M1254.86 75.2812H1291.07V39.0664H1254.86V75.2812ZM1292.02 76.2305H1253.91V38.1133H1292.02V76.2305Z" fill="#D6B492"/>
<path d="M1292.98 75.2812H1329.19V39.0664H1292.98V75.2812ZM1330.14 76.2305H1292.02V38.1133H1330.14V76.2305Z" fill="#D6B492"/>
<path d="M1331.09 75.2812H1367.3V39.0664H1331.09V75.2812ZM1368.26 76.2305H1330.14V38.1133H1368.26V76.2305Z" fill="#D6B492"/>
<path d="M1369.21 75.2812H1405.42V39.0664H1369.21V75.2812ZM1406.38 76.2305H1368.26V38.1133H1406.38V76.2305Z" fill="#D6B492"/>
<path d="M1407.33 75.2812H1443.54V39.0664H1407.33V75.2812ZM1444.49 76.2305H1406.38V38.1133H1444.49V76.2305Z" fill="#D6B492"/>
<path d="M1216.74 113.395H1252.96V77.1836H1216.74V113.395ZM1253.91 114.348H1215.79V76.2305H1253.91V114.348Z" fill="#D6B492"/>
<path d="M1254.86 113.395H1291.07V77.1836H1254.86V113.395ZM1292.02 114.348H1253.91V76.2305H1292.02V114.348Z" fill="#D6B492"/>
<path d="M1292.98 113.395H1329.19V77.1836H1292.98V113.395ZM1330.14 114.348H1292.02V76.2305H1330.14V114.348Z" fill="#D6B492"/>
<path d="M1331.09 113.395H1367.3V77.1836H1331.09V113.395ZM1368.26 114.348H1330.14V76.2305H1368.26V114.348Z" fill="#D6B492"/>
<path d="M1369.21 113.395H1405.42V77.1836H1369.21V113.395ZM1406.38 114.348H1368.26V76.2305H1406.38V114.348Z" fill="#D6B492"/>
<path d="M1407.33 113.395H1443.54V77.1836H1407.33V113.395ZM1444.49 114.348H1406.38V76.2305H1444.49V114.348Z" fill="#D6B492"/>
<path d="M1216.74 151.512H1252.96V115.301H1216.74V151.512ZM1253.91 152.465H1215.79V114.348H1253.91V152.465Z" fill="#D6B492"/>
<path d="M1254.86 151.512H1291.07V115.301H1254.86V151.512ZM1292.02 152.465H1253.91V114.348H1292.02V152.465Z" fill="#D6B492"/>
<path d="M1292.98 151.512H1329.19V115.301H1292.98V151.512ZM1330.14 152.465H1292.02V114.348H1330.14V152.465Z" fill="#D6B492"/>
<path d="M1331.09 151.512H1367.3V115.301H1331.09V151.512ZM1368.26 152.465H1330.14V114.348H1368.26V152.465Z" fill="#D6B492"/>
<path d="M1369.21 151.512H1405.42V115.301H1369.21V151.512ZM1406.38 152.465H1368.26V114.348H1406.38V152.465Z" fill="#D6B492"/>
<path d="M1407.33 151.512H1443.54V115.301H1407.33V151.512ZM1444.49 152.465H1406.38V114.348H1444.49V152.465Z" fill="#D6B492"/>
<path d="M1216.74 189.629H1252.96V153.418H1216.74V189.629ZM1253.91 190.582H1215.79V152.465H1253.91V190.582Z" fill="#D6B492"/>
<path d="M1254.86 189.629H1291.07V153.418H1254.86V189.629ZM1292.02 190.582H1253.91V152.465H1292.02V190.582Z" fill="#D6B492"/>
<path d="M1292.98 189.629H1329.19V153.418H1292.98V189.629ZM1330.14 190.582H1292.02V152.465H1330.14V190.582Z" fill="#D6B492"/>
<path d="M1331.09 189.629H1367.3V153.418H1331.09V189.629ZM1368.26 190.582H1330.14V152.465H1368.26V190.582Z" fill="#D6B492"/>
<path d="M1369.21 189.629H1405.42V153.418H1369.21V189.629ZM1406.38 190.582H1368.26V152.465H1406.38V190.582Z" fill="#D6B492"/>
<path d="M1407.33 189.629H1443.54V153.418H1407.33V189.629ZM1444.49 190.582H1406.38V152.465H1444.49V190.582Z" fill="#D6B492"/>
<path d="M1216.74 227.746H1252.96V191.531H1216.74V227.746ZM1253.91 228.699H1215.79V190.582H1253.91V228.699Z" fill="#D6B492"/>
<path d="M1254.86 227.746H1291.07V191.531H1254.86V227.746ZM1292.02 228.699H1253.91V190.582H1292.02V228.699Z" fill="#D6B492"/>
<path d="M1292.98 227.746H1329.19V191.531H1292.98V227.746ZM1330.14 228.699H1292.02V190.582H1330.14V228.699Z" fill="#D6B492"/>
<path d="M1331.09 227.746H1367.3V191.531H1331.09V227.746ZM1368.26 228.699H1330.14V190.582H1368.26V228.699Z" fill="#D6B492"/>
<path d="M1369.21 227.746H1405.42V191.531H1369.21V227.746ZM1406.38 228.699H1368.26V190.582H1406.38V228.699Z" fill="#D6B492"/>
<path d="M1407.33 227.746H1443.54V191.531H1407.33V227.746ZM1444.49 228.699H1406.38V190.582H1444.49V228.699Z" fill="#D6B492"/>
<path d="M1216.74 265.863H1252.96V229.648H1216.74V265.863ZM1253.91 266.812H1215.79V228.699H1253.91V266.812Z" fill="#D6B492"/>
<path d="M1254.86 265.863H1291.07V229.648H1254.86V265.863ZM1292.02 266.812H1253.91V228.699H1292.02V266.812Z" fill="#D6B492"/>
<path d="M1292.98 265.863H1329.19V229.648H1292.98V265.863ZM1330.14 266.812H1292.02V228.699H1330.14V266.812Z" fill="#D6B492"/>
<path d="M1331.09 265.863H1367.3V229.648H1331.09V265.863ZM1368.26 266.812H1330.14V228.699H1368.26V266.812Z" fill="#D6B492"/>
<path d="M1369.21 265.863H1405.42V229.648H1369.21V265.863ZM1406.38 266.812H1368.26V228.699H1406.38V266.812Z" fill="#D6B492"/>
<path d="M1407.33 265.863H1443.54V229.648H1407.33V265.863ZM1444.49 266.812H1406.38V228.699H1444.49V266.812Z" fill="#D6B492"/>
<path d="M1216.74 303.98H1252.96V267.766H1216.74V303.98ZM1253.91 304.93H1215.79V266.812H1253.91V304.93Z" fill="#D6B492"/>
<path d="M1254.86 303.98H1291.07V267.766H1254.86V303.98ZM1292.02 304.93H1253.91V266.812H1292.02V304.93Z" fill="#D6B492"/>
<path d="M1292.98 303.98H1329.19V267.766H1292.98V303.98ZM1330.14 304.93H1292.02V266.812H1330.14V304.93Z" fill="#D6B492"/>
<path d="M1331.09 303.98H1367.3V267.766H1331.09V303.98ZM1368.26 304.93H1330.14V266.812H1368.26V304.93Z" fill="#D6B492"/>
<path d="M1369.21 303.98H1405.42V267.766H1369.21V303.98ZM1406.38 304.93H1368.26V266.812H1406.38V304.93Z" fill="#D6B492"/>
<path d="M1407.33 303.98H1443.54V267.766H1407.33V303.98ZM1444.49 304.93H1406.38V266.812H1444.49V304.93Z" fill="#D6B492"/>
<path d="M1216.74 342.098H1252.96V305.883H1216.74V342.098ZM1253.91 343.047H1215.79V304.93H1253.91V343.047Z" fill="#D6B492"/>
<path d="M1254.86 342.098H1291.07V305.883H1254.86V342.098ZM1292.02 343.047H1253.91V304.93H1292.02V343.047Z" fill="#D6B492"/>
<path d="M1292.98 342.098H1329.19V305.883H1292.98V342.098ZM1330.14 343.047H1292.02V304.93H1330.14V343.047Z" fill="#D6B492"/>
<path d="M1331.09 342.098H1367.3V305.883H1331.09V342.098ZM1368.26 343.047H1330.14V304.93H1368.26V343.047Z" fill="#D6B492"/>
<path d="M1369.21 342.098H1405.42V305.883H1369.21V342.098ZM1406.38 343.047H1368.26V304.93H1406.38V343.047Z" fill="#D6B492"/>
<path d="M1407.33 342.098H1443.54V305.883H1407.33V342.098ZM1444.49 343.047H1406.38V304.93H1444.49V343.047Z" fill="#D6B492"/>
<path d="M1.00391 341.191H37.2188V304.977H1.00391V341.191ZM38.1719 342.141H0.0546875V304.027H38.1719V342.141Z" fill="#D5B391"/>
<path d="M39.1211 341.191H75.3359V304.977H39.1211V341.191ZM76.2852 342.141H38.1719V304.027H76.2852V342.141Z" fill="#D5B391"/>
<path d="M77.2383 341.191H113.453V304.977H77.2383V341.191ZM114.402 342.141H76.2852V304.027H114.402V342.141Z" fill="#D5B391"/>
<path d="M115.355 341.191H151.57V304.977H115.355V341.191ZM152.52 342.141H114.402V304.027H152.52V342.141Z" fill="#D5B391"/>
<path d="M153.473 341.191H189.688V304.977H153.473V341.191ZM190.637 342.141H152.52V304.027H190.637V342.141Z" fill="#D5B391"/>
<path d="M191.59 341.191H227.805V304.977H191.59V341.191ZM228.754 342.141H190.637V304.027H228.754V342.141Z" fill="#D5B391"/>
<path d="M229.707 341.191H265.922V304.977H229.707V341.191ZM266.871 342.141H228.754V304.027H266.871V342.141Z" fill="#D5B391"/>
<path d="M267.82 341.191H304.039V304.977H267.82V341.191ZM304.988 342.141H266.871V304.027H304.988V342.141Z" fill="#D5B391"/>
<path d="M305.938 341.191H342.152V304.977H305.938V341.191ZM343.102 342.141H304.984V304.027H343.102V342.141Z" fill="#D5B391"/>
<path d="M1.00391 379.309H37.2188V343.094H1.00391V379.309ZM38.1719 380.258H0.0546875V342.141H38.1719V380.258Z" fill="#D5B391"/>
<path d="M39.1211 379.309H75.3359V343.094H39.1211V379.309ZM76.2852 380.258H38.1719V342.141H76.2852V380.258Z" fill="#D5B391"/>
<path d="M77.2383 379.309H113.453V343.094H77.2383V379.309ZM114.402 380.258H76.2852V342.141H114.402V380.258Z" fill="#D5B391"/>
<path d="M115.355 379.309H151.57V343.094H115.355V379.309ZM152.52 380.258H114.402V342.141H152.52V380.258Z" fill="#D5B391"/>
<path d="M153.473 379.309H189.688V343.094H153.473V379.309ZM190.637 380.258H152.52V342.141H190.637V380.258Z" fill="#D5B391"/>
<path d="M191.59 379.309H227.805V343.094H191.59V379.309ZM228.754 380.258H190.637V342.141H228.754V380.258Z" fill="#D5B391"/>
<path d="M229.707 379.309H265.922V343.094H229.707V379.309ZM266.871 380.258H228.754V342.141H266.871V380.258Z" fill="#D5B391"/>
<path d="M267.82 379.309H304.039V343.094H267.82V379.309ZM304.988 380.258H266.871V342.141H304.988V380.258Z" fill="#D5B391"/>
<path d="M305.938 379.309H342.152V343.094H305.938V379.309ZM343.102 380.258H304.984V342.141H343.102V380.258Z" fill="#D5B391"/>
<path d="M1.00391 417.426H37.2188V381.211H1.00391V417.426ZM38.1719 418.375H0.0546875V380.258H38.1719V418.375Z" fill="#D5B391"/>
<path d="M39.1211 417.426H75.3359V381.211H39.1211V417.426ZM76.2852 418.375H38.1719V380.258H76.2852V418.375Z" fill="#D5B391"/>
<path d="M77.2383 417.426H113.453V381.211H77.2383V417.426ZM114.402 418.375H76.2852V380.258H114.402V418.375Z" fill="#D5B391"/>
<path d="M115.355 417.426H151.57V381.211H115.355V417.426ZM152.52 418.375H114.402V380.258H152.52V418.375Z" fill="#D5B391"/>
<path d="M153.473 417.426H189.688V381.211H153.473V417.426ZM190.637 418.375H152.52V380.258H190.637V418.375Z" fill="#D5B391"/>
<path d="M191.59 417.426H227.805V381.211H191.59V417.426ZM228.754 418.375H190.637V380.258H228.754V418.375Z" fill="#D5B391"/>
<path d="M229.707 417.426H265.922V381.211H229.707V417.426ZM266.871 418.375H228.754V380.258H266.871V418.375Z" fill="#D5B391"/>
<path d="M267.82 417.426H304.039V381.211H267.82V417.426ZM304.988 418.375H266.871V380.258H304.988V418.375Z" fill="#D5B391"/>
<path d="M305.938 417.426H342.152V381.211H305.938V417.426ZM343.102 418.375H304.984V380.258H343.102V418.375Z" fill="#D5B391"/>
<path d="M1.00391 455.543H37.2188V419.328H1.00391V455.543ZM38.1719 456.496H0.0546875V418.375H38.1719V456.496Z" fill="#D5B391"/>
<path d="M39.1211 455.543H75.3359V419.328H39.1211V455.543ZM76.2852 456.496H38.1719V418.375H76.2852V456.496Z" fill="#D5B391"/>
<path d="M77.2383 455.543H113.453V419.328H77.2383V455.543ZM114.402 456.496H76.2852V418.375H114.402V456.496Z" fill="#D5B391"/>
<path d="M115.355 455.543H151.57V419.328H115.355V455.543ZM152.52 456.496H114.402V418.375H152.52V456.496Z" fill="#D5B391"/>
<path d="M153.473 455.543H189.688V419.328H153.473V455.543ZM190.637 456.496H152.52V418.375H190.637V456.496Z" fill="#D5B391"/>
<path d="M191.59 455.543H227.805V419.328H191.59V455.543ZM228.754 456.496H190.637V418.375H228.754V456.496Z" fill="#D5B391"/>
<path d="M229.707 455.543H265.922V419.328H229.707V455.543ZM266.871 456.496H228.754V418.375H266.871V456.496Z" fill="#D5B391"/>
<path d="M267.82 455.543H304.039V419.328H267.82V455.543ZM304.988 456.496H266.871V418.375H304.988V456.496Z" fill="#D5B391"/>
<path d="M305.938 455.543H342.152V419.328H305.938V455.543ZM343.102 456.496H304.984V418.375H343.102V456.496Z" fill="#D5B391"/>
<path d="M1.00391 493.66H37.2188V457.445H1.00391V493.66ZM38.1719 494.613H0.0546875V456.496H38.1719V494.613Z" fill="#D5B391"/>
<path d="M39.1211 493.66H75.3359V457.445H39.1211V493.66ZM76.2852 494.613H38.1719V456.496H76.2852V494.613Z" fill="#D5B391"/>
<path d="M77.2383 493.66H113.453V457.445H77.2383V493.66ZM114.402 494.613H76.2852V456.496H114.402V494.613Z" fill="#D5B391"/>
<path d="M115.355 493.66H151.57V457.445H115.355V493.66ZM152.52 494.613H114.402V456.496H152.52V494.613Z" fill="#D5B391"/>
<path d="M153.473 493.66H189.688V457.445H153.473V493.66ZM190.637 494.613H152.52V456.496H190.637V494.613Z" fill="#D5B391"/>
<path d="M191.59 493.66H227.805V457.445H191.59V493.66ZM228.754 494.613H190.637V456.496H228.754V494.613Z" fill="#D5B391"/>
<path d="M229.707 493.66H265.922V457.445H229.707V493.66ZM266.871 494.613H228.754V456.496H266.871V494.613Z" fill="#D5B391"/>
<path d="M267.82 493.66H304.039V457.445H267.82V493.66ZM304.988 494.613H266.871V456.496H304.988V494.613Z" fill="#D5B391"/>
<path d="M305.938 493.66H342.152V457.445H305.938V493.66ZM343.102 494.613H304.984V456.496H343.102V494.613Z" fill="#D5B391"/>
<path d="M1.00391 531.777H37.2188V495.562H1.00391V531.777ZM38.1719 532.727H0.0546875V494.613H38.1719V532.727Z" fill="#D5B391"/>
<path d="M39.1211 531.777H75.3359V495.562H39.1211V531.777ZM76.2852 532.727H38.1719V494.613H76.2852V532.727Z" fill="#D5B391"/>
<path d="M77.2383 531.777H113.453V495.562H77.2383V531.777ZM114.402 532.727H76.2852V494.613H114.402V532.727Z" fill="#D5B391"/>
<path d="M115.355 531.777H151.57V495.562H115.355V531.777ZM152.52 532.727H114.402V494.613H152.52V532.727Z" fill="#D5B391"/>
<path d="M153.473 531.777H189.688V495.562H153.473V531.777ZM190.637 532.727H152.52V494.613H190.637V532.727Z" fill="#D5B391"/>
<path d="M191.59 531.777H227.805V495.562H191.59V531.777ZM228.754 532.727H190.637V494.613H228.754V532.727Z" fill="#D5B391"/>
<path d="M229.707 531.777H265.922V495.562H229.707V531.777ZM266.871 532.727H228.754V494.613H266.871V532.727Z" fill="#D5B391"/>
<path d="M267.82 531.777H304.039V495.562H267.82V531.777ZM304.988 532.727H266.871V494.613H304.988V532.727Z" fill="#D5B391"/>
<path d="M305.938 531.777H342.152V495.562H305.938V531.777ZM343.102 532.727H304.984V494.613H343.102V532.727Z" fill="#D5B391"/>
<path d="M1.00391 569.895H37.2188V533.68H1.00391V569.895ZM38.1719 570.844H0.0546875V532.727H38.1719V570.844Z" fill="#D5B391"/>
<path d="M39.1211 569.895H75.3359V533.68H39.1211V569.895ZM76.2852 570.844H38.1719V532.727H76.2852V570.844Z" fill="#D5B391"/>
<path d="M77.2383 569.895H113.453V533.68H77.2383V569.895ZM114.402 570.844H76.2852V532.727H114.402V570.844Z" fill="#D5B391"/>
<path d="M115.355 569.895H151.57V533.68H115.355V569.895ZM152.52 570.844H114.402V532.727H152.52V570.844Z" fill="#D5B391"/>
<path d="M153.473 569.895H189.688V533.68H153.473V569.895ZM190.637 570.844H152.52V532.727H190.637V570.844Z" fill="#D5B391"/>
<path d="M191.59 569.895H227.805V533.68H191.59V569.895ZM228.754 570.844H190.637V532.727H228.754V570.844Z" fill="#D5B391"/>
<path d="M229.707 569.895H265.922V533.68H229.707V569.895ZM266.871 570.844H228.754V532.727H266.871V570.844Z" fill="#D5B391"/>
<path d="M267.82 569.895H304.039V533.68H267.82V569.895ZM304.988 570.844H266.871V532.727H304.988V570.844Z" fill="#D5B391"/>
<path d="M305.938 569.895H342.152V533.68H305.938V569.895ZM343.102 570.844H304.984V532.727H343.102V570.844Z" fill="#D5B391"/>
<path d="M1.00391 608.008H37.2188V571.797H1.00391V608.008ZM38.1719 608.961H0.0546875V570.844H38.1719V608.961Z" fill="#D5B391"/>
<path d="M39.1211 608.008H75.3359V571.797H39.1211V608.008ZM76.2852 608.961H38.1719V570.844H76.2852V608.961Z" fill="#D5B391"/>
<path d="M77.2383 608.008H113.453V571.797H77.2383V608.008ZM114.402 608.961H76.2852V570.844H114.402V608.961Z" fill="#D5B391"/>
<path d="M115.355 608.008H151.57V571.797H115.355V608.008ZM152.52 608.961H114.402V570.844H152.52V608.961Z" fill="#D5B391"/>
<path d="M153.473 608.008H189.688V571.797H153.473V608.008ZM190.637 608.961H152.52V570.844H190.637V608.961Z" fill="#D5B391"/>
<path d="M191.59 608.008H227.805V571.797H191.59V608.008ZM228.754 608.961H190.637V570.844H228.754V608.961Z" fill="#D5B391"/>
<path d="M229.707 608.008H265.922V571.797H229.707V608.008ZM266.871 608.961H228.754V570.844H266.871V608.961Z" fill="#D5B391"/>
<path d="M267.82 608.008H304.039V571.797H267.82V608.008ZM304.988 608.961H266.871V570.844H304.988V608.961Z" fill="#D5B391"/>
<path d="M305.938 608.008H342.152V571.797H305.938V608.008ZM343.102 608.961H304.984V570.844H343.102V608.961Z" fill="#D5B391"/>
<path d="M1.00391 646.125H37.2188V609.914H1.00391V646.125ZM38.1719 647.078H0.0546875V608.961H38.1719V647.078Z" fill="#D5B391"/>
<path d="M39.1211 646.125H75.3359V609.914H39.1211V646.125ZM76.2852 647.078H38.1719V608.961H76.2852V647.078Z" fill="#D5B391"/>
<path d="M77.2383 646.125H113.453V609.914H77.2383V646.125ZM114.402 647.078H76.2852V608.961H114.402V647.078Z" fill="#D5B391"/>
<path d="M115.355 646.125H151.57V609.914H115.355V646.125ZM152.52 647.078H114.402V608.961H152.52V647.078Z" fill="#D5B391"/>
<path d="M153.473 646.125H189.688V609.914H153.473V646.125ZM190.637 647.078H152.52V608.961H190.637V647.078Z" fill="#D5B391"/>
<path d="M191.59 646.125H227.805V609.914H191.59V646.125ZM228.754 647.078H190.637V608.961H228.754V647.078Z" fill="#D5B391"/>
<path d="M229.707 646.125H265.922V609.914H229.707V646.125ZM266.871 647.078H228.754V608.961H266.871V647.078Z" fill="#D5B391"/>
<path d="M267.82 646.125H304.039V609.914H267.82V646.125ZM304.988 647.078H266.871V608.961H304.988V647.078Z" fill="#D5B391"/>
<path d="M305.938 646.125H342.152V609.914H305.938V646.125ZM343.102 647.078H304.984V608.961H343.102V647.078Z" fill="#D5B391"/>
<path d="M304.941 341.191H341.156V304.977H304.941V341.191ZM342.105 342.141H303.988V304.027H342.105V342.141Z" fill="#D6B492"/>
<path d="M343.059 341.191H379.27V304.977H343.059V341.191ZM380.223 342.141H342.105V304.027H380.223V342.141Z" fill="#D6B492"/>
<path d="M381.176 341.191H417.387V304.977H381.176V341.191ZM418.34 342.141H380.223V304.027H418.34V342.141Z" fill="#D6B492"/>
<path d="M419.293 341.191H455.504V304.977H419.293V341.191ZM456.457 342.141H418.34V304.027H456.457V342.141Z" fill="#D6B492"/>
<path d="M457.406 341.191H493.621V304.977H457.406V341.191ZM494.574 342.141H456.457V304.027H494.574V342.141Z" fill="#D6B492"/>
<path d="M495.523 341.191H531.738V304.977H495.523V341.191ZM532.688 342.141H494.574V304.027H532.688V342.141Z" fill="#D6B492"/>
<path d="M533.641 341.191H569.855V304.977H533.641V341.191ZM570.805 342.141H532.688V304.027H570.805V342.141Z" fill="#D6B492"/>
<path d="M571.758 341.191H607.973V304.977H571.758V341.191ZM608.922 342.141H570.805V304.027H608.922V342.141Z" fill="#D6B492"/>
<path d="M609.871 341.191H646.086V304.977H609.871V341.191ZM647.039 342.141H608.922V304.027H647.039V342.141Z" fill="#D6B492"/>
<path d="M304.941 379.309H341.156V343.094H304.941V379.309ZM342.105 380.258H303.988V342.141H342.105V380.258Z" fill="#D6B492"/>
<path d="M343.059 379.309H379.27V343.094H343.059V379.309ZM380.223 380.258H342.105V342.141H380.223V380.258Z" fill="#D6B492"/>
<path d="M381.176 379.309H417.387V343.094H381.176V379.309ZM418.34 380.258H380.223V342.141H418.34V380.258Z" fill="#D6B492"/>
<path d="M419.293 379.309H455.504V343.094H419.293V379.309ZM456.457 380.258H418.34V342.141H456.457V380.258Z" fill="#D6B492"/>
<path d="M457.406 379.309H493.621V343.094H457.406V379.309ZM494.574 380.258H456.457V342.141H494.574V380.258Z" fill="#D6B492"/>
<path d="M495.523 379.309H531.738V343.094H495.523V379.309ZM532.688 380.258H494.574V342.141H532.688V380.258Z" fill="#D6B492"/>
<path d="M533.641 379.309H569.855V343.094H533.641V379.309ZM570.805 380.258H532.688V342.141H570.805V380.258Z" fill="#D6B492"/>
<path d="M571.758 379.309H607.973V343.094H571.758V379.309ZM608.922 380.258H570.805V342.141H608.922V380.258Z" fill="#D6B492"/>
<path d="M609.871 379.309H646.086V343.094H609.871V379.309ZM647.039 380.258H608.922V342.141H647.039V380.258Z" fill="#D6B492"/>
<path d="M304.941 417.426H341.156V381.211H304.941V417.426ZM342.105 418.375H303.988V380.258H342.105V418.375Z" fill="#D6B492"/>
<path d="M343.059 417.426H379.27V381.211H343.059V417.426ZM380.223 418.375H342.105V380.258H380.223V418.375Z" fill="#D6B492"/>
<path d="M381.176 417.426H417.387V381.211H381.176V417.426ZM418.34 418.375H380.223V380.258H418.34V418.375Z" fill="#D6B492"/>
<path d="M419.293 417.426H455.504V381.211H419.293V417.426ZM456.457 418.375H418.34V380.258H456.457V418.375Z" fill="#D6B492"/>
<path d="M457.406 417.426H493.621V381.211H457.406V417.426ZM494.574 418.375H456.457V380.258H494.574V418.375Z" fill="#D6B492"/>
<path d="M495.523 417.426H531.738V381.211H495.523V417.426ZM532.688 418.375H494.574V380.258H532.688V418.375Z" fill="#D6B492"/>
<path d="M533.641 417.426H569.855V381.211H533.641V417.426ZM570.805 418.375H532.688V380.258H570.805V418.375Z" fill="#D6B492"/>
<path d="M571.758 417.426H607.973V381.211H571.758V417.426ZM608.922 418.375H570.805V380.258H608.922V418.375Z" fill="#D6B492"/>
<path d="M609.871 417.426H646.086V381.211H609.871V417.426ZM647.039 418.375H608.922V380.258H647.039V418.375Z" fill="#D6B492"/>
<path d="M304.941 455.543H341.156V419.328H304.941V455.543ZM342.105 456.496H303.988V418.375H342.105V456.496Z" fill="#D6B492"/>
<path d="M343.059 455.543H379.27V419.328H343.059V455.543ZM380.223 456.496H342.105V418.375H380.223V456.496Z" fill="#D6B492"/>
<path d="M381.176 455.543H417.387V419.328H381.176V455.543ZM418.34 456.496H380.223V418.375H418.34V456.496Z" fill="#D6B492"/>
<path d="M419.293 455.543H455.504V419.328H419.293V455.543ZM456.457 456.496H418.34V418.375H456.457V456.496Z" fill="#D6B492"/>
<path d="M457.406 455.543H493.621V419.328H457.406V455.543ZM494.574 456.496H456.457V418.375H494.574V456.496Z" fill="#D6B492"/>
<path d="M495.523 455.543H531.738V419.328H495.523V455.543ZM532.688 456.496H494.574V418.375H532.688V456.496Z" fill="#D6B492"/>
<path d="M533.641 455.543H569.855V419.328H533.641V455.543ZM570.805 456.496H532.688V418.375H570.805V456.496Z" fill="#D6B492"/>
<path d="M571.758 455.543H607.973V419.328H571.758V455.543ZM608.922 456.496H570.805V418.375H608.922V456.496Z" fill="#D6B492"/>
<path d="M609.871 455.543H646.086V419.328H609.871V455.543ZM647.039 456.496H608.922V418.375H647.039V456.496Z" fill="#D6B492"/>
<path d="M304.941 493.66H341.156V457.445H304.941V493.66ZM342.105 494.613H303.988V456.496H342.105V494.613Z" fill="#D6B492"/>
<path d="M343.059 493.66H379.27V457.445H343.059V493.66ZM380.223 494.613H342.105V456.496H380.223V494.613Z" fill="#D6B492"/>
<path d="M381.176 493.66H417.387V457.445H381.176V493.66ZM418.34 494.613H380.223V456.496H418.34V494.613Z" fill="#D6B492"/>
<path d="M419.293 493.66H455.504V457.445H419.293V493.66ZM456.457 494.613H418.34V456.496H456.457V494.613Z" fill="#D6B492"/>
<path d="M457.406 493.66H493.621V457.445H457.406V493.66ZM494.574 494.613H456.457V456.496H494.574V494.613Z" fill="#D6B492"/>
<path d="M495.523 493.66H531.738V457.445H495.523V493.66ZM532.688 494.613H494.574V456.496H532.688V494.613Z" fill="#D6B492"/>
<path d="M533.641 493.66H569.855V457.445H533.641V493.66ZM570.805 494.613H532.688V456.496H570.805V494.613Z" fill="#D6B492"/>
<path d="M571.758 493.66H607.973V457.445H571.758V493.66ZM608.922 494.613H570.805V456.496H608.922V494.613Z" fill="#D6B492"/>
<path d="M609.871 493.66H646.086V457.445H609.871V493.66ZM647.039 494.613H608.922V456.496H647.039V494.613Z" fill="#D6B492"/>
<path d="M304.941 531.777H341.156V495.562H304.941V531.777ZM342.105 532.727H303.988V494.613H342.105V532.727Z" fill="#D6B492"/>
<path d="M343.059 531.777H379.27V495.562H343.059V531.777ZM380.223 532.727H342.105V494.613H380.223V532.727Z" fill="#D6B492"/>
<path d="M381.176 531.777H417.387V495.562H381.176V531.777ZM418.34 532.727H380.223V494.613H418.34V532.727Z" fill="#D6B492"/>
<path d="M419.293 531.777H455.504V495.562H419.293V531.777ZM456.457 532.727H418.34V494.613H456.457V532.727Z" fill="#D6B492"/>
<path d="M457.406 531.777H493.621V495.562H457.406V531.777ZM494.574 532.727H456.457V494.613H494.574V532.727Z" fill="#D6B492"/>
<path d="M495.523 531.777H531.738V495.562H495.523V531.777ZM532.688 532.727H494.574V494.613H532.688V532.727Z" fill="#D6B492"/>
<path d="M533.641 531.777H569.855V495.562H533.641V531.777ZM570.805 532.727H532.688V494.613H570.805V532.727Z" fill="#D6B492"/>
<path d="M571.758 531.777H607.973V495.562H571.758V531.777ZM608.922 532.727H570.805V494.613H608.922V532.727Z" fill="#D6B492"/>
<path d="M609.871 531.777H646.086V495.562H609.871V531.777ZM647.039 532.727H608.922V494.613H647.039V532.727Z" fill="#D6B492"/>
<path d="M304.941 569.895H341.156V533.68H304.941V569.895ZM342.105 570.844H303.988V532.727H342.105V570.844Z" fill="#D6B492"/>
<path d="M343.059 569.895H379.27V533.68H343.059V569.895ZM380.223 570.844H342.105V532.727H380.223V570.844Z" fill="#D6B492"/>
<path d="M381.176 569.895H417.387V533.68H381.176V569.895ZM418.34 570.844H380.223V532.727H418.34V570.844Z" fill="#D6B492"/>
<path d="M419.293 569.895H455.504V533.68H419.293V569.895ZM456.457 570.844H418.34V532.727H456.457V570.844Z" fill="#D6B492"/>
<path d="M457.406 569.895H493.621V533.68H457.406V569.895ZM494.574 570.844H456.457V532.727H494.574V570.844Z" fill="#D6B492"/>
<path d="M495.523 569.895H531.738V533.68H495.523V569.895ZM532.688 570.844H494.574V532.727H532.688V570.844Z" fill="#D6B492"/>
<path d="M533.641 569.895H569.855V533.68H533.641V569.895ZM570.805 570.844H532.688V532.727H570.805V570.844Z" fill="#D6B492"/>
<path d="M571.758 569.895H607.973V533.68H571.758V569.895ZM608.922 570.844H570.805V532.727H608.922V570.844Z" fill="#D6B492"/>
<path d="M609.871 569.895H646.086V533.68H609.871V569.895ZM647.039 570.844H608.922V532.727H647.039V570.844Z" fill="#D6B492"/>
<path d="M304.941 608.008H341.156V571.797H304.941V608.008ZM342.105 608.961H303.988V570.844H342.105V608.961Z" fill="#D6B492"/>
<path d="M343.059 608.008H379.27V571.797H343.059V608.008ZM380.223 608.961H342.105V570.844H380.223V608.961Z" fill="#D6B492"/>
<path d="M381.176 608.008H417.387V571.797H381.176V608.008ZM418.34 608.961H380.223V570.844H418.34V608.961Z" fill="#D6B492"/>
<path d="M419.293 608.008H455.504V571.797H419.293V608.008ZM456.457 608.961H418.34V570.844H456.457V608.961Z" fill="#D6B492"/>
<path d="M457.406 608.008H493.621V571.797H457.406V608.008ZM494.574 608.961H456.457V570.844H494.574V608.961Z" fill="#D6B492"/>
<path d="M495.523 608.008H531.738V571.797H495.523V608.008ZM532.688 608.961H494.574V570.844H532.688V608.961Z" fill="#D6B492"/>
<path d="M533.641 608.008H569.855V571.797H533.641V608.008ZM570.805 608.961H532.688V570.844H570.805V608.961Z" fill="#D6B492"/>
<path d="M571.758 608.008H607.973V571.797H571.758V608.008ZM608.922 608.961H570.805V570.844H608.922V608.961Z" fill="#D6B492"/>
<path d="M609.871 608.008H646.086V571.797H609.871V608.008ZM647.039 608.961H608.922V570.844H647.039V608.961Z" fill="#D6B492"/>
<path d="M304.941 646.125H341.156V609.914H304.941V646.125ZM342.105 647.078H303.988V608.961H342.105V647.078Z" fill="#D6B492"/>
<path d="M343.059 646.125H379.27V609.914H343.059V646.125ZM380.223 647.078H342.105V608.961H380.223V647.078Z" fill="#D6B492"/>
<path d="M381.176 646.125H417.387V609.914H381.176V646.125ZM418.34 647.078H380.223V608.961H418.34V647.078Z" fill="#D6B492"/>
<path d="M419.293 646.125H455.504V609.914H419.293V646.125ZM456.457 647.078H418.34V608.961H456.457V647.078Z" fill="#D6B492"/>
<path d="M457.406 646.125H493.621V609.914H457.406V646.125ZM494.574 647.078H456.457V608.961H494.574V647.078Z" fill="#D6B492"/>
<path d="M495.523 646.125H531.738V609.914H495.523V646.125ZM532.688 647.078H494.574V608.961H532.688V647.078Z" fill="#D6B492"/>
<path d="M533.641 646.125H569.855V609.914H533.641V646.125ZM570.805 647.078H532.688V608.961H570.805V647.078Z" fill="#D6B492"/>
<path d="M571.758 646.125H607.973V609.914H571.758V646.125ZM608.922 647.078H570.805V608.961H608.922V647.078Z" fill="#D6B492"/>
<path d="M609.871 646.125H646.086V609.914H609.871V646.125ZM647.039 647.078H608.922V608.961H647.039V647.078Z" fill="#D6B492"/>
<path d="M609.539 341.191H645.754V304.977H609.539V341.191ZM646.707 342.141H608.586V304.027H646.707V342.141Z" fill="#D5B391"/>
<path d="M647.656 341.191H683.871V304.977H647.656V341.191ZM684.82 342.141H646.707V304.027H684.82V342.141Z" fill="#D5B391"/>
<path d="M685.773 341.191H721.988V304.977H685.773V341.191ZM722.938 342.141H684.82V304.027H722.938V342.141Z" fill="#D5B391"/>
<path d="M723.891 341.191H760.102V304.977H723.891V341.191ZM761.055 342.141H722.938V304.027H761.055V342.141Z" fill="#D5B391"/>
<path d="M762.008 341.191H798.219V304.977H762.008V341.191ZM799.172 342.141H761.055V304.027H799.172V342.141Z" fill="#D5B391"/>
<path d="M800.125 341.191H836.336V304.977H800.125V341.191ZM837.289 342.141H799.172V304.027H837.289V342.141Z" fill="#D5B391"/>
<path d="M838.238 341.191H874.453V304.977H838.238V341.191ZM875.406 342.141H837.289V304.027H875.406V342.141Z" fill="#D5B391"/>
<path d="M876.355 341.191H912.57V304.977H876.355V341.191ZM913.52 342.141H875.406V304.027H913.52V342.141Z" fill="#D5B391"/>
<path d="M914.469 341.191H950.688V304.977H914.469V341.191ZM951.637 342.141H913.52V304.027H951.637V342.141Z" fill="#D5B391"/>
<path d="M609.539 379.309H645.754V343.094H609.539V379.309ZM646.707 380.258H608.586V342.141H646.707V380.258Z" fill="#D5B391"/>
<path d="M647.656 379.309H683.871V343.094H647.656V379.309ZM684.82 380.258H646.707V342.141H684.82V380.258Z" fill="#D5B391"/>
<path d="M685.773 379.309H721.988V343.094H685.773V379.309ZM722.938 380.258H684.82V342.141H722.938V380.258Z" fill="#D5B391"/>
<path d="M723.891 379.309H760.102V343.094H723.891V379.309ZM761.055 380.258H722.938V342.141H761.055V380.258Z" fill="#D5B391"/>
<path d="M762.008 379.309H798.219V343.094H762.008V379.309ZM799.172 380.258H761.055V342.141H799.172V380.258Z" fill="#D5B391"/>
<path d="M800.125 379.309H836.336V343.094H800.125V379.309ZM837.289 380.258H799.172V342.141H837.289V380.258Z" fill="#D5B391"/>
<path d="M838.238 379.309H874.453V343.094H838.238V379.309ZM875.406 380.258H837.289V342.141H875.406V380.258Z" fill="#D5B391"/>
<path d="M876.355 379.309H912.57V343.094H876.355V379.309ZM913.52 380.258H875.406V342.141H913.52V380.258Z" fill="#D5B391"/>
<path d="M914.469 379.309H950.688V343.094H914.469V379.309ZM951.637 380.258H913.52V342.141H951.637V380.258Z" fill="#D5B391"/>
<path d="M609.539 417.426H645.754V381.211H609.539V417.426ZM646.707 418.375H608.586V380.258H646.707V418.375Z" fill="#D5B391"/>
<path d="M647.656 417.426H683.871V381.211H647.656V417.426ZM684.82 418.375H646.707V380.258H684.82V418.375Z" fill="#D5B391"/>
<path d="M685.773 417.426H721.988V381.211H685.773V417.426ZM722.938 418.375H684.82V380.258H722.938V418.375Z" fill="#D5B391"/>
<path d="M723.891 417.426H760.102V381.211H723.891V417.426ZM761.055 418.375H722.938V380.258H761.055V418.375Z" fill="#D5B391"/>
<path d="M762.008 417.426H798.219V381.211H762.008V417.426ZM799.172 418.375H761.055V380.258H799.172V418.375Z" fill="#D5B391"/>
<path d="M800.125 417.426H836.336V381.211H800.125V417.426ZM837.289 418.375H799.172V380.258H837.289V418.375Z" fill="#D5B391"/>
<path d="M838.238 417.426H874.453V381.211H838.238V417.426ZM875.406 418.375H837.289V380.258H875.406V418.375Z" fill="#D5B391"/>
<path d="M876.355 417.426H912.57V381.211H876.355V417.426ZM913.52 418.375H875.406V380.258H913.52V418.375Z" fill="#D5B391"/>
<path d="M914.469 417.426H950.688V381.211H914.469V417.426ZM951.637 418.375H913.52V380.258H951.637V418.375Z" fill="#D5B391"/>
<path d="M609.539 455.543H645.754V419.328H609.539V455.543ZM646.707 456.496H608.586V418.375H646.707V456.496Z" fill="#D5B391"/>
<path d="M647.656 455.543H683.871V419.328H647.656V455.543ZM684.82 456.496H646.707V418.375H684.82V456.496Z" fill="#D5B391"/>
<path d="M685.773 455.543H721.988V419.328H685.773V455.543ZM722.938 456.496H684.82V418.375H722.938V456.496Z" fill="#D5B391"/>
<path d="M723.891 455.543H760.102V419.328H723.891V455.543ZM761.055 456.496H722.938V418.375H761.055V456.496Z" fill="#D5B391"/>
<path d="M762.008 455.543H798.219V419.328H762.008V455.543ZM799.172 456.496H761.055V418.375H799.172V456.496Z" fill="#D5B391"/>
<path d="M800.125 455.543H836.336V419.328H800.125V455.543ZM837.289 456.496H799.172V418.375H837.289V456.496Z" fill="#D5B391"/>
<path d="M838.238 455.543H874.453V419.328H838.238V455.543ZM875.406 456.496H837.289V418.375H875.406V456.496Z" fill="#D5B391"/>
<path d="M876.355 455.543H912.57V419.328H876.355V455.543ZM913.52 456.496H875.406V418.375H913.52V456.496Z" fill="#D5B391"/>
<path d="M914.469 455.543H950.688V419.328H914.469V455.543ZM951.637 456.496H913.52V418.375H951.637V456.496Z" fill="#D5B391"/>
<path d="M609.539 493.66H645.754V457.445H609.539V493.66ZM646.707 494.613H608.586V456.496H646.707V494.613Z" fill="#D5B391"/>
<path d="M647.656 493.66H683.871V457.445H647.656V493.66ZM684.82 494.613H646.707V456.496H684.82V494.613Z" fill="#D5B391"/>
<path d="M685.773 493.66H721.988V457.445H685.773V493.66ZM722.938 494.613H684.82V456.496H722.938V494.613Z" fill="#D5B391"/>
<path d="M723.891 493.66H760.102V457.445H723.891V493.66ZM761.055 494.613H722.938V456.496H761.055V494.613Z" fill="#D5B391"/>
<path d="M762.008 493.66H798.219V457.445H762.008V493.66ZM799.172 494.613H761.055V456.496H799.172V494.613Z" fill="#D5B391"/>
<path d="M800.125 493.66H836.336V457.445H800.125V493.66ZM837.289 494.613H799.172V456.496H837.289V494.613Z" fill="#D5B391"/>
<path d="M838.238 493.66H874.453V457.445H838.238V493.66ZM875.406 494.613H837.289V456.496H875.406V494.613Z" fill="#D5B391"/>
<path d="M876.355 493.66H912.57V457.445H876.355V493.66ZM913.52 494.613H875.406V456.496H913.52V494.613Z" fill="#D5B391"/>
<path d="M914.469 493.66H950.688V457.445H914.469V493.66ZM951.637 494.613H913.52V456.496H951.637V494.613Z" fill="#D5B391"/>
<path d="M609.539 531.777H645.754V495.562H609.539V531.777ZM646.707 532.727H608.586V494.613H646.707V532.727Z" fill="#D5B391"/>
<path d="M647.656 531.777H683.871V495.562H647.656V531.777ZM684.82 532.727H646.707V494.613H684.82V532.727Z" fill="#D5B391"/>
<path d="M685.773 531.777H721.988V495.562H685.773V531.777ZM722.938 532.727H684.82V494.613H722.938V532.727Z" fill="#D5B391"/>
<path d="M723.891 531.777H760.102V495.562H723.891V531.777ZM761.055 532.727H722.938V494.613H761.055V532.727Z" fill="#D5B391"/>
<path d="M762.008 531.777H798.219V495.562H762.008V531.777ZM799.172 532.727H761.055V494.613H799.172V532.727Z" fill="#D5B391"/>
<path d="M800.125 531.777H836.336V495.562H800.125V531.777ZM837.289 532.727H799.172V494.613H837.289V532.727Z" fill="#D5B391"/>
<path d="M838.238 531.777H874.453V495.562H838.238V531.777ZM875.406 532.727H837.289V494.613H875.406V532.727Z" fill="#D5B391"/>
<path d="M876.355 531.777H912.57V495.562H876.355V531.777ZM913.52 532.727H875.406V494.613H913.52V532.727Z" fill="#D5B391"/>
<path d="M914.469 531.777H950.688V495.562H914.469V531.777ZM951.637 532.727H913.52V494.613H951.637V532.727Z" fill="#D5B391"/>
<path d="M609.539 569.895H645.754V533.68H609.539V569.895ZM646.707 570.844H608.586V532.727H646.707V570.844Z" fill="#D5B391"/>
<path d="M647.656 569.895H683.871V533.68H647.656V569.895ZM684.82 570.844H646.707V532.727H684.82V570.844Z" fill="#D5B391"/>
<path d="M685.773 569.895H721.988V533.68H685.773V569.895ZM722.938 570.844H684.82V532.727H722.938V570.844Z" fill="#D5B391"/>
<path d="M723.891 569.895H760.102V533.68H723.891V569.895ZM761.055 570.844H722.938V532.727H761.055V570.844Z" fill="#D5B391"/>
<path d="M762.008 569.895H798.219V533.68H762.008V569.895ZM799.172 570.844H761.055V532.727H799.172V570.844Z" fill="#D5B391"/>
<path d="M800.125 569.895H836.336V533.68H800.125V569.895ZM837.289 570.844H799.172V532.727H837.289V570.844Z" fill="#D5B391"/>
<path d="M838.238 569.895H874.453V533.68H838.238V569.895ZM875.406 570.844H837.289V532.727H875.406V570.844Z" fill="#D5B391"/>
<path d="M876.355 569.895H912.57V533.68H876.355V569.895ZM913.52 570.844H875.406V532.727H913.52V570.844Z" fill="#D5B391"/>
<path d="M914.469 569.895H950.688V533.68H914.469V569.895ZM951.637 570.844H913.52V532.727H951.637V570.844Z" fill="#D5B391"/>
<path d="M609.539 608.008H645.754V571.797H609.539V608.008ZM646.707 608.961H608.586V570.844H646.707V608.961Z" fill="#D5B391"/>
<path d="M647.656 608.008H683.871V571.797H647.656V608.008ZM684.82 608.961H646.707V570.844H684.82V608.961Z" fill="#D5B391"/>
<path d="M685.773 608.008H721.988V571.797H685.773V608.008ZM722.938 608.961H684.82V570.844H722.938V608.961Z" fill="#D5B391"/>
<path d="M723.891 608.008H760.102V571.797H723.891V608.008ZM761.055 608.961H722.938V570.844H761.055V608.961Z" fill="#D5B391"/>
<path d="M762.008 608.008H798.219V571.797H762.008V608.008ZM799.172 608.961H761.055V570.844H799.172V608.961Z" fill="#D5B391"/>
<path d="M800.125 608.008H836.336V571.797H800.125V608.008ZM837.289 608.961H799.172V570.844H837.289V608.961Z" fill="#D5B391"/>
<path d="M838.238 608.008H874.453V571.797H838.238V608.008ZM875.406 608.961H837.289V570.844H875.406V608.961Z" fill="#D5B391"/>
<path d="M876.355 608.008H912.57V571.797H876.355V608.008ZM913.52 608.961H875.406V570.844H913.52V608.961Z" fill="#D5B391"/>
<path d="M914.469 608.008H950.688V571.797H914.469V608.008ZM951.637 608.961H913.52V570.844H951.637V608.961Z" fill="#D5B391"/>
<path d="M609.539 646.125H645.754V609.914H609.539V646.125ZM646.707 647.078H608.586V608.961H646.707V647.078Z" fill="#D5B391"/>
<path d="M647.656 646.125H683.871V609.914H647.656V646.125ZM684.82 647.078H646.707V608.961H684.82V647.078Z" fill="#D5B391"/>
<path d="M685.773 646.125H721.988V609.914H685.773V646.125ZM722.938 647.078H684.82V608.961H722.938V647.078Z" fill="#D5B391"/>
<path d="M723.891 646.125H760.102V609.914H723.891V646.125ZM761.055 647.078H722.938V608.961H761.055V647.078Z" fill="#D5B391"/>
<path d="M762.008 646.125H798.219V609.914H762.008V646.125ZM799.172 647.078H761.055V608.961H799.172V647.078Z" fill="#D5B391"/>
<path d="M800.125 646.125H836.336V609.914H800.125V646.125ZM837.289 647.078H799.172V608.961H837.289V647.078Z" fill="#D5B391"/>
<path d="M838.238 646.125H874.453V609.914H838.238V646.125ZM875.406 647.078H837.289V608.961H875.406V647.078Z" fill="#D5B391"/>
<path d="M876.355 646.125H912.57V609.914H876.355V646.125ZM913.52 647.078H875.406V608.961H913.52V647.078Z" fill="#D5B391"/>
<path d="M914.469 646.125H950.688V609.914H914.469V646.125ZM951.637 647.078H913.52V608.961H951.637V647.078Z" fill="#D5B391"/>
<path d="M913.473 341.191H949.688V304.977H913.473V341.191ZM950.641 342.141H912.523V304.027H950.641V342.141Z" fill="#D6B492"/>
<path d="M951.59 341.191H987.805V304.977H951.59V341.191ZM988.754 342.141H950.641V304.027H988.754V342.141Z" fill="#D6B492"/>
<path d="M989.707 341.191H1025.92V304.977H989.707V341.191ZM1026.87 342.141H988.754V304.027H1026.87V342.141Z" fill="#D6B492"/>
<path d="M1027.82 341.191H1064.04V304.977H1027.82V341.191ZM1064.99 342.141H1026.87V304.027H1064.99V342.141Z" fill="#D6B492"/>
<path d="M1065.94 341.191H1102.16V304.977H1065.94V341.191ZM1103.11 342.141H1064.99V304.027H1103.11V342.141Z" fill="#D6B492"/>
<path d="M1104.06 341.191H1140.27V304.977H1104.06V341.191ZM1141.22 342.141H1103.11V304.027H1141.22V342.141Z" fill="#D6B492"/>
<path d="M1142.18 341.191H1178.39V304.977H1142.18V341.191ZM1179.34 342.141H1141.22V304.027H1179.34V342.141Z" fill="#D6B492"/>
<path d="M1180.29 341.191H1216.51V304.977H1180.29V341.191ZM1217.46 342.141H1179.34V304.027H1217.46V342.141Z" fill="#D6B492"/>
<path d="M1218.41 341.191H1254.62V304.977H1218.41V341.191ZM1255.57 342.141H1217.45V304.027H1255.57V342.141Z" fill="#D6B492"/>
<path d="M913.473 379.309H949.688V343.094H913.473V379.309ZM950.641 380.258H912.523V342.141H950.641V380.258Z" fill="#D6B492"/>
<path d="M951.59 379.309H987.805V343.094H951.59V379.309ZM988.754 380.258H950.641V342.141H988.754V380.258Z" fill="#D6B492"/>
<path d="M989.707 379.309H1025.92V343.094H989.707V379.309ZM1026.87 380.258H988.754V342.141H1026.87V380.258Z" fill="#D6B492"/>
<path d="M1027.82 379.309H1064.04V343.094H1027.82V379.309ZM1064.99 380.258H1026.87V342.141H1064.99V380.258Z" fill="#D6B492"/>
<path d="M1065.94 379.309H1102.16V343.094H1065.94V379.309ZM1103.11 380.258H1064.99V342.141H1103.11V380.258Z" fill="#D6B492"/>
<path d="M1104.06 379.309H1140.27V343.094H1104.06V379.309ZM1141.22 380.258H1103.11V342.141H1141.22V380.258Z" fill="#D6B492"/>
<path d="M1142.18 379.309H1178.39V343.094H1142.18V379.309ZM1179.34 380.258H1141.22V342.141H1179.34V380.258Z" fill="#D6B492"/>
<path d="M1180.29 379.309H1216.51V343.094H1180.29V379.309ZM1217.46 380.258H1179.34V342.141H1217.46V380.258Z" fill="#D6B492"/>
<path d="M1218.41 379.309H1254.62V343.094H1218.41V379.309ZM1255.57 380.258H1217.45V342.141H1255.57V380.258Z" fill="#D6B492"/>
<path d="M913.473 417.426H949.688V381.211H913.473V417.426ZM950.641 418.375H912.523V380.258H950.641V418.375Z" fill="#D6B492"/>
<path d="M951.59 417.426H987.805V381.211H951.59V417.426ZM988.754 418.375H950.641V380.258H988.754V418.375Z" fill="#D6B492"/>
<path d="M989.707 417.426H1025.92V381.211H989.707V417.426ZM1026.87 418.375H988.754V380.258H1026.87V418.375Z" fill="#D6B492"/>
<path d="M1027.82 417.426H1064.04V381.211H1027.82V417.426ZM1064.99 418.375H1026.87V380.258H1064.99V418.375Z" fill="#D6B492"/>
<path d="M1065.94 417.426H1102.16V381.211H1065.94V417.426ZM1103.11 418.375H1064.99V380.258H1103.11V418.375Z" fill="#D6B492"/>
<path d="M1104.06 417.426H1140.27V381.211H1104.06V417.426ZM1141.22 418.375H1103.11V380.258H1141.22V418.375Z" fill="#D6B492"/>
<path d="M1142.18 417.426H1178.39V381.211H1142.18V417.426ZM1179.34 418.375H1141.22V380.258H1179.34V418.375Z" fill="#D6B492"/>
<path d="M1180.29 417.426H1216.51V381.211H1180.29V417.426ZM1217.46 418.375H1179.34V380.258H1217.46V418.375Z" fill="#D6B492"/>
<path d="M1218.41 417.426H1254.62V381.211H1218.41V417.426ZM1255.57 418.375H1217.45V380.258H1255.57V418.375Z" fill="#D6B492"/>
<path d="M913.473 455.543H949.688V419.328H913.473V455.543ZM950.641 456.496H912.523V418.375H950.641V456.496Z" fill="#D6B492"/>
<path d="M951.59 455.543H987.805V419.328H951.59V455.543ZM988.754 456.496H950.641V418.375H988.754V456.496Z" fill="#D6B492"/>
<path d="M989.707 455.543H1025.92V419.328H989.707V455.543ZM1026.87 456.496H988.754V418.375H1026.87V456.496Z" fill="#D6B492"/>
<path d="M1027.82 455.543H1064.04V419.328H1027.82V455.543ZM1064.99 456.496H1026.87V418.375H1064.99V456.496Z" fill="#D6B492"/>
<path d="M1065.94 455.543H1102.16V419.328H1065.94V455.543ZM1103.11 456.496H1064.99V418.375H1103.11V456.496Z" fill="#D6B492"/>
<path d="M1104.06 455.543H1140.27V419.328H1104.06V455.543ZM1141.22 456.496H1103.11V418.375H1141.22V456.496Z" fill="#D6B492"/>
<path d="M1142.18 455.543H1178.39V419.328H1142.18V455.543ZM1179.34 456.496H1141.22V418.375H1179.34V456.496Z" fill="#D6B492"/>
<path d="M1180.29 455.543H1216.51V419.328H1180.29V455.543ZM1217.46 456.496H1179.34V418.375H1217.46V456.496Z" fill="#D6B492"/>
<path d="M1218.41 455.543H1254.62V419.328H1218.41V455.543ZM1255.57 456.496H1217.45V418.375H1255.57V456.496Z" fill="#D6B492"/>
<path d="M913.473 493.66H949.688V457.445H913.473V493.66ZM950.641 494.613H912.523V456.496H950.641V494.613Z" fill="#D6B492"/>
<path d="M951.59 493.66H987.805V457.445H951.59V493.66ZM988.754 494.613H950.641V456.496H988.754V494.613Z" fill="#D6B492"/>
<path d="M989.707 493.66H1025.92V457.445H989.707V493.66ZM1026.87 494.613H988.754V456.496H1026.87V494.613Z" fill="#D6B492"/>
<path d="M1027.82 493.66H1064.04V457.445H1027.82V493.66ZM1064.99 494.613H1026.87V456.496H1064.99V494.613Z" fill="#D6B492"/>
<path d="M1065.94 493.66H1102.16V457.445H1065.94V493.66ZM1103.11 494.613H1064.99V456.496H1103.11V494.613Z" fill="#D6B492"/>
<path d="M1104.06 493.66H1140.27V457.445H1104.06V493.66ZM1141.22 494.613H1103.11V456.496H1141.22V494.613Z" fill="#D6B492"/>
<path d="M1142.18 493.66H1178.39V457.445H1142.18V493.66ZM1179.34 494.613H1141.22V456.496H1179.34V494.613Z" fill="#D6B492"/>
<path d="M1180.29 493.66H1216.51V457.445H1180.29V493.66ZM1217.46 494.613H1179.34V456.496H1217.46V494.613Z" fill="#D6B492"/>
<path d="M1218.41 493.66H1254.62V457.445H1218.41V493.66ZM1255.57 494.613H1217.45V456.496H1255.57V494.613Z" fill="#D6B492"/>
<path d="M913.473 531.777H949.688V495.562H913.473V531.777ZM950.641 532.727H912.523V494.613H950.641V532.727Z" fill="#D6B492"/>
<path d="M951.59 531.777H987.805V495.562H951.59V531.777ZM988.754 532.727H950.641V494.613H988.754V532.727Z" fill="#D6B492"/>
<path d="M989.707 531.777H1025.92V495.562H989.707V531.777ZM1026.87 532.727H988.754V494.613H1026.87V532.727Z" fill="#D6B492"/>
<path d="M1027.82 531.777H1064.04V495.562H1027.82V531.777ZM1064.99 532.727H1026.87V494.613H1064.99V532.727Z" fill="#D6B492"/>
<path d="M1065.94 531.777H1102.16V495.562H1065.94V531.777ZM1103.11 532.727H1064.99V494.613H1103.11V532.727Z" fill="#D6B492"/>
<path d="M1104.06 531.777H1140.27V495.562H1104.06V531.777ZM1141.22 532.727H1103.11V494.613H1141.22V532.727Z" fill="#D6B492"/>
<path d="M1142.18 531.777H1178.39V495.562H1142.18V531.777ZM1179.34 532.727H1141.22V494.613H1179.34V532.727Z" fill="#D6B492"/>
<path d="M1180.29 531.777H1216.51V495.562H1180.29V531.777ZM1217.46 532.727H1179.34V494.613H1217.46V532.727Z" fill="#D6B492"/>
<path d="M1218.41 531.777H1254.62V495.562H1218.41V531.777ZM1255.57 532.727H1217.45V494.613H1255.57V532.727Z" fill="#D6B492"/>
<path d="M913.473 569.895H949.688V533.68H913.473V569.895ZM950.641 570.844H912.523V532.727H950.641V570.844Z" fill="#D6B492"/>
<path d="M951.59 569.895H987.805V533.68H951.59V569.895ZM988.754 570.844H950.641V532.727H988.754V570.844Z" fill="#D6B492"/>
<path d="M989.707 569.895H1025.92V533.68H989.707V569.895ZM1026.87 570.844H988.754V532.727H1026.87V570.844Z" fill="#D6B492"/>
<path d="M1027.82 569.895H1064.04V533.68H1027.82V569.895ZM1064.99 570.844H1026.87V532.727H1064.99V570.844Z" fill="#D6B492"/>
<path d="M1065.94 569.895H1102.16V533.68H1065.94V569.895ZM1103.11 570.844H1064.99V532.727H1103.11V570.844Z" fill="#D6B492"/>
<path d="M1104.06 569.895H1140.27V533.68H1104.06V569.895ZM1141.22 570.844H1103.11V532.727H1141.22V570.844Z" fill="#D6B492"/>
<path d="M1142.18 569.895H1178.39V533.68H1142.18V569.895ZM1179.34 570.844H1141.22V532.727H1179.34V570.844Z" fill="#D6B492"/>
<path d="M1180.29 569.895H1216.51V533.68H1180.29V569.895ZM1217.46 570.844H1179.34V532.727H1217.46V570.844Z" fill="#D6B492"/>
<path d="M1218.41 569.895H1254.62V533.68H1218.41V569.895ZM1255.57 570.844H1217.45V532.727H1255.57V570.844Z" fill="#D6B492"/>
<path d="M913.473 608.008H949.688V571.797H913.473V608.008ZM950.641 608.961H912.523V570.844H950.641V608.961Z" fill="#D6B492"/>
<path d="M951.59 608.008H987.805V571.797H951.59V608.008ZM988.754 608.961H950.641V570.844H988.754V608.961Z" fill="#D6B492"/>
<path d="M989.707 608.008H1025.92V571.797H989.707V608.008ZM1026.87 608.961H988.754V570.844H1026.87V608.961Z" fill="#D6B492"/>
<path d="M1027.82 608.008H1064.04V571.797H1027.82V608.008ZM1064.99 608.961H1026.87V570.844H1064.99V608.961Z" fill="#D6B492"/>
<path d="M1065.94 608.008H1102.16V571.797H1065.94V608.008ZM1103.11 608.961H1064.99V570.844H1103.11V608.961Z" fill="#D6B492"/>
<path d="M1104.06 608.008H1140.27V571.797H1104.06V608.008ZM1141.22 608.961H1103.11V570.844H1141.22V608.961Z" fill="#D6B492"/>
<path d="M1142.18 608.008H1178.39V571.797H1142.18V608.008ZM1179.34 608.961H1141.22V570.844H1179.34V608.961Z" fill="#D6B492"/>
<path d="M1180.29 608.008H1216.51V571.797H1180.29V608.008ZM1217.46 608.961H1179.34V570.844H1217.46V608.961Z" fill="#D6B492"/>
<path d="M1218.41 608.008H1254.62V571.797H1218.41V608.008ZM1255.57 608.961H1217.45V570.844H1255.57V608.961Z" fill="#D6B492"/>
<path d="M913.473 646.125H949.688V609.914H913.473V646.125ZM950.641 647.078H912.523V608.961H950.641V647.078Z" fill="#D6B492"/>
<path d="M951.59 646.125H987.805V609.914H951.59V646.125ZM988.754 647.078H950.641V608.961H988.754V647.078Z" fill="#D6B492"/>
<path d="M989.707 646.125H1025.92V609.914H989.707V646.125ZM1026.87 647.078H988.754V608.961H1026.87V647.078Z" fill="#D6B492"/>
<path d="M1027.82 646.125H1064.04V609.914H1027.82V646.125ZM1064.99 647.078H1026.87V608.961H1064.99V647.078Z" fill="#D6B492"/>
<path d="M1065.94 646.125H1102.16V609.914H1065.94V646.125ZM1103.11 647.078H1064.99V608.961H1103.11V647.078Z" fill="#D6B492"/>
<path d="M1104.06 646.125H1140.27V609.914H1104.06V646.125ZM1141.22 647.078H1103.11V608.961H1141.22V647.078Z" fill="#D6B492"/>
<path d="M1142.18 646.125H1178.39V609.914H1142.18V646.125ZM1179.34 647.078H1141.22V608.961H1179.34V647.078Z" fill="#D6B492"/>
<path d="M1180.29 646.125H1216.51V609.914H1180.29V646.125ZM1217.46 647.078H1179.34V608.961H1217.46V647.078Z" fill="#D6B492"/>
<path d="M1218.41 646.125H1254.62V609.914H1218.41V646.125ZM1255.57 647.078H1217.45V608.961H1255.57V647.078Z" fill="#D6B492"/>
<path d="M1217.19 341.191H1253.4V304.977H1217.19V341.191ZM1254.35 342.141H1216.23V304.027H1254.35V342.141Z" fill="#D6B492"/>
<path d="M1255.3 341.191H1291.52V304.977H1255.3V341.191ZM1292.47 342.141H1254.35V304.027H1292.47V342.141Z" fill="#D6B492"/>
<path d="M1293.42 341.191H1329.63V304.977H1293.42V341.191ZM1330.58 342.141H1292.47V304.027H1330.58V342.141Z" fill="#D6B492"/>
<path d="M1331.54 341.191H1367.75V304.977H1331.54V341.191ZM1368.7 342.141H1330.58V304.027H1368.7V342.141Z" fill="#D6B492"/>
<path d="M1369.65 341.191H1405.87V304.977H1369.65V341.191ZM1406.82 342.141H1368.7V304.027H1406.82V342.141Z" fill="#D6B492"/>
<path d="M1407.77 341.191H1443.98V304.977H1407.77V341.191ZM1444.93 342.141H1406.82V304.027H1444.93V342.141Z" fill="#D6B492"/>
<path d="M1217.19 379.309H1253.4V343.094H1217.19V379.309ZM1254.35 380.258H1216.23V342.141H1254.35V380.258Z" fill="#D6B492"/>
<path d="M1255.3 379.309H1291.52V343.094H1255.3V379.309ZM1292.47 380.258H1254.35V342.141H1292.47V380.258Z" fill="#D6B492"/>
<path d="M1293.42 379.309H1329.63V343.094H1293.42V379.309ZM1330.58 380.258H1292.47V342.141H1330.58V380.258Z" fill="#D6B492"/>
<path d="M1331.54 379.309H1367.75V343.094H1331.54V379.309ZM1368.7 380.258H1330.58V342.141H1368.7V380.258Z" fill="#D6B492"/>
<path d="M1369.65 379.309H1405.87V343.094H1369.65V379.309ZM1406.82 380.258H1368.7V342.141H1406.82V380.258Z" fill="#D6B492"/>
<path d="M1407.77 379.309H1443.98V343.094H1407.77V379.309ZM1444.93 380.258H1406.82V342.141H1444.93V380.258Z" fill="#D6B492"/>
<path d="M1217.19 417.426H1253.4V381.211H1217.19V417.426ZM1254.35 418.375H1216.23V380.258H1254.35V418.375Z" fill="#D6B492"/>
<path d="M1255.3 417.426H1291.52V381.211H1255.3V417.426ZM1292.47 418.375H1254.35V380.258H1292.47V418.375Z" fill="#D6B492"/>
<path d="M1293.42 417.426H1329.63V381.211H1293.42V417.426ZM1330.58 418.375H1292.47V380.258H1330.58V418.375Z" fill="#D6B492"/>
<path d="M1331.54 417.426H1367.75V381.211H1331.54V417.426ZM1368.7 418.375H1330.58V380.258H1368.7V418.375Z" fill="#D6B492"/>
<path d="M1369.65 417.426H1405.87V381.211H1369.65V417.426ZM1406.82 418.375H1368.7V380.258H1406.82V418.375Z" fill="#D6B492"/>
<path d="M1407.77 417.426H1443.98V381.211H1407.77V417.426ZM1444.93 418.375H1406.82V380.258H1444.93V418.375Z" fill="#D6B492"/>
<path d="M1217.19 455.543H1253.4V419.328H1217.19V455.543ZM1254.35 456.496H1216.23V418.375H1254.35V456.496Z" fill="#D6B492"/>
<path d="M1255.3 455.543H1291.52V419.328H1255.3V455.543ZM1292.47 456.496H1254.35V418.375H1292.47V456.496Z" fill="#D6B492"/>
<path d="M1293.42 455.543H1329.63V419.328H1293.42V455.543ZM1330.58 456.496H1292.47V418.375H1330.58V456.496Z" fill="#D6B492"/>
<path d="M1331.54 455.543H1367.75V419.328H1331.54V455.543ZM1368.7 456.496H1330.58V418.375H1368.7V456.496Z" fill="#D6B492"/>
<path d="M1369.65 455.543H1405.87V419.328H1369.65V455.543ZM1406.82 456.496H1368.7V418.375H1406.82V456.496Z" fill="#D6B492"/>
<path d="M1407.77 455.543H1443.98V419.328H1407.77V455.543ZM1444.93 456.496H1406.82V418.375H1444.93V456.496Z" fill="#D6B492"/>
<path d="M1217.19 493.66H1253.4V457.445H1217.19V493.66ZM1254.35 494.613H1216.23V456.496H1254.35V494.613Z" fill="#D6B492"/>
<path d="M1255.3 493.66H1291.52V457.445H1255.3V493.66ZM1292.47 494.613H1254.35V456.496H1292.47V494.613Z" fill="#D6B492"/>
<path d="M1293.42 493.66H1329.63V457.445H1293.42V493.66ZM1330.58 494.613H1292.47V456.496H1330.58V494.613Z" fill="#D6B492"/>
<path d="M1331.54 493.66H1367.75V457.445H1331.54V493.66ZM1368.7 494.613H1330.58V456.496H1368.7V494.613Z" fill="#D6B492"/>
<path d="M1369.65 493.66H1405.87V457.445H1369.65V493.66ZM1406.82 494.613H1368.7V456.496H1406.82V494.613Z" fill="#D6B492"/>
<path d="M1407.77 493.66H1443.98V457.445H1407.77V493.66ZM1444.93 494.613H1406.82V456.496H1444.93V494.613Z" fill="#D6B492"/>
<path d="M1217.19 531.777H1253.4V495.562H1217.19V531.777ZM1254.35 532.727H1216.23V494.613H1254.35V532.727Z" fill="#D6B492"/>
<path d="M1255.3 531.777H1291.52V495.562H1255.3V531.777ZM1292.47 532.727H1254.35V494.613H1292.47V532.727Z" fill="#D6B492"/>
<path d="M1293.42 531.777H1329.63V495.562H1293.42V531.777ZM1330.58 532.727H1292.47V494.613H1330.58V532.727Z" fill="#D6B492"/>
<path d="M1331.54 531.777H1367.75V495.562H1331.54V531.777ZM1368.7 532.727H1330.58V494.613H1368.7V532.727Z" fill="#D6B492"/>
<path d="M1369.65 531.777H1405.87V495.562H1369.65V531.777ZM1406.82 532.727H1368.7V494.613H1406.82V532.727Z" fill="#D6B492"/>
<path d="M1407.77 531.777H1443.98V495.562H1407.77V531.777ZM1444.93 532.727H1406.82V494.613H1444.93V532.727Z" fill="#D6B492"/>
<path d="M1217.19 569.895H1253.4V533.68H1217.19V569.895ZM1254.35 570.844H1216.23V532.727H1254.35V570.844Z" fill="#D6B492"/>
<path d="M1255.3 569.895H1291.52V533.68H1255.3V569.895ZM1292.47 570.844H1254.35V532.727H1292.47V570.844Z" fill="#D6B492"/>
<path d="M1293.42 569.895H1329.63V533.68H1293.42V569.895ZM1330.58 570.844H1292.47V532.727H1330.58V570.844Z" fill="#D6B492"/>
<path d="M1331.54 569.895H1367.75V533.68H1331.54V569.895ZM1368.7 570.844H1330.58V532.727H1368.7V570.844Z" fill="#D6B492"/>
<path d="M1369.65 569.895H1405.87V533.68H1369.65V569.895ZM1406.82 570.844H1368.7V532.727H1406.82V570.844Z" fill="#D6B492"/>
<path d="M1407.77 569.895H1443.98V533.68H1407.77V569.895ZM1444.93 570.844H1406.82V532.727H1444.93V570.844Z" fill="#D6B492"/>
<path d="M1217.19 608.008H1253.4V571.797H1217.19V608.008ZM1254.35 608.961H1216.23V570.844H1254.35V608.961Z" fill="#D6B492"/>
<path d="M1255.3 608.008H1291.52V571.797H1255.3V608.008ZM1292.47 608.961H1254.35V570.844H1292.47V608.961Z" fill="#D6B492"/>
<path d="M1293.42 608.008H1329.63V571.797H1293.42V608.008ZM1330.58 608.961H1292.47V570.844H1330.58V608.961Z" fill="#D6B492"/>
<path d="M1331.54 608.008H1367.75V571.797H1331.54V608.008ZM1368.7 608.961H1330.58V570.844H1368.7V608.961Z" fill="#D6B492"/>
<path d="M1369.65 608.008H1405.87V571.797H1369.65V608.008ZM1406.82 608.961H1368.7V570.844H1406.82V608.961Z" fill="#D6B492"/>
<path d="M1407.77 608.008H1443.98V571.797H1407.77V608.008ZM1444.93 608.961H1406.82V570.844H1444.93V608.961Z" fill="#D6B492"/>
<path d="M1217.19 646.125H1253.4V609.914H1217.19V646.125ZM1254.35 647.078H1216.23V608.961H1254.35V647.078Z" fill="#D6B492"/>
<path d="M1255.3 646.125H1291.52V609.914H1255.3V646.125ZM1292.47 647.078H1254.35V608.961H1292.47V647.078Z" fill="#D6B492"/>
<path d="M1293.42 646.125H1329.63V609.914H1293.42V646.125ZM1330.58 647.078H1292.47V608.961H1330.58V647.078Z" fill="#D6B492"/>
<path d="M1331.54 646.125H1367.75V609.914H1331.54V646.125ZM1368.7 647.078H1330.58V608.961H1368.7V647.078Z" fill="#D6B492"/>
<path d="M1369.65 646.125H1405.87V609.914H1369.65V646.125ZM1406.82 647.078H1368.7V608.961H1406.82V647.078Z" fill="#D6B492"/>
<path d="M1407.77 646.125H1443.98V609.914H1407.77V646.125ZM1444.93 647.078H1406.82V608.961H1444.93V647.078Z" fill="#D6B492"/>
</svg>