<svg width="1322" height="391" viewBox="0 0 1322 391" fill="none" xmlns="http://www.w3.org/2000/svg">
<g clip-path="url(#clip0_302_156)">
<path d="M295.957 149.777H340.18L350.986 113.86L444.535 60.3333L454.541 28.6176H410.217L405.515 44.5255L336.278 83.6448L292.755 46.0262L298.058 28.5176H253.834L244.83 58.5324L307.063 112.959L295.957 149.777ZM668.054 100.553L653.346 149.677H853.452L863.457 117.762H711.077L778.012 89.6477L725.684 60.5334H880.466L890.472 28.5176H690.366L675.258 76.3412L696.769 88.6472L668.054 100.553ZM80.1424 28.6176H36.3192L0 149.777H43.8232L80.1424 28.6176ZM232.023 28.6176H192.002L178.595 72.9395H78.5416L68.5363 104.955H168.589L155.182 149.577H200.106L236.125 28.6176H232.023ZM503.867 60.5334H615.726L612.624 70.5383L575.005 86.3461H507.569L497.563 118.262H581.708L650.645 89.2475L669.354 28.6176H469.249L432.929 149.777H477.053L503.867 60.5334ZM886.369 109.257L874.163 149.777H918.286C918.286 149.777 925.79 124.565 927.591 119.062C914.284 115.36 900.477 112.159 886.369 109.257V109.257ZM1028.34 116.761L1091.98 90.8483L1110.59 28.6176H910.482L891.472 92.249C938.06 93.5803 984.19 101.842 1028.34 116.761V116.761ZM945.1 60.5334H1056.86C1055.46 65.2357 1054.06 69.938 1053.46 71.839L1019.14 86.3461H937.296C938.997 80.9435 944.1 63.9351 945.1 60.5334V60.5334Z" fill="#E31837"/>
<path d="M1306.49 388.095C1276.48 299.051 1231.05 235.82 1179.52 191.098C1225.65 146.176 1257.17 85.2457 1262.87 2.90503C1262.87 2.90503 1244.06 84.8455 1142.81 162.984C992.726 60.6335 812.63 89.7479 812.63 89.7479C917.218 97.1966 1018.15 131.333 1105.79 188.897C1011.14 248.926 861.056 300.952 624.631 302.653C624.631 302.653 963.11 353.678 1147.41 218.211C1209.95 265.12 1263.79 322.616 1306.49 388.095V388.095Z" fill="#B3B3B3"/>
<path d="M1273.97 52.0292C1273.99 47.2845 1275.42 42.6519 1278.07 38.7163C1280.72 34.7808 1284.48 31.7187 1288.87 29.9166C1293.26 28.1146 1298.08 27.6533 1302.73 28.5911C1307.38 29.5289 1311.65 31.8236 1315 35.1857C1318.35 38.5478 1320.63 42.8264 1321.55 47.4815C1322.46 52.1366 1321.98 56.9594 1320.16 61.3412C1318.34 65.723 1315.26 69.4672 1311.32 72.1013C1307.37 74.7353 1302.73 76.1411 1297.99 76.1411C1294.82 76.1545 1291.68 75.5392 1288.76 74.331C1285.83 73.1227 1283.18 71.3455 1280.94 69.1026C1278.71 66.8596 1276.94 64.1954 1275.75 61.2646C1274.55 58.3338 1273.95 55.1946 1273.97 52.0292V52.0292ZM1318.1 52.0292C1318.1 46.7223 1315.99 41.6327 1312.24 37.8801C1308.48 34.1275 1303.39 32.0194 1298.09 32.0194C1292.78 32.0194 1287.69 34.1275 1283.94 37.8801C1280.18 41.6327 1278.08 46.7223 1278.08 52.0292C1278.08 57.3362 1280.18 62.4258 1283.94 66.1784C1287.69 69.9309 1292.78 72.0391 1298.09 72.0391C1303.39 72.0391 1308.48 69.9309 1312.24 66.1784C1315.99 62.4258 1318.1 57.3362 1318.1 52.0292ZM1309.89 65.5359H1305.99L1298.39 52.9297H1292.48V65.5359H1289.08V38.8227H1300.69C1307.79 38.8227 1310.09 41.424 1310.09 45.9262C1310.09 50.4285 1306.49 53.1298 1301.69 53.2298L1309.89 65.5359ZM1297.29 50.6285C1301.09 50.6285 1306.69 51.3289 1306.69 45.8262C1306.69 40.3235 1303.29 41.2239 1299.89 41.2239H1292.28V50.7286L1297.29 50.6285Z" fill="white"/>
</g>
<defs>
<clipPath id="clip0_302_156">
<rect width="1322" height="391" fill="white"/>
</clipPath>
</defs>
</svg>