<svg width="494" height="393" viewBox="0 0 494 393" fill="none" xmlns="http://www.w3.org/2000/svg">
<path d="M59.0103 393L424.031 389.87L436.676 389.423L441.697 388.604C445.641 387.96 449.494 386.846 453.173 385.285L459.902 382.43C465.711 379.965 470.945 376.322 475.273 371.731L475.761 371.214C479.456 367.294 482.361 362.701 484.319 357.683C485.708 354.12 486.604 350.385 486.982 346.579L494 275.86V194.935L494 47.0214C494 41.1046 492.511 35.2831 489.67 30.0931C487.518 26.1626 484.637 22.6784 481.181 19.8268L477.713 16.9655C473.427 13.4296 468.582 10.6328 463.376 8.69006L453.779 5.10831C450.256 3.79343 446.596 2.88019 442.868 2.38593L428.498 0.480499C426.085 0.160583 423.652 0.0172729 421.218 0.0516968L235.198 2.68259L45.5222 1.78839L38.0099 2.05402C34.597 2.17468 31.2055 2.64468 27.8885 3.45663L21.9181 4.91809L15.3555 7.52853C12.9993 8.46573 10.7937 9.74417 8.80933 11.3228L8.04755 11.9289C6.07135 13.501 4.4007 15.4228 3.11874 17.5985C1.61911 20.1436 0.683746 22.9812 0.376007 25.9192L0 29.5085L0.843018 54.9932L2.50751 357.787C2.52179 360.386 2.88333 362.971 3.58252 365.475C5.09586 370.892 8.1434 375.757 12.358 379.482L13.1337 380.168C16.6989 383.319 20.9094 385.654 25.4709 387.009L34.8912 389.807C38.0369 390.741 41.2669 391.363 44.5345 391.665L59.0103 393Z" fill="#FDF4EF"/>
</svg>