<svg width="1307" height="287" viewBox="0 0 1307 287" fill="none" xmlns="http://www.w3.org/2000/svg">
<path d="M282.084 209.098C264.421 209.098 248.471 207.16 234.261 192.941L252.565 174.637C261.833 183.888 273.906 185.186 282.517 185.186C292.21 185.186 302.335 181.958 302.335 173.555C302.335 167.956 299.315 164.07 290.487 163.213L272.816 161.549C252.565 159.636 240.076 150.816 240.076 130.1C240.076 106.887 260.544 94.3237 283.34 94.3237C300.812 94.3237 315.456 97.4021 326.188 107.469L308.966 124.941C302.476 119.117 292.576 117.453 282.841 117.453C271.609 117.453 266.867 122.612 266.867 128.269C266.867 132.429 268.531 137.172 278.515 138.004L296.153 139.751C318.368 141.914 329.516 153.812 329.516 172.698C329.516 197.492 308.384 209.306 281.843 209.306L282.084 209.098ZM378.596 207.8C355.749 207.8 346.065 191.659 346.065 175.71V120.132H334.209V98.8082H346.057V65.6114H374.062V98.8082H393.88V120.124H374.062V173.988C374.062 180.452 377.082 184.113 383.755 184.113H393.88V207.808H378.588L378.596 207.8ZM406.318 76.3858V53.5474H434.981V76.3858H406.318ZM406.759 207.808V95.5634H434.764V207.8H406.726L406.759 207.808ZM498.055 209.14C475.649 209.14 447.86 197.076 447.86 151.648C447.86 106.221 475.649 94.3237 498.055 94.3237C513.563 94.3237 525.194 99.0661 535.112 109.466L516.159 128.436C510.335 122.196 505.385 119.616 498.063 119.616C491.382 119.616 486.215 122.029 482.122 126.938C477.879 132.346 475.882 139.917 475.882 151.732C475.882 163.546 477.879 171.367 482.122 176.775C486.282 181.767 491.44 184.096 498.096 184.096C505.418 184.096 510.41 181.517 516.234 175.277L535.203 193.997C525.303 204.314 513.655 209.306 498.179 209.306L498.055 209.14ZM612.371 207.892L584.807 161.216L572.968 174.528V207.975H544.93V54.4626H572.968V141.49L610.241 95.5883H644.046L603.977 140.849L647.074 207.908H612.38L612.371 207.892ZM670.445 160.551C670.445 175.028 679.264 185.594 695.014 185.594C707.244 185.594 713.318 182.183 720.39 175.028L737.363 191.668C725.881 203.066 714.899 209.389 694.681 209.389C668.14 209.389 642.764 197.325 642.764 151.898C642.764 115.29 662.566 94.5733 691.603 94.5733C722.803 94.5733 740.441 117.453 740.441 148.237V160.8H670.312L670.445 160.551ZM710.514 129.351C707.502 122.695 701.254 117.703 691.778 117.703C682.293 117.703 676.053 122.695 673.033 129.351C671.31 133.511 670.661 136.506 670.453 141.415H713.093C712.885 136.506 712.245 133.511 710.514 129.351ZM814.955 126.356C810.645 122.112 806.985 119.7 800.096 119.7C791.443 119.7 781.958 126.189 781.958 140.416V208.058H753.92V95.5634H781.292V106.338C786.617 99.8731 797.433 94.2738 809.497 94.2738C820.48 94.2738 828.217 97.0693 835.955 104.84L814.822 126.156L814.955 126.356Z" fill="#411B10"/>
<path d="M961.928 94.2737C947.925 94.2737 937.8 98.5835 928.315 108.501C921.21 98.7998 911.093 94.2737 898.588 94.2737C888.246 94.2737 877.904 98.3672 870.583 105.905V95.5633H843.293V207.8H871.331V139.942C871.331 124.633 881.232 119.475 890.051 119.475C898.954 119.475 908.605 124.633 908.605 139.942V207.8H936.643V139.293C936.643 124.65 946.794 119.475 955.363 119.475C964.183 119.475 973.917 124.633 973.917 139.942V207.8H1001.96V136.065C1001.96 123.785 998.711 113.227 989.642 104.183C983.402 97.9429 973.335 94.2821 962.103 94.2821L961.928 94.2737ZM1083.65 163.43C1083.65 178.722 1073.75 183.897 1064.91 183.897C1056.09 183.897 1046.38 178.722 1046.38 163.43V95.5633H1018.43V167.307C1018.43 179.579 1020.84 190.137 1029.83 199.189C1036.07 205.429 1045.14 209.09 1056.37 209.09C1066.77 209.09 1077.08 205.221 1084.41 197.467V207.808H1111.78V95.5633H1083.82V163.43H1083.65ZM1157.5 173.996V54.4043H1129.49V175.685C1129.49 191.634 1139.19 207.8 1162.23 207.8H1178.17V184.088H1167.44C1160.37 184.088 1157.54 180.652 1157.54 173.979L1157.5 173.996ZM1281 147.896C1281 117.087 1263.34 94.2571 1232.09 94.2571C1203.01 94.2571 1183.19 114.941 1183.19 151.565C1183.19 197.076 1208.61 209.14 1235.11 209.14C1255.36 209.14 1266.35 202.9 1277.76 191.501L1260.79 174.944C1253.72 182.1 1247.64 185.511 1235.41 185.511C1219.69 185.511 1210.87 174.944 1210.87 160.551H1281V147.988V147.896ZM1210.78 141.215C1210.99 136.248 1211.63 133.228 1213.36 129.151C1216.37 122.454 1222.62 117.503 1232.09 117.503C1241.58 117.503 1247.82 122.454 1250.83 129.151C1252.56 133.228 1253.2 136.24 1253.41 141.215H1210.77H1210.78Z" fill="#F26922"/>
<path fill-rule="evenodd" clip-rule="evenodd" d="M147.982 220.23C146.36 221.004 144.155 220.829 141.884 220.896C139.929 220.954 137.183 220.995 136.043 219.98C135.419 219.44 135.245 218.258 135.211 217.568C135.153 216.736 135.361 215.737 135.544 214.805C135.744 213.724 135.96 212.309 135.544 211.727C135.045 211.02 133.298 211.311 132.366 210.795C131.384 210.246 131.101 208.931 130.785 207.467C130.677 206.993 130.402 206.568 130.369 206.202C130.086 203.956 130.843 200.928 131.367 198.606C131.917 196.152 132.632 193.864 133.031 191.592C133.647 188.156 133.863 184.271 133.614 180.735C133.506 178.904 133.256 177.44 133.531 175.909C133.805 174.453 134.413 173.247 134.695 171.808C134.795 171.35 134.72 170.809 134.779 170.31C134.845 169.861 135.111 169.503 135.111 169.145C135.17 168.18 134.862 166.999 134.779 165.8C134.587 162.581 134.837 158.038 135.045 155.284C135.111 154.319 135.561 153.221 134.878 152.788C131.525 152.73 128.472 153.37 125.352 153.786C116.949 154.868 106.399 155.001 98.312 153.37C97.5383 153.204 96.7645 153.204 96.049 153.038C90.3082 151.706 85.0167 149.252 80.9316 146.024C80.3492 145.525 79.6004 144.992 78.8516 144.443C78.186 143.894 77.4372 143.153 76.7716 142.846C73.5268 141.323 69.2004 143.079 67.8692 145.175C67.37 146.024 66.954 147.105 66.4548 148.104C65.9556 149.061 65.5396 150.067 65.1236 151.016C62.9604 155.958 60.5476 160.667 58.3844 165.634C57.1364 168.496 55.722 171.683 54.8068 174.903C52.81 181.725 54.7236 190.86 56.2212 197.283C56.3876 197.866 56.7204 198.448 56.8868 199.114C57.386 200.661 58.4676 202.725 59.6324 203.773C60.298 204.33 61.3796 204.663 62.0452 205.287C62.9604 206.053 63.626 207.575 64.2916 208.865C64.6244 209.414 65.0404 210.03 65.3732 210.695C66.2052 212.143 66.538 213.441 64.874 214.298C63.7092 214.963 61.8788 215.13 60.1316 215.213C59.3828 215.463 59.6324 216.461 59.1332 217.043C58.8836 217.376 57.7188 217.792 57.1364 217.959C54.89 218.624 51.146 218.624 49.3988 217.959C48.5668 217.709 47.5684 217.043 47.3188 216.295C46.9028 214.963 47.9844 213.216 46.986 212.135C46.57 211.719 45.6548 211.802 44.8228 211.386C43.5314 210.786 42.5191 209.714 41.994 208.391C40.6628 205.063 41.4948 199.738 41.3284 195.661C41.3284 194.496 41.162 193.165 41.0788 191.834C40.9956 189.421 40.4132 187.008 40.1636 184.595C40.0804 183.431 39.6644 182.432 39.4148 181.351C39.082 179.687 38.7492 177.773 38.25 176.026C37.7508 174.112 37.6676 172.282 38.3332 170.618C38.4996 170.202 38.9988 169.786 39.2484 169.12C39.6644 168.205 39.8308 167.04 39.7476 166.208C39.498 165.792 38.3332 166.125 38.0004 165.626C37.3348 160.384 36.5028 155.059 36.0868 149.568C35.9204 147.738 35.9204 145.824 35.754 143.911C35.4212 140.167 35.6708 136.256 35.338 132.679C35.1716 130.931 34.7556 129.267 34.506 127.52C33.832 122.52 32.5008 116.28 33.4992 111.288C34.1648 108.043 35.313 105.397 37.16 103.009C38.4912 101.345 39.9056 99.7646 41.4032 98.267C42.9008 96.8526 44.5648 95.4382 46.312 94.1902C47.4768 93.3582 48.6416 92.4098 49.8896 91.8274C52.7184 90.4962 56.3792 89.4146 60.2064 89.2482C64.0336 89.0818 68.4266 88.9986 72.2455 89.7474C75.9063 90.413 79.5338 90.9954 83.1114 91.7442C86.6058 92.4098 90.0669 93.4082 93.3866 94.2402C93.8026 94.3234 94.1853 94.573 94.6346 94.7394C95.6912 94.989 96.881 95.0722 98.0458 95.405C101.124 96.237 105.201 96.653 109.012 96.653C113.13 96.653 116.832 96.5698 120.219 95.7378C120.718 95.5714 121.051 95.3218 121.633 95.1554C122.132 94.9058 122.798 94.989 123.297 94.8226C123.63 94.6562 123.963 94.3234 124.379 94.157C126.292 93.2418 127.956 92.2434 129.703 91.0786C131.051 90.0802 132.199 89.2482 134.03 88.5826C134.862 88.333 135.652 87.8338 136.443 87.5842C138.19 87.085 140.053 86.5858 141.376 85.6706C143.456 84.3394 145.012 82.4258 146.743 80.9282C148.573 79.3474 150.404 77.8498 152.234 76.3522C156.144 73.357 159.972 70.5282 163.632 67.6162C165.463 66.1186 167.543 64.7874 169.706 63.5394C173.949 61.1266 178.192 58.2978 184.266 57.8818C186.679 57.7154 189.175 57.6322 191.588 57.965C192.253 58.0482 193.168 58.4642 193.751 58.2978C194.416 58.1314 194.916 57.133 195.332 56.3842C196.247 54.8034 196.912 53.7218 197.661 51.8082C198.16 50.6434 197.911 49.3954 199.159 49.4786C200.407 49.5618 200.157 52.7234 200.24 53.8882C200.324 55.3858 200.074 57.2994 200.324 58.2978C200.49 59.0466 201.405 60.045 202.404 60.045C203.069 60.045 203.568 59.5458 204.151 59.1298C204.816 58.797 205.399 58.5474 205.815 58.2146C206.813 57.4658 207.978 56.301 208.976 55.2194C209.808 54.3874 211.14 52.3906 212.554 52.557C214.967 52.8066 212.554 56.3842 212.055 57.4658C210.807 60.2114 209.642 62.2914 208.228 64.8706C207.645 65.869 206.314 67.3666 206.314 68.4482C206.314 69.197 206.98 69.6962 207.312 70.5282C207.479 70.9026 207.562 71.277 207.728 71.693C208.56 73.6066 209.226 76.269 209.808 78.4322C210.391 80.3125 210.807 82.2594 211.556 84.0898C212.221 85.9202 213.22 87.5842 213.885 89.3813C214.135 89.8805 214.135 90.4379 214.301 90.8789C215.882 94.7893 217.296 99.2571 219.127 103.026C219.876 104.565 220.957 106.437 220.874 108.725C220.874 111.221 219.626 112.386 218.461 114.216C217.879 115.215 217.047 116.688 216.132 116.962C215.466 117.212 214.717 116.962 214.052 117.045C213.136 117.212 212.471 117.794 211.639 117.877C209.392 118.127 207.396 116.38 206.73 114.716C206.564 114.133 206.647 113.384 206.48 112.719C205.981 109.998 204.65 108.692 202.736 106.978C201.572 105.847 200.573 104.981 199.076 104.199C196.912 103.101 194.583 102.419 192.336 101.204C191.504 100.755 190.481 100.314 189.757 100.455C188.567 100.68 187.344 102.643 186.429 103.866C180.572 111.637 175.364 119.616 169.589 127.246C165.762 132.296 161.685 137.421 158.649 143.195C157.9 144.676 157.401 146.357 156.818 148.021C156.236 149.685 155.903 151.515 155.321 153.345C153.074 159.669 152.409 167.406 150.412 174.062C150.162 174.728 150.079 175.56 149.913 176.309C148.997 179.72 147.999 183.547 147.001 187.208C146.169 189.87 145.919 193.531 145.778 197.067C145.694 200.37 145.528 205.079 146.693 207.176C147.358 208.257 149.605 208.673 150.495 209.838C151.077 210.629 151.493 212.201 152.076 213.249C152.492 213.998 153.657 215.537 153.573 216.661C153.49 217.518 152.825 218.117 152.159 218.408C151.493 218.766 150.412 218.574 149.746 218.907C148.997 219.323 149.33 220.238 148.581 220.737L147.982 220.23Z" fill="#411B10"/>
</svg>