<svg width="301" height="141" viewBox="0 0 301 141" fill="none" xmlns="http://www.w3.org/2000/svg">
<ellipse cx="150.011" cy="90.3124" rx="150" ry="26.5075" transform="rotate(0.0127127 150.011 90.3124)" fill="url(#paint0_radial_11_85)"/>
<g filter="url(#filter0_i_11_85)">
<ellipse cx="145.356" cy="91.2788" rx="113.188" ry="11.2221" transform="rotate(0.0127127 145.356 91.2788)" fill="white"/>
</g>
<path d="M93.9091 56.1368C95.722 54.8455 96.09 54.6105 96.4376 54.4535C96.8385 54.2723 97.2608 54.1442 97.6937 54.0725C98.0691 54.0103 98.5033 54.002 100.714 54.0729L162.172 56.0424C169.449 56.2756 174.58 56.4444 178.256 56.8723C180.075 57.0841 181.317 57.3373 182.162 57.6097C182.891 57.8449 183.123 58.0318 183.142 58.0474C184.327 59.2324 184.827 60.9424 184.471 62.5948C184.464 62.6183 184.37 62.9043 183.886 63.5076C183.325 64.2059 182.421 65.1101 181.012 66.3009C178.165 68.707 173.96 71.7075 167.993 75.957L137.92 97.3765C136.107 98.6677 135.739 98.9027 135.392 99.0597C134.991 99.2409 134.569 99.369 134.136 99.4407C133.76 99.5029 133.326 99.5112 131.115 99.4404L69.6572 97.4708C62.3806 97.2376 57.2489 97.0688 53.5734 96.6409C51.7542 96.4292 50.5119 96.1759 49.6678 95.9035C48.9386 95.6682 48.7062 95.4813 48.6874 95.4658C47.502 94.2808 47.0022 92.5708 47.3582 90.9183C47.3656 90.8947 47.4599 90.6087 47.9438 90.0056C48.5042 89.3073 49.4082 88.4031 50.8174 87.2123C53.6645 84.8062 57.8698 81.8057 63.8361 77.5562L93.9091 56.1368Z" fill="#D08132" stroke="#A56724" stroke-width="10"/>
<path d="M92.4945 54.3905C94.3075 53.0993 94.6755 52.8643 95.023 52.7073C95.424 52.5261 95.8463 52.398 96.2792 52.3263C96.6545 52.2641 97.0887 52.2558 99.2998 52.3266L160.758 54.2962C168.034 54.5294 173.166 54.6982 176.841 55.1261C178.661 55.3378 179.903 55.5911 180.747 55.8635C181.476 56.0988 181.708 56.2856 181.727 56.3012C182.913 57.4862 183.413 59.1962 183.057 60.8486C183.049 60.872 182.955 61.158 182.471 61.7614C181.911 62.4597 181.007 63.3639 179.597 64.5547C176.75 66.9608 172.545 69.9613 166.579 74.2108L136.506 95.6302C134.693 96.9215 134.325 97.1565 133.977 97.3135C133.576 97.4947 133.154 97.6228 132.721 97.6945C132.346 97.7567 131.912 97.765 129.7 97.6941L68.2427 95.7246C60.9661 95.4914 55.8344 95.3226 52.1589 94.8947C50.3397 94.6829 49.0973 94.4297 48.2533 94.1573C47.5244 93.9221 47.2919 93.7352 47.2729 93.7196C46.0874 92.5346 45.5876 90.8246 45.9437 89.1721C45.9511 89.1485 46.0454 88.8625 46.5293 88.2594C47.0896 87.5611 47.9936 86.6569 49.4028 85.466C52.2499 83.06 56.4553 80.0595 62.4216 75.81L92.4945 54.3905Z" fill="#D08132" stroke="#A56724" stroke-width="10"/>
<path d="M92.742 52.8706C94.5549 51.5794 94.9229 51.3444 95.2705 51.1874C95.6714 51.0062 96.0937 50.8781 96.5266 50.8064C96.9019 50.7442 97.3361 50.7359 99.5473 50.8067L161.005 52.7763C168.282 53.0095 173.413 53.1783 177.089 53.6062C178.908 53.8179 180.15 54.0712 180.994 54.3436C181.723 54.5789 181.956 54.7658 181.975 54.7813C183.16 55.9663 183.66 57.6763 183.304 59.3287C183.297 59.3521 183.203 59.6382 182.718 60.2415C182.158 60.9398 181.254 61.844 179.845 63.0348C176.998 65.4409 172.792 68.4414 166.826 72.6909L136.753 94.1103C134.94 95.4016 134.572 95.6366 134.225 95.7936C133.824 95.9748 133.401 96.1029 132.969 96.1746C132.593 96.2368 132.159 96.2451 129.948 96.1742L68.4901 94.2047C61.2135 93.9715 56.0818 93.8027 52.4063 93.3748C50.5871 93.163 49.3448 92.9098 48.5007 92.6374C47.7718 92.4022 47.5393 92.2153 47.5203 92.1997C46.3349 91.0147 45.8351 89.3047 46.1911 87.6522C46.1985 87.6286 46.2928 87.3426 46.7767 86.7395C47.3371 86.0412 48.2411 85.137 49.6503 83.9462C52.4974 81.5401 56.7027 78.5396 62.669 74.2901L92.742 52.8706Z" fill="#D08132" stroke="#A56724" stroke-width="10"/>
<path d="M92.0247 51.7631C93.8376 50.4718 94.2056 50.2369 94.5532 50.0798C94.9541 49.8987 95.3764 49.7706 95.8094 49.6989C96.1847 49.6367 96.6189 49.6283 98.83 49.6992L160.288 51.6688C167.564 51.902 172.696 52.0707 176.372 52.4986C178.191 52.7104 179.433 52.9637 180.277 53.236C181.007 53.4716 181.239 53.6587 181.258 53.6739C182.443 54.8588 182.943 56.5687 182.587 58.2211C182.58 58.2443 182.486 58.5303 182.001 59.1339C181.441 59.8322 180.537 60.7364 179.128 61.9273C176.28 64.3333 172.075 67.3339 166.109 71.5833L136.036 93.0028C134.223 94.2941 133.855 94.529 133.507 94.6861C133.106 94.8672 132.684 94.9953 132.251 95.0671C131.876 95.1292 131.442 95.1376 129.231 95.0667L67.7728 93.0971C60.4962 92.8639 55.3645 92.6952 51.689 92.2673C49.8698 92.0555 48.6275 91.8022 47.7834 91.5299C47.0543 91.2946 46.8219 91.1077 46.803 91.0921C45.6176 89.9071 45.1178 88.1972 45.4738 86.5447C45.4812 86.5211 45.5755 86.2351 46.0594 85.632C46.6198 84.9337 47.5238 84.0295 48.933 82.8386C51.7801 80.4326 55.9854 77.4321 61.9517 73.1826L92.0247 51.7631Z" fill="#D08132" stroke="#A56724" stroke-width="10"/>
<path d="M89.7913 46.5441C91.5357 45.2904 92.137 44.872 92.7669 44.5843C93.3724 44.3078 94.0104 44.1118 94.6642 44.0013C95.3445 43.8864 96.0709 43.8969 98.1996 43.9605L159.816 45.8021C167.003 46.017 172.23 46.1753 176.012 46.6083C179.936 47.0573 181.601 47.7493 182.315 48.4597C184.095 50.2306 184.843 52.7957 184.304 55.2794C184.088 56.2758 183.067 57.7927 180.03 60.3808C177.101 62.8759 172.819 65.9562 166.929 70.1891L136.484 92.0706C134.739 93.3243 134.138 93.7427 133.508 94.0304C132.903 94.3069 132.265 94.5029 131.611 94.6134C130.93 94.7283 130.204 94.7178 128.075 94.6542L66.4589 92.8126C59.2721 92.5977 54.0451 92.4393 50.2625 92.0064C46.339 91.5574 44.6745 90.8654 43.9603 90.155C42.1799 88.3841 41.4317 85.819 41.9711 83.3353C42.1875 82.3389 43.2078 80.822 46.2454 78.2339C49.1739 75.7388 53.4562 72.6585 59.3458 68.4256L89.7913 46.5441Z" fill="#D08132" stroke="#A56724" stroke-width="5"/>
<g filter="url(#filter1_i_11_85)">
<path d="M98.9243 49.5529C99.2513 49.3272 99.4148 49.2143 99.5924 49.136C99.7501 49.0665 99.9156 49.0173 100.085 48.9897C100.276 48.9586 100.473 48.9644 100.867 48.9762L110.643 49.2683C113.578 49.3561 115.046 49.3999 115.596 49.9536C116.072 50.4324 116.266 51.1246 116.112 51.7904C115.934 52.5602 114.716 53.4017 112.278 55.0847L106.664 58.961C106.337 59.1868 106.173 59.2997 105.996 59.378C105.838 59.4475 105.672 59.4966 105.503 59.5243C105.312 59.5554 105.115 59.5495 104.721 59.5377L94.9453 59.2456C92.0099 59.1579 90.5423 59.114 89.9922 58.5604C89.5164 58.0816 89.3217 57.3894 89.4757 56.7236C89.6537 55.9537 90.8725 55.1122 93.31 53.4293L98.9243 49.5529Z" fill="#A56724" fill-opacity="0.73"/>
</g>
<g filter="url(#filter2_i_11_85)">
<path d="M80.8091 62.5373C81.136 62.3115 81.2995 62.1987 81.4772 62.1203C81.6349 62.0509 81.8004 62.0017 81.9698 61.9741C82.1608 61.9429 82.3577 61.9488 82.7514 61.9606L92.5275 62.2527C95.4629 62.3404 96.9306 62.3843 97.4807 62.9379C97.9565 63.4168 98.1511 64.109 97.9971 64.7748C97.8191 65.5446 96.6003 66.3861 94.1628 68.0691L88.5485 71.9454C88.2216 72.1712 88.0581 72.284 87.8804 72.3624C87.7227 72.4318 87.5572 72.481 87.3878 72.5086C87.1968 72.5398 86.9999 72.5339 86.6062 72.5221L76.8301 72.23C73.8947 72.1423 72.427 72.0984 71.8769 71.5448C71.4011 71.0659 71.2065 70.3737 71.3605 69.7079C71.5385 68.9381 72.7573 68.0966 75.1948 66.4136L80.8091 62.5373Z" fill="#A56724" fill-opacity="0.73"/>
</g>
<g filter="url(#filter3_i_11_85)">
<path d="M63.2423 75.5408C63.5693 75.3151 63.7328 75.2022 63.9104 75.1239C64.0681 75.0544 64.2336 75.0052 64.4031 74.9776C64.594 74.9465 64.7909 74.9524 65.1846 74.9641L74.9608 75.2563C77.8961 75.344 79.3638 75.3878 79.9139 75.9415C80.3897 76.4203 80.5843 77.1125 80.4303 77.7783C80.2523 78.5481 79.0336 79.3896 76.596 81.0726L70.9818 84.9489C70.6548 85.1747 70.4913 85.2876 70.3136 85.3659C70.156 85.4354 69.9904 85.4845 69.821 85.5122C69.6301 85.5433 69.4332 85.5374 69.0394 85.5256L59.2633 85.2335C56.3279 85.1458 54.8603 85.1019 54.3101 84.5483C53.8343 84.0695 53.6397 83.3773 53.7937 82.7115C53.9717 81.9416 55.1905 81.1002 57.628 79.4172L63.2423 75.5408Z" fill="#A56724" fill-opacity="0.73"/>
</g>
<g filter="url(#filter4_i_11_85)">
<path d="M126.35 50.5036C126.677 50.2778 126.841 50.165 127.018 50.0867C127.176 50.0172 127.341 49.968 127.511 49.9404C127.702 49.9092 127.899 49.9151 128.292 49.9269L138.069 50.219C141.004 50.3067 142.472 50.3506 143.022 50.9042C143.497 51.3831 143.692 52.0753 143.538 52.7411C143.36 53.5109 142.141 54.3524 139.704 56.0354L134.09 59.9117C133.763 60.1375 133.599 60.2504 133.421 60.3287C133.264 60.3982 133.098 60.4473 132.929 60.4749C132.738 60.5061 132.541 60.5002 132.147 60.4884L122.371 60.1963C119.436 60.1086 117.968 60.0647 117.418 59.5111C116.942 59.0322 116.748 58.3401 116.901 57.6742C117.08 56.9044 118.298 56.0629 120.736 54.38L126.35 50.5036Z" fill="#A56724" fill-opacity="0.73"/>
</g>
<g filter="url(#filter5_i_11_85)">
<path d="M108.235 63.488C108.562 63.2622 108.725 63.1493 108.903 63.071C109.061 63.0015 109.226 62.9524 109.396 62.9248C109.587 62.8936 109.783 62.8995 110.177 62.9113L119.953 63.2034C122.889 63.2911 124.356 63.335 124.906 63.8886C125.382 64.3674 125.577 65.0596 125.423 65.7255C125.245 66.4953 124.026 67.3368 121.589 69.0197L115.974 72.8961C115.647 73.1218 115.484 73.2347 115.306 73.313C115.149 73.3825 114.983 73.4317 114.814 73.4593C114.623 73.4904 114.426 73.4846 114.032 73.4728L104.256 73.1807C101.32 73.0929 99.8528 73.0491 99.3027 72.4955C98.8269 72.0166 98.6323 71.3244 98.7863 70.6586C98.9643 69.8888 100.183 69.0473 102.621 67.3643L108.235 63.488Z" fill="#A56724" fill-opacity="0.73"/>
</g>
<g filter="url(#filter6_i_11_85)">
<path d="M90.6681 76.4914C90.995 76.2656 91.1585 76.1528 91.3362 76.0744C91.4939 76.005 91.6594 75.9558 91.8288 75.9282C92.0198 75.897 92.2167 75.9029 92.6104 75.9147L102.387 76.2068C105.322 76.2945 106.79 76.3384 107.34 76.892C107.815 77.3709 108.01 78.0631 107.856 78.7289C107.678 79.4987 106.459 80.3402 104.022 82.0232L98.4075 85.8995C98.0806 86.1253 97.9171 86.2381 97.7394 86.3164C97.5818 86.3859 97.4162 86.4351 97.2468 86.4627C97.0558 86.4939 96.859 86.488 96.4652 86.4762L86.6891 86.1841C83.7537 86.0964 82.286 86.0525 81.7359 85.4989C81.2601 85.02 81.0655 84.3278 81.2195 83.662C81.3975 82.8922 82.6163 82.0507 85.0538 80.3677L90.6681 76.4914Z" fill="#A56724" fill-opacity="0.73"/>
</g>
<g filter="url(#filter7_i_11_85)">
<path d="M154.324 51.4732C154.651 51.2474 154.815 51.1346 154.993 51.0563C155.15 50.9868 155.316 50.9376 155.485 50.91C155.676 50.8789 155.873 50.8847 156.267 50.8965L166.043 51.1886C168.978 51.2763 170.446 51.3202 170.996 51.8738C171.472 52.3527 171.666 53.0449 171.512 53.7107C171.334 54.4805 170.116 55.322 167.678 57.005L162.064 60.8813C161.737 61.1071 161.573 61.22 161.396 61.2983C161.238 61.3678 161.073 61.4169 160.903 61.4445C160.712 61.4757 160.515 61.4698 160.122 61.458L150.345 61.1659C147.41 61.0782 145.942 61.0343 145.392 60.4807C144.917 60.0018 144.722 59.3097 144.876 58.6438C145.054 57.874 146.273 57.0325 148.71 55.3496L154.324 51.4732Z" fill="#A56724" fill-opacity="0.73"/>
</g>
<g filter="url(#filter8_i_11_85)">
<path d="M136.209 64.4576C136.536 64.2318 136.7 64.1189 136.877 64.0406C137.035 63.9711 137.201 63.922 137.37 63.8944C137.561 63.8632 137.758 63.8691 138.152 63.8809L147.928 64.173C150.863 64.2607 152.331 64.3046 152.881 64.8582C153.357 65.3371 153.551 66.0292 153.397 66.6951C153.219 67.4649 152 68.3064 149.563 69.9893L143.949 73.8657C143.622 74.0915 143.458 74.2043 143.281 74.2827C143.123 74.3521 142.957 74.4013 142.788 74.4289C142.597 74.4601 142.4 74.4542 142.006 74.4424L132.23 74.1503C129.295 74.0626 127.827 74.0187 127.277 73.4651C126.801 72.9862 126.607 72.294 126.761 71.6282C126.939 70.8584 128.157 70.0169 130.595 68.3339L136.209 64.4576Z" fill="#A56724" fill-opacity="0.73"/>
</g>
<g filter="url(#filter9_i_11_85)">
<path d="M118.643 77.461C118.97 77.2352 119.133 77.1224 119.311 77.044C119.468 76.9746 119.634 76.9254 119.803 76.8978C119.994 76.8666 120.191 76.8725 120.585 76.8843L130.361 77.1764C133.296 77.2641 134.764 77.308 135.314 77.8616C135.79 78.3405 135.985 79.0327 135.831 79.6985C135.653 80.4683 134.434 81.3098 131.996 82.9928L126.382 86.8691C126.055 87.0949 125.892 87.2078 125.714 87.2861C125.556 87.3556 125.391 87.4047 125.221 87.4323C125.03 87.4635 124.833 87.4576 124.44 87.4458L114.664 87.1537C111.728 87.066 110.261 87.0221 109.71 86.4685C109.235 85.9896 109.04 85.2975 109.194 84.6316C109.372 83.8618 110.591 83.0203 113.028 81.3374L118.643 77.461Z" fill="#A56724" fill-opacity="0.73"/>
</g>
<g filter="url(#filter10_f_11_85)">
<path d="M156.191 43.3036C158.368 43.1052 159.457 43.006 160.512 43.1104C161.448 43.2031 162.362 43.414 163.229 43.7373C164.206 44.1018 165.098 44.658 166.883 45.7705L212.47 74.1923C224.228 81.5231 230.107 85.1885 230.98 88.788C231.735 91.9042 230.744 95.2111 228.338 97.5978C225.559 100.355 218.385 101.008 204.037 102.316L170.192 105.399C168.015 105.598 166.926 105.697 165.871 105.592C164.935 105.5 164.021 105.289 163.154 104.966C162.177 104.601 161.285 104.045 159.501 102.932L113.913 74.5105C102.155 67.1798 96.2762 63.5144 95.4033 59.9148C94.6477 56.7986 95.6392 53.4918 98.0449 51.105C100.824 48.348 107.998 47.6944 122.346 46.3871L156.191 43.3036Z" fill="#3C2415" fill-opacity="0.35"/>
</g>
<path d="M206.997 43.2763C205.005 41.1826 204.587 40.7961 204.176 40.5375C203.7 40.2385 203.179 40.0209 202.633 39.8937C202.16 39.7838 201.594 39.7595 198.717 39.8221L141.425 41.0696C135.629 41.1958 131.627 41.2878 128.718 41.6133C125.682 41.953 124.922 42.4624 124.787 42.5802C123.613 43.6033 122.99 45.1209 123.105 46.6815C123.118 46.8612 123.299 47.7634 125.211 50.1672C127.042 52.4702 129.81 55.387 133.824 59.6052L168.37 95.9143C170.363 98.008 170.781 98.3945 171.192 98.6531C171.667 98.9521 172.189 99.1697 172.735 99.2968C173.207 99.4068 173.774 99.431 176.65 99.3684L233.943 98.1209C239.738 97.9948 243.74 97.9027 246.649 97.5772C249.685 97.2375 250.446 96.7281 250.581 96.6103C251.755 95.5872 252.377 94.0697 252.263 92.5091C252.249 92.3294 252.068 91.4272 250.157 89.0234C248.326 86.7203 245.557 83.8036 241.544 79.5853L206.997 43.2763Z" fill="#D08132" stroke="#A56724" stroke-width="10"/>
<path d="M208.244 41.0822C206.252 38.9885 205.834 38.602 205.422 38.3434L208.039 34.1499L205.422 38.3434C204.947 38.0444 204.425 37.8268 203.879 37.6996C203.407 37.5897 202.841 37.5654 199.964 37.628L142.671 38.8755C136.876 39.0017 132.874 39.0937 129.965 39.4192C126.929 39.759 126.169 40.2683 126.033 40.3861C124.859 41.4092 124.237 42.9268 124.352 44.4874C124.365 44.6671 124.546 45.5693 126.457 47.9731C128.288 50.2761 131.057 53.1929 135.07 57.4112L169.617 93.7202C171.609 95.8139 172.027 96.2004 172.439 96.459C172.914 96.758 173.436 96.9756 173.982 97.1027C174.454 97.2127 175.02 97.2369 177.897 97.1743L235.19 95.9268C240.985 95.8007 244.987 95.7086 247.896 95.3831C250.932 95.0434 251.693 94.534 251.828 94.4162C253.002 93.3932 253.624 91.8756 253.509 90.315C253.496 90.1353 253.315 89.2331 251.404 86.8293C249.573 84.5262 246.804 81.6095 242.791 77.3912L208.244 41.0822Z" fill="#D08132" stroke="#A56724" stroke-width="10"/>
<path d="M208.026 39.138C206.034 37.0443 205.616 36.6578 205.205 36.3992C204.729 36.1002 204.208 35.8826 203.662 35.7554C203.19 35.6455 202.623 35.6212 199.747 35.6838L142.454 36.9313C136.659 37.0575 132.656 37.1495 129.747 37.475C126.711 37.8147 125.951 38.3241 125.816 38.4419C124.642 39.465 124.02 40.9826 124.134 42.5432C124.147 42.7229 124.329 43.6251 126.24 46.0289C128.071 48.3319 130.839 51.2487 134.853 55.4669L169.4 91.776C171.392 93.8697 171.81 94.2562 172.221 94.5148C172.697 94.8138 173.218 95.0314 173.764 95.1585C174.236 95.2685 174.803 95.2927 177.679 95.2301L234.972 93.9826C240.767 93.8565 244.77 93.7644 247.679 93.4389C250.715 93.0992 251.475 92.5898 251.61 92.472C252.784 91.4489 253.406 89.9314 253.292 88.3708C253.279 88.1911 253.097 87.2889 251.186 84.8851C249.355 82.582 246.587 79.6653 242.573 75.447L208.026 39.138Z" fill="#D08132" stroke="#A56724" stroke-width="10"/>
<path d="M172.853 93.119L170.218 97.3433L172.853 93.119C173.329 93.418 173.85 93.6356 174.396 93.7628C174.869 93.8727 175.435 93.897 178.311 93.8344L235.604 92.5869C241.399 92.4607 245.402 92.3687 248.311 92.0432C251.347 91.7035 252.107 91.1941 252.242 91.0763C253.416 90.0532 254.039 88.5356 253.924 86.975C253.911 86.7953 253.73 85.8931 251.818 83.4893C249.987 81.1863 247.219 78.2695 243.205 74.0512L208.658 37.7422C206.666 35.6485 206.248 35.262 205.837 35.0034C205.362 34.7044 204.84 34.4868 204.294 34.3597C203.822 34.2497 203.255 34.2255 200.379 34.2881L143.086 35.5356C137.291 35.6617 133.289 35.7538 130.38 36.0793C127.343 36.419 126.583 36.9284 126.448 37.0462C125.274 38.0692 124.652 39.5868 124.766 41.1474C124.779 41.3271 124.961 42.2293 126.872 44.6331C128.703 46.9362 131.472 49.8529 135.485 54.0712L170.032 90.3802C172.024 92.4739 172.442 92.8604 172.853 93.119Z" fill="#D08132" stroke="#A56724" stroke-width="10"/>
<path d="M211.154 32.0526C209.244 30.0376 208.579 29.3626 207.835 28.892C207.119 28.4397 206.333 28.11 205.512 27.9167C204.656 27.7156 203.715 27.7162 200.957 27.7716L143.68 28.9239C137.951 29.0391 133.827 29.1245 130.789 29.4596C127.688 29.8016 126.263 30.3623 125.521 31.0079C123.764 32.5363 122.835 34.8068 123.008 37.1452C123.081 38.1329 123.697 39.5507 125.649 42.014C127.562 44.4275 130.416 47.4429 134.384 51.6288L169.111 88.2667C171.021 90.2817 171.686 90.9567 172.431 91.4273C173.147 91.8796 173.932 92.2093 174.754 92.4026C175.609 92.6037 176.551 92.6031 179.308 92.5477L236.585 91.3954C242.314 91.2802 246.438 91.1948 249.476 90.8597C252.577 90.5177 254.003 89.957 254.745 89.3114C256.501 87.783 257.431 85.5126 257.258 83.1741C257.184 82.1863 256.569 80.7686 254.617 78.3053C252.704 75.8918 249.849 72.8764 245.882 68.6905L211.154 32.0526Z" fill="#D08132" stroke="#A56724" stroke-width="5"/>
<g filter="url(#filter11_i_11_85)">
<path d="M202.866 35.5404C202.504 35.173 202.323 34.9893 202.111 34.8594C201.923 34.7442 201.718 34.6604 201.503 34.6114C201.262 34.556 201.006 34.5612 200.493 34.5715L191.204 34.7583C188.879 34.8051 187.717 34.8285 187.175 35.3053C186.705 35.7193 186.461 36.3332 186.516 36.9618C186.58 37.6857 187.402 38.5191 189.045 40.1861L195.635 46.872C195.997 47.2393 196.178 47.423 196.39 47.553C196.578 47.6682 196.783 47.752 196.997 47.801C197.239 47.8563 197.495 47.8512 198.007 47.8409L207.297 47.654C209.622 47.6073 210.784 47.5839 211.325 47.1071C211.795 46.693 212.04 46.0791 211.984 45.4506C211.921 44.7267 211.099 43.8932 209.456 42.2263L202.866 35.5404Z" fill="#A56724" fill-opacity="0.73"/>
</g>
<g filter="url(#filter12_i_11_85)">
<path d="M218.824 52.523C218.462 52.1557 218.28 51.972 218.068 51.8421C217.88 51.7269 217.675 51.6431 217.461 51.594C217.219 51.5387 216.963 51.5439 216.451 51.5542L207.161 51.741C204.837 51.7878 203.674 51.8112 203.133 52.288C202.663 52.702 202.419 53.3159 202.474 53.9445C202.538 54.6683 203.359 55.5018 205.002 57.1688L211.592 63.8547C211.954 64.222 212.135 64.4057 212.347 64.5356C212.535 64.6508 212.741 64.7346 212.955 64.7837C213.197 64.839 213.453 64.8338 213.965 64.8235L223.254 64.6367C225.579 64.5899 226.742 64.5665 227.283 64.0897C227.753 63.6757 227.997 63.0618 227.942 62.4333C227.878 61.7094 227.057 60.8759 225.414 59.2089L218.824 52.523Z" fill="#A56724" fill-opacity="0.73"/>
</g>
<g filter="url(#filter13_i_11_85)">
<path d="M234.298 69.5171C233.936 69.1497 233.755 68.966 233.543 68.8361C233.355 68.7209 233.15 68.6371 232.935 68.5881C232.694 68.5327 232.438 68.5379 231.925 68.5482L222.636 68.735C220.311 68.7818 219.149 68.8052 218.607 69.282C218.137 69.696 217.893 70.3099 217.948 70.9385C218.012 71.6624 218.834 72.4958 220.477 74.1628L227.067 80.8487C227.429 81.216 227.61 81.3997 227.822 81.5297C228.01 81.6448 228.215 81.7286 228.429 81.7777C228.671 81.833 228.927 81.8279 229.439 81.8176L238.729 81.6307C241.054 81.5839 242.216 81.5606 242.757 81.0837C243.227 80.6697 243.472 80.0558 243.416 79.4273C243.353 78.7034 242.531 77.8699 240.888 76.2029L234.298 69.5171Z" fill="#A56724" fill-opacity="0.73"/>
</g>
<g filter="url(#filter14_i_11_85)">
<path d="M178.701 36.1129C178.339 35.7455 178.158 35.5619 177.946 35.4319C177.758 35.3167 177.553 35.2329 177.339 35.1839C177.097 35.1285 176.841 35.1337 176.328 35.144L167.039 35.3309C164.714 35.3776 163.552 35.401 163.01 35.8778C162.54 36.2918 162.296 36.9057 162.352 37.5343C162.415 38.2582 163.237 39.0917 164.88 40.7586L171.47 47.4445C171.832 47.8119 172.013 47.9955 172.225 48.1255C172.413 48.2407 172.618 48.3245 172.832 48.3735C173.074 48.4288 173.33 48.4237 173.843 48.4134L183.132 48.2265C185.457 48.1798 186.619 48.1564 187.16 47.6796C187.631 47.2655 187.875 46.6516 187.819 46.0231C187.756 45.2992 186.934 44.4657 185.291 42.7988L178.701 36.1129Z" fill="#A56724" fill-opacity="0.73"/>
</g>
<g filter="url(#filter15_i_11_85)">
<path d="M194.659 53.0954C194.297 52.7281 194.116 52.5444 193.904 52.4144C193.716 52.2993 193.51 52.2155 193.296 52.1664C193.055 52.1111 192.798 52.1162 192.286 52.1265L182.997 52.3134C180.672 52.3602 179.509 52.3835 178.968 52.8604C178.498 53.2744 178.254 53.8883 178.309 54.5168C178.373 55.2407 179.194 56.0742 180.837 57.7412L187.427 64.427C187.79 64.7944 187.971 64.9781 188.183 65.108C188.371 65.2232 188.576 65.307 188.79 65.3561C189.032 65.4114 189.288 65.4062 189.8 65.3959L199.09 65.2091C201.414 65.1623 202.577 65.1389 203.118 64.6621C203.588 64.2481 203.832 63.6342 203.777 63.0056C203.713 62.2818 202.892 61.4483 201.249 59.7813L194.659 53.0954Z" fill="#A56724" fill-opacity="0.73"/>
</g>
<g filter="url(#filter16_i_11_85)">
<path d="M210.133 70.0894C209.771 69.7221 209.59 69.5384 209.378 69.4085C209.19 69.2933 208.985 69.2095 208.771 69.1604C208.529 69.1051 208.273 69.1103 207.76 69.1206L198.471 69.3074C196.146 69.3542 194.984 69.3776 194.442 69.8544C193.972 70.2684 193.728 70.8823 193.784 71.5109C193.847 72.2347 194.669 73.0682 196.312 74.7352L202.902 81.4211C203.264 81.7884 203.445 81.9721 203.657 82.102C203.845 82.2172 204.05 82.301 204.264 82.3501C204.506 82.4054 204.762 82.4003 205.275 82.3899L214.564 82.2031C216.889 82.1563 218.051 82.133 218.592 81.6561C219.063 81.2421 219.307 80.6282 219.251 79.9997C219.188 79.2758 218.366 78.4423 216.723 76.7753L210.133 70.0894Z" fill="#A56724" fill-opacity="0.73"/>
</g>
<g filter="url(#filter17_i_11_85)">
<path d="M154.053 36.6969C153.691 36.3295 153.51 36.1458 153.298 36.0159C153.11 35.9007 152.905 35.8169 152.691 35.7679C152.449 35.7125 152.193 35.7177 151.68 35.728L142.391 35.9148C140.066 35.9616 138.904 35.985 138.362 36.4618C137.892 36.8758 137.648 37.4897 137.703 38.1183C137.767 38.8422 138.589 39.6756 140.232 41.3426L146.822 48.0285C147.184 48.3958 147.365 48.5795 147.577 48.7095C147.765 48.8247 147.97 48.9084 148.184 48.9575C148.426 49.0128 148.682 49.0077 149.194 48.9974L158.484 48.8105C160.809 48.7638 161.971 48.7404 162.512 48.2636C162.982 47.8495 163.227 47.2356 163.171 46.6071C163.108 45.8832 162.286 45.0497 160.643 43.3827L154.053 36.6969Z" fill="#A56724" fill-opacity="0.73"/>
</g>
<g filter="url(#filter18_i_11_85)">
<path d="M170.011 53.6793C169.649 53.3119 169.468 53.1283 169.256 52.9983C169.068 52.8831 168.862 52.7993 168.648 52.7503C168.406 52.695 168.15 52.7001 167.638 52.7104L158.349 52.8973C156.024 52.944 154.861 52.9674 154.32 53.4442C153.85 53.8582 153.606 54.4721 153.661 55.1007C153.725 55.8246 154.546 56.6581 156.189 58.325L162.779 65.0109C163.141 65.3783 163.323 65.5619 163.535 65.6919C163.722 65.8071 163.928 65.8909 164.142 65.9399C164.384 65.9952 164.64 65.9901 165.152 65.9798L174.442 65.7929C176.766 65.7462 177.929 65.7228 178.47 65.246C178.94 64.832 179.184 64.2181 179.129 63.5895C179.065 62.8656 178.244 62.0321 176.601 60.3652L170.011 53.6793Z" fill="#A56724" fill-opacity="0.73"/>
</g>
<g filter="url(#filter19_i_11_85)">
<path d="M185.485 70.6733C185.123 70.306 184.942 70.1223 184.73 69.9923C184.542 69.8771 184.337 69.7933 184.122 69.7443C183.881 69.689 183.625 69.6941 183.112 69.7044L173.823 69.8913C171.498 69.938 170.336 69.9614 169.794 70.4382C169.324 70.8523 169.08 71.4662 169.135 72.0947C169.199 72.8186 170.021 73.6521 171.664 75.3191L178.254 82.0049C178.616 82.3723 178.797 82.556 179.009 82.6859C179.197 82.8011 179.402 82.8849 179.616 82.9339C179.858 82.9893 180.114 82.9841 180.626 82.9738L189.916 82.787C192.241 82.7402 193.403 82.7168 193.944 82.24C194.414 81.826 194.659 81.2121 194.603 80.5835C194.54 79.8596 193.718 79.0262 192.075 77.3592L185.485 70.6733Z" fill="#A56724" fill-opacity="0.73"/>
</g>
<g filter="url(#filter20_f_11_85)">
<path d="M117.381 36.7019C118.821 35.335 119.542 34.6515 120.366 34.1345C121.097 33.6758 121.887 33.3152 122.716 33.0619C123.65 32.7765 124.648 32.676 126.643 32.4751L180.223 27.0784C194.604 25.63 201.794 24.9058 204.973 27.2613C207.724 29.299 209.276 32.5663 209.098 35.9408C208.892 39.8414 203.699 44.7682 193.313 54.6219L171.469 75.3466C170.028 76.7135 169.308 77.397 168.484 77.914C167.752 78.3727 166.962 78.7333 166.133 78.9866C165.199 79.272 164.202 79.3725 162.207 79.5734L108.626 84.9701C94.2458 86.4185 87.0557 87.1427 83.8763 84.7872C81.1256 82.7495 79.5729 79.4822 79.7515 76.1077C79.9579 72.2071 85.1508 67.2803 95.5366 57.4266L117.381 36.7019Z" fill="#3C2415" fill-opacity="0.35"/>
</g>
<path d="M207.039 16.039C208.415 17.0529 209.208 18.6697 209.149 20.3417C209.147 20.3654 209.106 20.658 208.739 21.3142C208.316 22.0685 207.595 23.0688 206.432 24.4158C204.079 27.1384 200.507 30.617 195.432 35.5499L168.928 61.3125C167.346 62.8508 167.019 63.1357 166.699 63.3391C166.329 63.5738 165.929 63.7576 165.507 63.8856C165.141 63.9966 164.707 64.0607 162.473 64.272L101.064 70.0824C93.9024 70.76 88.8559 71.2332 85.1867 71.2715C83.3713 71.2905 82.114 71.1972 81.2427 71.0361C80.4826 70.8956 80.2235 70.7403 80.2039 70.7282C78.8274 69.7143 78.0344 68.0975 78.0934 66.4255C78.0962 66.403 78.1358 66.1108 78.5041 65.453C78.9265 64.6987 79.6474 63.6984 80.8113 62.3514C83.1639 59.6288 86.7362 56.1502 91.8111 51.2173L118.315 25.4547C119.897 23.9164 120.224 23.6315 120.544 23.4281L117.743 19.2059L120.544 23.4281C120.913 23.1934 121.314 23.0096 121.736 22.8816C122.101 22.7706 122.536 22.7065 124.77 22.4952L186.178 16.6848C193.34 16.0072 198.387 15.534 202.056 15.4957C203.872 15.4767 205.129 15.57 206 15.7311C206.759 15.8714 207.019 16.0265 207.039 16.039Z" fill="#D08132" stroke="#A56724" stroke-width="10"/>
<path d="M205.359 14.5019C206.735 15.5158 207.529 17.1326 207.469 18.8046C207.467 18.8283 207.426 19.1209 207.059 19.7771C206.636 20.5313 205.916 21.5317 204.752 22.8787C202.399 25.6013 198.827 29.0799 193.752 34.0128L167.248 59.7754C165.666 61.3137 165.339 61.5986 165.019 61.802C164.65 62.0367 164.249 62.2205 163.827 62.3485C163.461 62.4595 163.027 62.5236 160.793 62.7349L99.3846 68.5453C92.2225 69.2229 87.1759 69.6961 83.5067 69.7344C81.6914 69.7534 80.4341 69.6601 79.5628 69.499C78.8027 69.3585 78.5436 69.2032 78.524 69.191C77.1475 68.1772 76.3545 66.5604 76.4135 64.8884C76.4162 64.8659 76.4558 64.5736 76.8242 63.9159C77.2466 63.1616 77.9675 62.1613 79.1314 60.8143C81.484 58.0917 85.0563 54.6131 90.1311 49.6802L116.635 23.9176C118.217 22.3793 118.544 22.0944 118.864 21.891L116.063 17.6688L118.864 21.891C119.233 21.6563 119.634 21.4725 120.056 21.3445C120.422 21.2335 120.856 21.1694 123.09 20.9581L184.498 15.1477C191.66 14.4701 196.707 13.9969 200.376 13.9586C202.192 13.9396 203.449 14.0329 204.32 14.194C205.079 14.3343 205.339 14.4894 205.359 14.5019Z" fill="#D08132" stroke="#A56724" stroke-width="10"/>
<path d="M205.359 12.9653C206.736 13.9791 207.529 15.596 207.47 17.268C207.467 17.2917 207.427 17.5842 207.059 18.2405C206.637 18.9947 205.916 19.995 204.752 21.342C202.399 24.0646 198.827 27.5433 193.752 32.4762L167.248 58.2388C165.666 59.7771 165.34 60.062 165.019 60.2654C164.65 60.5001 164.249 60.6838 163.827 60.8119C163.462 60.9229 163.027 60.987 160.794 61.1983L99.3849 67.0087C92.2229 67.6863 87.1763 68.1594 83.5071 68.1978C81.6918 68.2168 80.4345 68.1235 79.5632 67.9624C78.8031 67.8219 78.544 67.6666 78.5243 67.6544C77.1479 66.6406 76.3548 65.0238 76.4139 63.3518C76.4166 63.3293 76.4562 63.037 76.8246 62.3792C77.247 61.625 77.9678 60.6247 79.1318 59.2777C81.4843 56.5551 85.0567 53.0765 90.1315 48.1436L116.635 22.3809C118.218 20.8427 118.544 20.5578 118.864 20.3544L116.063 16.1322L118.864 20.3543C119.234 20.1197 119.635 19.9359 120.056 19.8078C120.422 19.6968 120.857 19.6328 123.09 19.4214L184.499 13.6111C191.661 12.9334 196.707 12.4603 200.377 12.4219C202.192 12.403 203.449 12.4963 204.321 12.6573C205.08 12.7977 205.339 12.9528 205.359 12.9653Z" fill="#D08132" stroke="#A56724" stroke-width="10"/>
<path d="M115.748 21.3819C117.33 19.8436 117.657 19.5587 117.977 19.3553L115.176 15.1331L117.977 19.3553C118.346 19.1207 118.747 18.9369 119.169 18.8088C119.534 18.6978 119.969 18.6337 122.202 18.4224L183.611 12.6121C190.773 11.9344 195.82 11.4613 199.489 11.4229C201.304 11.4039 202.562 11.4973 203.433 11.6583C204.192 11.7986 204.451 11.9538 204.472 11.9662C205.848 12.9801 206.641 14.5969 206.582 16.2689C206.58 16.2915 206.54 16.5839 206.172 17.2415C205.749 17.9957 205.028 18.996 203.864 20.343C201.512 23.0656 197.939 26.5442 192.865 31.4772L166.361 57.2398C164.778 58.7781 164.452 59.063 164.132 59.2664C163.762 59.501 163.361 59.6848 162.94 59.8129C162.574 59.9239 162.14 59.988 159.906 60.1993L98.4974 66.0096C91.3353 66.6873 86.2887 67.1604 82.6195 67.1988C80.8042 67.2178 79.5469 67.1244 78.6756 66.9634C77.9158 66.8229 77.6566 66.6677 77.6368 66.6554C76.2603 65.6416 75.4673 64.0248 75.5263 62.3528C75.529 62.3302 75.5687 62.0379 75.937 61.3802C76.3594 60.626 77.0803 59.6257 78.2442 58.2787C80.5968 55.5561 84.1691 52.0775 89.2439 47.1446L115.748 21.3819Z" fill="#D08132" stroke="#A56724" stroke-width="10"/>
<path d="M112.448 16.2232C113.961 14.7264 114.486 14.2244 115.066 13.8526C115.624 13.4952 116.231 13.2159 116.87 13.0224C117.536 12.8211 118.273 12.7426 120.439 12.5466L182.121 6.96336C189.154 6.32672 194.266 5.86622 198.026 5.84322C201.922 5.81939 203.674 6.29629 204.512 6.90799C206.59 8.42613 207.804 10.8459 207.741 13.3493C207.716 14.3579 207.01 15.9657 204.555 18.8638C202.186 21.6613 198.615 25.1956 193.7 30.0564L166.906 56.5542C165.392 58.051 164.867 58.553 164.287 58.9248C163.73 59.2822 163.123 59.5615 162.483 59.755C161.817 59.9563 161.08 60.0348 158.915 60.2308L97.2328 65.8141C90.1995 66.4507 85.0877 66.9112 81.327 66.9342C77.431 66.958 75.6794 66.4811 74.8418 65.8694C72.763 64.3513 71.5497 61.9315 71.6121 59.4281C71.6372 58.4195 72.3435 56.8117 74.7983 53.9136C77.1678 51.1161 80.7384 47.5819 85.6536 42.721L112.448 16.2232Z" fill="#D08132" stroke="#A56724" stroke-width="5"/>
<g filter="url(#filter21_i_11_85)">
<path d="M122.335 18.6252C122.621 18.3539 122.764 18.2183 122.928 18.1163C123.074 18.0257 123.232 17.955 123.398 17.9059C123.585 17.8505 123.785 17.8324 124.186 17.7961L134.002 16.9079C136.874 16.6481 138.31 16.5182 138.953 16.9936C139.51 17.4049 139.83 18.0589 139.804 18.7312C139.774 19.5084 138.751 20.4803 136.704 22.4242L131.717 27.1603C131.431 27.4315 131.288 27.5672 131.124 27.6692C130.978 27.7597 130.82 27.8305 130.654 27.8796C130.467 27.935 130.267 27.9531 129.866 27.9893L120.049 28.8775C117.178 29.1374 115.742 29.2673 115.098 28.7919C114.542 28.3806 114.221 27.7266 114.247 27.0542C114.278 26.2771 115.301 25.3051 117.348 23.3612L122.335 18.6252Z" fill="#A56724" fill-opacity="0.73"/>
</g>
<g filter="url(#filter22_i_11_85)">
<path d="M106.505 33.9046C106.79 33.6333 106.933 33.4977 107.097 33.3957C107.243 33.3051 107.401 33.2344 107.567 33.1853C107.754 33.1299 107.954 33.1118 108.355 33.0755L118.172 32.1873C121.044 31.9275 122.479 31.7976 123.123 32.273C123.68 32.6843 124 33.3383 123.974 34.0106C123.944 34.7878 122.92 35.7597 120.873 37.7037L115.886 42.4397C115.6 42.711 115.458 42.8466 115.293 42.9486C115.148 43.0391 114.99 43.1099 114.824 43.159C114.637 43.2144 114.436 43.2325 114.036 43.2688L104.219 44.157C101.347 44.4168 99.9112 44.5467 99.2678 44.0713C98.7112 43.66 98.3909 43.006 98.4169 42.3337C98.447 41.5565 99.4705 40.5845 101.517 38.6406L106.505 33.9046Z" fill="#A56724" fill-opacity="0.73"/>
</g>
<g filter="url(#filter23_i_11_85)">
<path d="M91.2195 49.1289C91.5052 48.8577 91.648 48.7221 91.8122 48.62C91.9579 48.5295 92.1158 48.4588 92.2818 48.4096C92.4689 48.3543 92.6692 48.3361 93.0699 48.2999L102.887 47.4117C105.758 47.1519 107.194 47.0219 107.838 47.4974C108.394 47.9087 108.715 48.5627 108.689 49.235C108.659 50.0121 107.635 50.9841 105.588 52.928L100.601 57.6641C100.315 57.9353 100.172 58.0709 100.008 58.173C99.8624 58.2635 99.7045 58.3342 99.5385 58.3834C99.3515 58.4387 99.1511 58.4569 98.7504 58.4931L88.9336 59.3813C86.0619 59.6412 84.6261 59.7711 83.9827 59.2957C83.426 58.8844 83.1057 58.2304 83.1317 57.558C83.1618 56.7809 84.1853 55.8089 86.2323 53.865L91.2195 49.1289Z" fill="#A56724" fill-opacity="0.73"/>
</g>
<g filter="url(#filter24_i_11_85)">
<path d="M149.616 15.8775C149.901 15.6062 150.044 15.4706 150.208 15.3686C150.354 15.278 150.512 15.2073 150.678 15.1582C150.865 15.1028 151.065 15.0847 151.466 15.0484L161.283 14.1602C164.155 13.9004 165.59 13.7705 166.234 14.2459C166.79 14.6572 167.111 15.3112 167.085 15.9835C167.055 16.7607 166.031 17.7326 163.984 19.6766L158.997 24.4126C158.711 24.6839 158.568 24.8195 158.404 24.9215C158.259 25.012 158.101 25.0828 157.935 25.1319C157.748 25.1873 157.547 25.2054 157.147 25.2417L147.33 26.1299C144.458 26.3897 143.022 26.5196 142.379 26.0442C141.822 25.6329 141.502 24.9789 141.528 24.3065C141.558 23.5294 142.581 22.5574 144.628 20.6135L149.616 15.8775Z" fill="#A56724" fill-opacity="0.73"/>
</g>
<g filter="url(#filter25_i_11_85)">
<path d="M133.785 31.1568C134.071 30.8855 134.213 30.7499 134.378 30.6479C134.523 30.5573 134.681 30.4866 134.847 30.4375C135.034 30.3821 135.235 30.364 135.635 30.3277L145.452 29.4395C148.324 29.1797 149.76 29.0498 150.403 29.5252C150.96 29.9365 151.28 30.5905 151.254 31.2628C151.224 32.04 150.2 33.0119 148.153 34.9559L143.166 39.6919C142.881 39.9632 142.738 40.0988 142.574 40.2008C142.428 40.2913 142.27 40.3621 142.104 40.4112C141.917 40.4666 141.717 40.4847 141.316 40.521L131.499 41.4092C128.627 41.669 127.192 41.7989 126.548 41.3235C125.991 40.9122 125.671 40.2582 125.697 39.5858C125.727 38.8087 126.751 37.8367 128.798 35.8928L133.785 31.1568Z" fill="#A56724" fill-opacity="0.73"/>
</g>
<g filter="url(#filter26_i_11_85)">
<path d="M118.5 46.3813C118.786 46.11 118.928 45.9744 119.093 45.8724C119.238 45.7818 119.396 45.7111 119.562 45.662C119.749 45.6066 119.95 45.5885 120.35 45.5522L130.167 44.664C133.039 44.4042 134.475 44.2743 135.118 44.7497C135.675 45.161 135.995 45.815 135.969 46.4873C135.939 47.2645 134.915 48.2364 132.868 50.1803L127.881 54.9164C127.596 55.1876 127.453 55.3233 127.289 55.4253C127.143 55.5158 126.985 55.5866 126.819 55.6357C126.632 55.6911 126.432 55.7092 126.031 55.7454L116.214 56.6337C113.342 56.8935 111.906 57.0234 111.263 56.548C110.706 56.1367 110.386 55.4827 110.412 54.8103C110.442 54.0332 111.466 53.0612 113.513 51.1173L118.5 46.3813Z" fill="#A56724" fill-opacity="0.73"/>
</g>
<g filter="url(#filter27_i_11_85)">
<path d="M177.442 13.0749C177.727 12.8036 177.87 12.668 178.034 12.566C178.18 12.4754 178.338 12.4047 178.504 12.3556C178.691 12.3002 178.891 12.2821 179.292 12.2458L189.109 11.3576C191.981 11.0978 193.416 10.9679 194.06 11.4433C194.617 11.8546 194.937 12.5086 194.911 13.1809C194.881 13.9581 193.857 14.93 191.81 16.8739L186.823 21.61C186.537 21.8812 186.395 22.0169 186.23 22.1189C186.085 22.2094 185.927 22.2802 185.761 22.3293C185.574 22.3847 185.373 22.4028 184.973 22.439L175.156 23.3273C172.284 23.5871 170.848 23.717 170.205 23.2416C169.648 22.8303 169.328 22.1763 169.354 21.5039C169.384 20.7268 170.407 19.7548 172.454 17.8109L177.442 13.0749Z" fill="#A56724" fill-opacity="0.73"/>
</g>
<g filter="url(#filter28_i_11_85)">
<path d="M161.611 28.3542C161.897 28.0829 162.039 27.9473 162.204 27.8453C162.349 27.7547 162.507 27.684 162.673 27.6349C162.86 27.5795 163.061 27.5614 163.461 27.5251L173.278 26.6369C176.15 26.3771 177.586 26.2472 178.229 26.7226C178.786 27.1339 179.106 27.7879 179.08 28.4602C179.05 29.2374 178.027 30.2093 175.98 32.1532L170.992 36.8893C170.707 37.1605 170.564 37.2962 170.4 37.3982C170.254 37.4887 170.096 37.5595 169.93 37.6086C169.743 37.664 169.543 37.6821 169.142 37.7183L159.325 38.6066C156.453 38.8664 155.018 38.9963 154.374 38.5209C153.817 38.1096 153.497 37.4556 153.523 36.7832C153.553 36.0061 154.577 35.0341 156.624 33.0902L161.611 28.3542Z" fill="#A56724" fill-opacity="0.73"/>
</g>
<g filter="url(#filter29_i_11_85)">
<path d="M146.326 43.5785C146.612 43.3073 146.754 43.1717 146.919 43.0696C147.064 42.9791 147.222 42.9084 147.388 42.8592C147.575 42.8039 147.776 42.7857 148.176 42.7495L157.993 41.8613C160.865 41.6014 162.301 41.4715 162.944 41.9469C163.501 42.3582 163.821 43.0122 163.795 43.6846C163.765 44.4617 162.741 45.4337 160.694 47.3776L155.707 52.1137C155.422 52.3849 155.279 52.5205 155.115 52.6226C154.969 52.7131 154.811 52.7838 154.645 52.833C154.458 52.8883 154.258 52.9065 153.857 52.9427L144.04 53.8309C141.168 54.0907 139.733 54.2207 139.089 53.7452C138.532 53.3339 138.212 52.6799 138.238 52.0076C138.268 51.2305 139.292 50.2585 141.339 48.3146L146.326 43.5785Z" fill="#A56724" fill-opacity="0.73"/>
</g>
<path d="M132.52 21.7042C133.312 20.7774 133.709 20.3139 134.189 19.9707C134.615 19.6665 135.088 19.4327 135.592 19.2781C136.159 19.1037 136.775 19.0672 138.007 18.9941L139.357 18.9141C145.356 18.5583 148.356 18.3805 149.853 19.4848C151.153 20.4432 151.93 21.9514 151.945 23.5443C151.962 25.3798 150.033 27.636 146.175 32.1483L145.715 32.6872C144.922 33.6141 144.526 34.0775 144.045 34.4207C143.619 34.7249 143.146 34.9587 142.643 35.1133C142.075 35.2877 141.459 35.3242 140.227 35.3973L138.878 35.4773C132.878 35.8331 129.879 36.011 128.381 34.9066C127.081 33.9482 126.304 32.44 126.29 30.8471C126.272 29.0116 128.201 26.7554 132.059 22.2431L132.52 21.7042Z" fill="#FBAD24"/>
<path d="M132.483 20.6442C133.276 19.7174 133.672 19.254 134.152 18.9108C134.578 18.6065 135.052 18.3727 135.555 18.2182C136.122 18.0438 136.739 18.0073 137.971 17.9342L139.32 17.8542C145.32 17.4984 148.319 17.3205 149.817 18.4249C151.116 19.3833 151.894 20.8915 151.908 22.4844C151.925 24.3199 149.997 26.5761 146.139 31.0884L145.678 31.6273C144.886 32.5541 144.489 33.0175 144.009 33.3607C143.583 33.665 143.109 33.8988 142.606 34.0534C142.039 34.2277 141.423 34.2643 140.19 34.3373L138.841 34.4174C132.842 34.7731 129.842 34.951 128.344 33.8467C127.045 32.8883 126.268 31.38 126.253 29.7872C126.236 27.9516 128.165 25.6955 132.023 21.1831L132.483 20.6442Z" fill="#FBAD24"/>
<path d="M132.385 19.4881C133.178 18.5613 133.574 18.0979 134.054 17.7547C134.48 17.4504 134.954 17.2166 135.457 17.062C136.024 16.8877 136.641 16.8511 137.873 16.7781L139.222 16.698C145.222 16.3423 148.221 16.1644 149.719 17.2688C151.018 18.2271 151.795 19.7354 151.81 21.3282C151.827 23.1638 149.899 25.4199 146.041 29.9323L145.58 30.4712C144.788 31.398 144.391 31.8614 143.911 32.2046C143.485 32.5089 143.011 32.7427 142.508 32.8972C141.941 33.0716 141.325 33.1081 140.092 33.1812L138.743 33.2612C132.744 33.617 129.744 33.7949 128.246 32.6905C126.947 31.7321 126.17 30.2239 126.155 28.631C126.138 26.7955 128.067 24.5393 131.925 20.027L132.385 19.4881Z" fill="#FDDC79" fill-opacity="0.59"/>
<path d="M132.385 19.4881C133.178 18.5613 133.574 18.0979 134.054 17.7547C134.48 17.4504 134.954 17.2166 135.457 17.062C136.024 16.8877 136.641 16.8511 137.873 16.7781L139.222 16.698C145.222 16.3423 148.221 16.1644 149.719 17.2688C151.018 18.2271 151.795 19.7354 151.81 21.3282C151.827 23.1638 149.899 25.4199 146.041 29.9323L145.58 30.4712C144.788 31.398 144.391 31.8614 143.911 32.2046C143.485 32.5089 143.011 32.7427 142.508 32.8972C141.941 33.0716 141.325 33.1081 140.092 33.1812L138.743 33.2612C132.744 33.617 129.744 33.7949 128.246 32.6905C126.947 31.7321 126.17 30.2239 126.155 28.631C126.138 26.7955 128.067 24.5393 131.925 20.027L132.385 19.4881Z" fill="#FDDC79"/>
<path d="M157.072 15.4635C157.071 17.8305 157.679 17.7396 159.613 18.6503C159.901 18.786 161.793 20.3303 161.965 20.5983L165.96 26.8322C166.072 27.0074 166.192 27.1391 166.365 27.2542C169.117 29.0802 195.22 46.4211 204.376 53.3349C206.824 55.1832 205.428 56.6389 202.435 55.97C190.915 53.396 174.712 36.342 169.111 35.8988C163.816 35.4797 170.398 52.4591 168.576 58.6567C168.011 60.5775 164.409 61.6087 162.447 61.2077C161.279 60.9689 160.781 60.2374 160.342 59.1289C157.569 52.1251 147.419 26.5882 148.229 30.1285C148.962 33.3262 144.713 34.027 142.813 34.1807C142.226 34.2281 141.637 34.1931 141.051 34.1318L136.896 33.6974C135.252 33.5255 133.607 33.5901 131.988 33.9211C124.437 35.4645 101.391 40.5046 93.1574 46.0839C89.6816 48.4393 86.3557 49.2784 83.8961 49.3272C78.2157 49.4399 86.081 43.6497 90.8641 40.5836C101.57 33.7209 120.721 23.2649 124.364 21.2855C124.784 21.0575 125.171 20.825 125.571 20.5634L132.736 15.8712C135.505 14.0579 138.739 13.0808 142.047 13.1767C147.999 13.3491 157.072 13.8729 157.072 15.4635Z" fill="#FDDC79" fill-opacity="0.69"/>
<path d="M189.02 4.89753C204.028 6.82336 191.343 13.5495 198.741 17.0117C199.843 17.5277 207.094 23.4128 207.753 24.4358L223.087 48.209C223.477 48.8135 223.96 49.3266 224.543 49.7473C231.256 54.5882 274.749 86.1368 276.367 92.0586C277.17 94.9988 270.898 92.7725 267.913 93.3876C231.58 100.873 258.677 84.4337 235.084 82.5787C219.069 81.3194 226.768 88.7593 225.967 94.6057C224.751 103.474 206.392 103.656 197.472 104.412C174.738 106.339 137.351 105.322 164.901 99.4815C202.952 91.4152 151.596 45.0704 155.186 60.6439C158.776 76.2174 135.742 47.3741 131.085 76.2113C127.535 98.1917 112.695 84.929 105.838 77.3793C103.457 74.7573 100.507 72.631 96.9765 72.3441C88.0507 71.6186 68.9354 73.0708 46.9501 92.9188C38.4644 100.58 6.10537 93.2339 23.6064 88.5457C29.0837 87.0785 34.1113 83.8987 37.5605 79.398C48.7901 64.7448 71.2594 44.107 74.6446 41.0233C74.9365 40.7574 75.2313 40.5098 75.542 40.2662L106.901 15.6844C109.184 13.8945 111.878 12.7196 114.747 12.2874C129.364 10.0847 176.395 3.2775 189.02 4.89753Z" fill="#A56724" fill-opacity="0.17"/>
<defs>
<filter id="filter0_i_11_85" x="32.1688" y="80.0565" width="226.375" height="22.4445" filterUnits="userSpaceOnUse" color-interpolation-filters="sRGB">
<feFlood flood-opacity="0" result="BackgroundImageFix"/>
<feBlend mode="normal" in="SourceGraphic" in2="BackgroundImageFix" result="shape"/>
<feColorMatrix in="SourceAlpha" type="matrix" values="0 0 0 0 0 0 0 0 0 0 0 0 0 0 0 0 0 0 127 0" result="hardAlpha"/>
<feOffset/>
<feGaussianBlur stdDeviation="7.5"/>
<feComposite in2="hardAlpha" operator="arithmetic" k2="-1" k3="1"/>
<feColorMatrix type="matrix" values="0 0 0 0 0 0 0 0 0 0 0 0 0 0 0 0 0 0 0.5 0"/>
<feBlend mode="normal" in2="shape" result="effect1_innerShadow_11_85"/>
</filter>
<filter id="filter1_i_11_85" x="89.424" y="48.9668" width="26.7401" height="10.5804" filterUnits="userSpaceOnUse" color-interpolation-filters="sRGB">
<feFlood flood-opacity="0" result="BackgroundImageFix"/>
<feBlend mode="normal" in="SourceGraphic" in2="BackgroundImageFix" result="shape"/>
<feColorMatrix in="SourceAlpha" type="matrix" values="0 0 0 0 0 0 0 0 0 0 0 0 0 0 0 0 0 0 127 0" result="hardAlpha"/>
<feOffset/>
<feGaussianBlur stdDeviation="3.5"/>
<feComposite in2="hardAlpha" operator="arithmetic" k2="-1" k3="1"/>
<feColorMatrix type="matrix" values="0 0 0 0 0.235294 0 0 0 0 0.141176 0 0 0 0 0.082353 0 0 0 0.78 0"/>
<feBlend mode="normal" in2="shape" result="effect1_innerShadow_11_85"/>
</filter>
<filter id="filter2_i_11_85" x="71.3087" y="61.9512" width="26.7401" height="10.5804" filterUnits="userSpaceOnUse" color-interpolation-filters="sRGB">
<feFlood flood-opacity="0" result="BackgroundImageFix"/>
<feBlend mode="normal" in="SourceGraphic" in2="BackgroundImageFix" result="shape"/>
<feColorMatrix in="SourceAlpha" type="matrix" values="0 0 0 0 0 0 0 0 0 0 0 0 0 0 0 0 0 0 127 0" result="hardAlpha"/>
<feOffset/>
<feGaussianBlur stdDeviation="3.5"/>
<feComposite in2="hardAlpha" operator="arithmetic" k2="-1" k3="1"/>
<feColorMatrix type="matrix" values="0 0 0 0 0.235294 0 0 0 0 0.141176 0 0 0 0 0.082353 0 0 0 0.78 0"/>
<feBlend mode="normal" in2="shape" result="effect1_innerShadow_11_85"/>
</filter>
<filter id="filter3_i_11_85" x="53.7419" y="74.9547" width="26.7401" height="10.5804" filterUnits="userSpaceOnUse" color-interpolation-filters="sRGB">
<feFlood flood-opacity="0" result="BackgroundImageFix"/>
<feBlend mode="normal" in="SourceGraphic" in2="BackgroundImageFix" result="shape"/>
<feColorMatrix in="SourceAlpha" type="matrix" values="0 0 0 0 0 0 0 0 0 0 0 0 0 0 0 0 0 0 127 0" result="hardAlpha"/>
<feOffset/>
<feGaussianBlur stdDeviation="3.5"/>
<feComposite in2="hardAlpha" operator="arithmetic" k2="-1" k3="1"/>
<feColorMatrix type="matrix" values="0 0 0 0 0.235294 0 0 0 0 0.141176 0 0 0 0 0.082353 0 0 0 0.78 0"/>
<feBlend mode="normal" in2="shape" result="effect1_innerShadow_11_85"/>
</filter>
<filter id="filter4_i_11_85" x="116.85" y="49.9175" width="26.7401" height="10.5804" filterUnits="userSpaceOnUse" color-interpolation-filters="sRGB">
<feFlood flood-opacity="0" result="BackgroundImageFix"/>
<feBlend mode="normal" in="SourceGraphic" in2="BackgroundImageFix" result="shape"/>
<feColorMatrix in="SourceAlpha" type="matrix" values="0 0 0 0 0 0 0 0 0 0 0 0 0 0 0 0 0 0 127 0" result="hardAlpha"/>
<feOffset/>
<feGaussianBlur stdDeviation="3.5"/>
<feComposite in2="hardAlpha" operator="arithmetic" k2="-1" k3="1"/>
<feColorMatrix type="matrix" values="0 0 0 0 0.235294 0 0 0 0 0.141176 0 0 0 0 0.082353 0 0 0 0.78 0"/>
<feBlend mode="normal" in2="shape" result="effect1_innerShadow_11_85"/>
</filter>
<filter id="filter5_i_11_85" x="98.7345" y="62.9019" width="26.7401" height="10.5804" filterUnits="userSpaceOnUse" color-interpolation-filters="sRGB">
<feFlood flood-opacity="0" result="BackgroundImageFix"/>
<feBlend mode="normal" in="SourceGraphic" in2="BackgroundImageFix" result="shape"/>
<feColorMatrix in="SourceAlpha" type="matrix" values="0 0 0 0 0 0 0 0 0 0 0 0 0 0 0 0 0 0 127 0" result="hardAlpha"/>
<feOffset/>
<feGaussianBlur stdDeviation="3.5"/>
<feComposite in2="hardAlpha" operator="arithmetic" k2="-1" k3="1"/>
<feColorMatrix type="matrix" values="0 0 0 0 0.235294 0 0 0 0 0.141176 0 0 0 0 0.082353 0 0 0 0.78 0"/>
<feBlend mode="normal" in2="shape" result="effect1_innerShadow_11_85"/>
</filter>
<filter id="filter6_i_11_85" x="81.1677" y="75.9053" width="26.7401" height="10.5804" filterUnits="userSpaceOnUse" color-interpolation-filters="sRGB">
<feFlood flood-opacity="0" result="BackgroundImageFix"/>
<feBlend mode="normal" in="SourceGraphic" in2="BackgroundImageFix" result="shape"/>
<feColorMatrix in="SourceAlpha" type="matrix" values="0 0 0 0 0 0 0 0 0 0 0 0 0 0 0 0 0 0 127 0" result="hardAlpha"/>
<feOffset/>
<feGaussianBlur stdDeviation="3.5"/>
<feComposite in2="hardAlpha" operator="arithmetic" k2="-1" k3="1"/>
<feColorMatrix type="matrix" values="0 0 0 0 0.235294 0 0 0 0 0.141176 0 0 0 0 0.082353 0 0 0 0.78 0"/>
<feBlend mode="normal" in2="shape" result="effect1_innerShadow_11_85"/>
</filter>
<filter id="filter7_i_11_85" x="144.824" y="50.8871" width="26.7401" height="10.5804" filterUnits="userSpaceOnUse" color-interpolation-filters="sRGB">
<feFlood flood-opacity="0" result="BackgroundImageFix"/>
<feBlend mode="normal" in="SourceGraphic" in2="BackgroundImageFix" result="shape"/>
<feColorMatrix in="SourceAlpha" type="matrix" values="0 0 0 0 0 0 0 0 0 0 0 0 0 0 0 0 0 0 127 0" result="hardAlpha"/>
<feOffset/>
<feGaussianBlur stdDeviation="3.5"/>
<feComposite in2="hardAlpha" operator="arithmetic" k2="-1" k3="1"/>
<feColorMatrix type="matrix" values="0 0 0 0 0.235294 0 0 0 0 0.141176 0 0 0 0 0.082353 0 0 0 0.78 0"/>
<feBlend mode="normal" in2="shape" result="effect1_innerShadow_11_85"/>
</filter>
<filter id="filter8_i_11_85" x="126.709" y="63.8715" width="26.7401" height="10.5804" filterUnits="userSpaceOnUse" color-interpolation-filters="sRGB">
<feFlood flood-opacity="0" result="BackgroundImageFix"/>
<feBlend mode="normal" in="SourceGraphic" in2="BackgroundImageFix" result="shape"/>
<feColorMatrix in="SourceAlpha" type="matrix" values="0 0 0 0 0 0 0 0 0 0 0 0 0 0 0 0 0 0 127 0" result="hardAlpha"/>
<feOffset/>
<feGaussianBlur stdDeviation="3.5"/>
<feComposite in2="hardAlpha" operator="arithmetic" k2="-1" k3="1"/>
<feColorMatrix type="matrix" values="0 0 0 0 0.235294 0 0 0 0 0.141176 0 0 0 0 0.082353 0 0 0 0.78 0"/>
<feBlend mode="normal" in2="shape" result="effect1_innerShadow_11_85"/>
</filter>
<filter id="filter9_i_11_85" x="109.142" y="76.8749" width="26.7401" height="10.5804" filterUnits="userSpaceOnUse" color-interpolation-filters="sRGB">
<feFlood flood-opacity="0" result="BackgroundImageFix"/>
<feBlend mode="normal" in="SourceGraphic" in2="BackgroundImageFix" result="shape"/>
<feColorMatrix in="SourceAlpha" type="matrix" values="0 0 0 0 0 0 0 0 0 0 0 0 0 0 0 0 0 0 127 0" result="hardAlpha"/>
<feOffset/>
<feGaussianBlur stdDeviation="3.5"/>
<feComposite in2="hardAlpha" operator="arithmetic" k2="-1" k3="1"/>
<feColorMatrix type="matrix" values="0 0 0 0 0.235294 0 0 0 0 0.141176 0 0 0 0 0.082353 0 0 0 0.78 0"/>
<feBlend mode="normal" in2="shape" result="effect1_innerShadow_11_85"/>
</filter>
<filter id="filter10_f_11_85" x="85.1548" y="33.0684" width="156.074" height="82.5662" filterUnits="userSpaceOnUse" color-interpolation-filters="sRGB">
<feFlood flood-opacity="0" result="BackgroundImageFix"/>
<feBlend mode="normal" in="SourceGraphic" in2="BackgroundImageFix" result="shape"/>
<feGaussianBlur stdDeviation="5" result="effect1_foregroundBlur_11_85"/>
</filter>
<filter id="filter11_i_11_85" x="186.509" y="34.5649" width="25.4833" height="13.2825" filterUnits="userSpaceOnUse" color-interpolation-filters="sRGB">
<feFlood flood-opacity="0" result="BackgroundImageFix"/>
<feBlend mode="normal" in="SourceGraphic" in2="BackgroundImageFix" result="shape"/>
<feColorMatrix in="SourceAlpha" type="matrix" values="0 0 0 0 0 0 0 0 0 0 0 0 0 0 0 0 0 0 127 0" result="hardAlpha"/>
<feOffset/>
<feGaussianBlur stdDeviation="3.5"/>
<feComposite in2="hardAlpha" operator="arithmetic" k2="-1" k3="1"/>
<feColorMatrix type="matrix" values="0 0 0 0 0.235294 0 0 0 0 0.141176 0 0 0 0 0.082353 0 0 0 0.78 0"/>
<feBlend mode="normal" in2="shape" result="effect1_innerShadow_11_85"/>
</filter>
<filter id="filter12_i_11_85" x="202.466" y="51.5476" width="25.4834" height="13.2825" filterUnits="userSpaceOnUse" color-interpolation-filters="sRGB">
<feFlood flood-opacity="0" result="BackgroundImageFix"/>
<feBlend mode="normal" in="SourceGraphic" in2="BackgroundImageFix" result="shape"/>
<feColorMatrix in="SourceAlpha" type="matrix" values="0 0 0 0 0 0 0 0 0 0 0 0 0 0 0 0 0 0 127 0" result="hardAlpha"/>
<feOffset/>
<feGaussianBlur stdDeviation="3.5"/>
<feComposite in2="hardAlpha" operator="arithmetic" k2="-1" k3="1"/>
<feColorMatrix type="matrix" values="0 0 0 0 0.235294 0 0 0 0 0.141176 0 0 0 0 0.082353 0 0 0 0.78 0"/>
<feBlend mode="normal" in2="shape" result="effect1_innerShadow_11_85"/>
</filter>
<filter id="filter13_i_11_85" x="217.941" y="68.5416" width="25.4834" height="13.2825" filterUnits="userSpaceOnUse" color-interpolation-filters="sRGB">
<feFlood flood-opacity="0" result="BackgroundImageFix"/>
<feBlend mode="normal" in="SourceGraphic" in2="BackgroundImageFix" result="shape"/>
<feColorMatrix in="SourceAlpha" type="matrix" values="0 0 0 0 0 0 0 0 0 0 0 0 0 0 0 0 0 0 127 0" result="hardAlpha"/>
<feOffset/>
<feGaussianBlur stdDeviation="3.5"/>
<feComposite in2="hardAlpha" operator="arithmetic" k2="-1" k3="1"/>
<feColorMatrix type="matrix" values="0 0 0 0 0.235294 0 0 0 0 0.141176 0 0 0 0 0.082353 0 0 0 0.78 0"/>
<feBlend mode="normal" in2="shape" result="effect1_innerShadow_11_85"/>
</filter>
<filter id="filter14_i_11_85" x="162.344" y="35.1375" width="25.4833" height="13.2825" filterUnits="userSpaceOnUse" color-interpolation-filters="sRGB">
<feFlood flood-opacity="0" result="BackgroundImageFix"/>
<feBlend mode="normal" in="SourceGraphic" in2="BackgroundImageFix" result="shape"/>
<feColorMatrix in="SourceAlpha" type="matrix" values="0 0 0 0 0 0 0 0 0 0 0 0 0 0 0 0 0 0 127 0" result="hardAlpha"/>
<feOffset/>
<feGaussianBlur stdDeviation="3.5"/>
<feComposite in2="hardAlpha" operator="arithmetic" k2="-1" k3="1"/>
<feColorMatrix type="matrix" values="0 0 0 0 0.235294 0 0 0 0 0.141176 0 0 0 0 0.082353 0 0 0 0.78 0"/>
<feBlend mode="normal" in2="shape" result="effect1_innerShadow_11_85"/>
</filter>
<filter id="filter15_i_11_85" x="178.302" y="52.12" width="25.4833" height="13.2825" filterUnits="userSpaceOnUse" color-interpolation-filters="sRGB">
<feFlood flood-opacity="0" result="BackgroundImageFix"/>
<feBlend mode="normal" in="SourceGraphic" in2="BackgroundImageFix" result="shape"/>
<feColorMatrix in="SourceAlpha" type="matrix" values="0 0 0 0 0 0 0 0 0 0 0 0 0 0 0 0 0 0 127 0" result="hardAlpha"/>
<feOffset/>
<feGaussianBlur stdDeviation="3.5"/>
<feComposite in2="hardAlpha" operator="arithmetic" k2="-1" k3="1"/>
<feColorMatrix type="matrix" values="0 0 0 0 0.235294 0 0 0 0 0.141176 0 0 0 0 0.082353 0 0 0 0.78 0"/>
<feBlend mode="normal" in2="shape" result="effect1_innerShadow_11_85"/>
</filter>
<filter id="filter16_i_11_85" x="193.776" y="69.114" width="25.4833" height="13.2825" filterUnits="userSpaceOnUse" color-interpolation-filters="sRGB">
<feFlood flood-opacity="0" result="BackgroundImageFix"/>
<feBlend mode="normal" in="SourceGraphic" in2="BackgroundImageFix" result="shape"/>
<feColorMatrix in="SourceAlpha" type="matrix" values="0 0 0 0 0 0 0 0 0 0 0 0 0 0 0 0 0 0 127 0" result="hardAlpha"/>
<feOffset/>
<feGaussianBlur stdDeviation="3.5"/>
<feComposite in2="hardAlpha" operator="arithmetic" k2="-1" k3="1"/>
<feColorMatrix type="matrix" values="0 0 0 0 0.235294 0 0 0 0 0.141176 0 0 0 0 0.082353 0 0 0 0.78 0"/>
<feBlend mode="normal" in2="shape" result="effect1_innerShadow_11_85"/>
</filter>
<filter id="filter17_i_11_85" x="137.696" y="35.7214" width="25.4834" height="13.2825" filterUnits="userSpaceOnUse" color-interpolation-filters="sRGB">
<feFlood flood-opacity="0" result="BackgroundImageFix"/>
<feBlend mode="normal" in="SourceGraphic" in2="BackgroundImageFix" result="shape"/>
<feColorMatrix in="SourceAlpha" type="matrix" values="0 0 0 0 0 0 0 0 0 0 0 0 0 0 0 0 0 0 127 0" result="hardAlpha"/>
<feOffset/>
<feGaussianBlur stdDeviation="3.5"/>
<feComposite in2="hardAlpha" operator="arithmetic" k2="-1" k3="1"/>
<feColorMatrix type="matrix" values="0 0 0 0 0.235294 0 0 0 0 0.141176 0 0 0 0 0.082353 0 0 0 0.78 0"/>
<feBlend mode="normal" in2="shape" result="effect1_innerShadow_11_85"/>
</filter>
<filter id="filter18_i_11_85" x="153.653" y="52.7039" width="25.4833" height="13.2825" filterUnits="userSpaceOnUse" color-interpolation-filters="sRGB">
<feFlood flood-opacity="0" result="BackgroundImageFix"/>
<feBlend mode="normal" in="SourceGraphic" in2="BackgroundImageFix" result="shape"/>
<feColorMatrix in="SourceAlpha" type="matrix" values="0 0 0 0 0 0 0 0 0 0 0 0 0 0 0 0 0 0 127 0" result="hardAlpha"/>
<feOffset/>
<feGaussianBlur stdDeviation="3.5"/>
<feComposite in2="hardAlpha" operator="arithmetic" k2="-1" k3="1"/>
<feColorMatrix type="matrix" values="0 0 0 0 0.235294 0 0 0 0 0.141176 0 0 0 0 0.082353 0 0 0 0.78 0"/>
<feBlend mode="normal" in2="shape" result="effect1_innerShadow_11_85"/>
</filter>
<filter id="filter19_i_11_85" x="169.128" y="69.6979" width="25.4833" height="13.2825" filterUnits="userSpaceOnUse" color-interpolation-filters="sRGB">
<feFlood flood-opacity="0" result="BackgroundImageFix"/>
<feBlend mode="normal" in="SourceGraphic" in2="BackgroundImageFix" result="shape"/>
<feColorMatrix in="SourceAlpha" type="matrix" values="0 0 0 0 0 0 0 0 0 0 0 0 0 0 0 0 0 0 127 0" result="hardAlpha"/>
<feOffset/>
<feGaussianBlur stdDeviation="3.5"/>
<feComposite in2="hardAlpha" operator="arithmetic" k2="-1" k3="1"/>
<feColorMatrix type="matrix" values="0 0 0 0 0.235294 0 0 0 0 0.141176 0 0 0 0 0.082353 0 0 0 0.78 0"/>
<feBlend mode="normal" in2="shape" result="effect1_innerShadow_11_85"/>
</filter>
<filter id="filter20_f_11_85" x="69.7375" y="15.7363" width="149.374" height="80.5758" filterUnits="userSpaceOnUse" color-interpolation-filters="sRGB">
<feFlood flood-opacity="0" result="BackgroundImageFix"/>
<feBlend mode="normal" in="SourceGraphic" in2="BackgroundImageFix" result="shape"/>
<feGaussianBlur stdDeviation="5" result="effect1_foregroundBlur_11_85"/>
</filter>
<filter id="filter21_i_11_85" x="114.246" y="16.6748" width="25.5598" height="12.4359" filterUnits="userSpaceOnUse" color-interpolation-filters="sRGB">
<feFlood flood-opacity="0" result="BackgroundImageFix"/>
<feBlend mode="normal" in="SourceGraphic" in2="BackgroundImageFix" result="shape"/>
<feColorMatrix in="SourceAlpha" type="matrix" values="0 0 0 0 0 0 0 0 0 0 0 0 0 0 0 0 0 0 127 0" result="hardAlpha"/>
<feOffset/>
<feGaussianBlur stdDeviation="3.5"/>
<feComposite in2="hardAlpha" operator="arithmetic" k2="-1" k3="1"/>
<feColorMatrix type="matrix" values="0 0 0 0 0.235294 0 0 0 0 0.141176 0 0 0 0 0.082353 0 0 0 0.78 0"/>
<feBlend mode="normal" in2="shape" result="effect1_innerShadow_11_85"/>
</filter>
<filter id="filter22_i_11_85" x="98.4154" y="31.9542" width="25.5598" height="12.4359" filterUnits="userSpaceOnUse" color-interpolation-filters="sRGB">
<feFlood flood-opacity="0" result="BackgroundImageFix"/>
<feBlend mode="normal" in="SourceGraphic" in2="BackgroundImageFix" result="shape"/>
<feColorMatrix in="SourceAlpha" type="matrix" values="0 0 0 0 0 0 0 0 0 0 0 0 0 0 0 0 0 0 127 0" result="hardAlpha"/>
<feOffset/>
<feGaussianBlur stdDeviation="3.5"/>
<feComposite in2="hardAlpha" operator="arithmetic" k2="-1" k3="1"/>
<feColorMatrix type="matrix" values="0 0 0 0 0.235294 0 0 0 0 0.141176 0 0 0 0 0.082353 0 0 0 0.78 0"/>
<feBlend mode="normal" in2="shape" result="effect1_innerShadow_11_85"/>
</filter>
<filter id="filter23_i_11_85" x="83.1302" y="47.1786" width="25.5598" height="12.4359" filterUnits="userSpaceOnUse" color-interpolation-filters="sRGB">
<feFlood flood-opacity="0" result="BackgroundImageFix"/>
<feBlend mode="normal" in="SourceGraphic" in2="BackgroundImageFix" result="shape"/>
<feColorMatrix in="SourceAlpha" type="matrix" values="0 0 0 0 0 0 0 0 0 0 0 0 0 0 0 0 0 0 127 0" result="hardAlpha"/>
<feOffset/>
<feGaussianBlur stdDeviation="3.5"/>
<feComposite in2="hardAlpha" operator="arithmetic" k2="-1" k3="1"/>
<feColorMatrix type="matrix" values="0 0 0 0 0.235294 0 0 0 0 0.141176 0 0 0 0 0.082353 0 0 0 0.78 0"/>
<feBlend mode="normal" in2="shape" result="effect1_innerShadow_11_85"/>
</filter>
<filter id="filter24_i_11_85" x="141.526" y="13.9271" width="25.5598" height="12.4359" filterUnits="userSpaceOnUse" color-interpolation-filters="sRGB">
<feFlood flood-opacity="0" result="BackgroundImageFix"/>
<feBlend mode="normal" in="SourceGraphic" in2="BackgroundImageFix" result="shape"/>
<feColorMatrix in="SourceAlpha" type="matrix" values="0 0 0 0 0 0 0 0 0 0 0 0 0 0 0 0 0 0 127 0" result="hardAlpha"/>
<feOffset/>
<feGaussianBlur stdDeviation="3.5"/>
<feComposite in2="hardAlpha" operator="arithmetic" k2="-1" k3="1"/>
<feColorMatrix type="matrix" values="0 0 0 0 0.235294 0 0 0 0 0.141176 0 0 0 0 0.082353 0 0 0 0.78 0"/>
<feBlend mode="normal" in2="shape" result="effect1_innerShadow_11_85"/>
</filter>
<filter id="filter25_i_11_85" x="125.696" y="29.2064" width="25.5598" height="12.4359" filterUnits="userSpaceOnUse" color-interpolation-filters="sRGB">
<feFlood flood-opacity="0" result="BackgroundImageFix"/>
<feBlend mode="normal" in="SourceGraphic" in2="BackgroundImageFix" result="shape"/>
<feColorMatrix in="SourceAlpha" type="matrix" values="0 0 0 0 0 0 0 0 0 0 0 0 0 0 0 0 0 0 127 0" result="hardAlpha"/>
<feOffset/>
<feGaussianBlur stdDeviation="3.5"/>
<feComposite in2="hardAlpha" operator="arithmetic" k2="-1" k3="1"/>
<feColorMatrix type="matrix" values="0 0 0 0 0.235294 0 0 0 0 0.141176 0 0 0 0 0.082353 0 0 0 0.78 0"/>
<feBlend mode="normal" in2="shape" result="effect1_innerShadow_11_85"/>
</filter>
<filter id="filter26_i_11_85" x="110.411" y="44.4309" width="25.5598" height="12.4359" filterUnits="userSpaceOnUse" color-interpolation-filters="sRGB">
<feFlood flood-opacity="0" result="BackgroundImageFix"/>
<feBlend mode="normal" in="SourceGraphic" in2="BackgroundImageFix" result="shape"/>
<feColorMatrix in="SourceAlpha" type="matrix" values="0 0 0 0 0 0 0 0 0 0 0 0 0 0 0 0 0 0 127 0" result="hardAlpha"/>
<feOffset/>
<feGaussianBlur stdDeviation="3.5"/>
<feComposite in2="hardAlpha" operator="arithmetic" k2="-1" k3="1"/>
<feColorMatrix type="matrix" values="0 0 0 0 0.235294 0 0 0 0 0.141176 0 0 0 0 0.082353 0 0 0 0.78 0"/>
<feBlend mode="normal" in2="shape" result="effect1_innerShadow_11_85"/>
</filter>
<filter id="filter27_i_11_85" x="169.352" y="11.1245" width="25.5598" height="12.4359" filterUnits="userSpaceOnUse" color-interpolation-filters="sRGB">
<feFlood flood-opacity="0" result="BackgroundImageFix"/>
<feBlend mode="normal" in="SourceGraphic" in2="BackgroundImageFix" result="shape"/>
<feColorMatrix in="SourceAlpha" type="matrix" values="0 0 0 0 0 0 0 0 0 0 0 0 0 0 0 0 0 0 127 0" result="hardAlpha"/>
<feOffset/>
<feGaussianBlur stdDeviation="3.5"/>
<feComposite in2="hardAlpha" operator="arithmetic" k2="-1" k3="1"/>
<feColorMatrix type="matrix" values="0 0 0 0 0.235294 0 0 0 0 0.141176 0 0 0 0 0.082353 0 0 0 0.78 0"/>
<feBlend mode="normal" in2="shape" result="effect1_innerShadow_11_85"/>
</filter>
<filter id="filter28_i_11_85" x="153.522" y="26.4038" width="25.5598" height="12.4359" filterUnits="userSpaceOnUse" color-interpolation-filters="sRGB">
<feFlood flood-opacity="0" result="BackgroundImageFix"/>
<feBlend mode="normal" in="SourceGraphic" in2="BackgroundImageFix" result="shape"/>
<feColorMatrix in="SourceAlpha" type="matrix" values="0 0 0 0 0 0 0 0 0 0 0 0 0 0 0 0 0 0 127 0" result="hardAlpha"/>
<feOffset/>
<feGaussianBlur stdDeviation="3.5"/>
<feComposite in2="hardAlpha" operator="arithmetic" k2="-1" k3="1"/>
<feColorMatrix type="matrix" values="0 0 0 0 0.235294 0 0 0 0 0.141176 0 0 0 0 0.082353 0 0 0 0.78 0"/>
<feBlend mode="normal" in2="shape" result="effect1_innerShadow_11_85"/>
</filter>
<filter id="filter29_i_11_85" x="138.237" y="41.6282" width="25.5598" height="12.4359" filterUnits="userSpaceOnUse" color-interpolation-filters="sRGB">
<feFlood flood-opacity="0" result="BackgroundImageFix"/>
<feBlend mode="normal" in="SourceGraphic" in2="BackgroundImageFix" result="shape"/>
<feColorMatrix in="SourceAlpha" type="matrix" values="0 0 0 0 0 0 0 0 0 0 0 0 0 0 0 0 0 0 127 0" result="hardAlpha"/>
<feOffset/>
<feGaussianBlur stdDeviation="3.5"/>
<feComposite in2="hardAlpha" operator="arithmetic" k2="-1" k3="1"/>
<feColorMatrix type="matrix" values="0 0 0 0 0.235294 0 0 0 0 0.141176 0 0 0 0 0.082353 0 0 0 0.78 0"/>
<feBlend mode="normal" in2="shape" result="effect1_innerShadow_11_85"/>
</filter>
<radialGradient id="paint0_radial_11_85" cx="0" cy="0" r="1" gradientUnits="userSpaceOnUse" gradientTransform="translate(150.011 90.3124) rotate(90) scale(26.5075 150)">
<stop stop-color="#BDBDBD"/>
<stop offset="0.897857" stop-color="#EBEBEB"/>
</radialGradient>
</defs>
</svg>