<svg width="1583" height="346" viewBox="0 0 1583 346" fill="none" xmlns="http://www.w3.org/2000/svg">
<g clip-path="url(#clip0_301_92)">
<path d="M1574 133.905C1573.17 133.908 1572.35 133.799 1571.55 133.582C1569.27 132.965 1567.32 131.467 1566.14 129.417C1565.75 128.734 1565.44 128.002 1565.23 127.241C1565.02 126.449 1564.92 125.632 1564.92 124.812C1564.92 123.992 1565.02 123.174 1565.24 122.383C1565.65 120.869 1566.45 119.491 1567.57 118.388C1568.12 117.844 1568.74 117.373 1569.41 116.988C1570.81 116.185 1572.4 115.763 1574.02 115.765C1575.64 115.767 1577.23 116.192 1578.63 116.998C1579.3 117.386 1579.92 117.862 1580.46 118.413C1581.56 119.522 1582.35 120.896 1582.76 122.403C1582.97 123.189 1583.07 123.999 1583.07 124.812C1583.08 126.435 1582.66 128.031 1581.85 129.441C1581.46 130.113 1580.99 130.732 1580.44 131.28C1579.89 131.826 1579.28 132.3 1578.61 132.69C1577.93 133.085 1577.2 133.387 1576.44 133.587C1575.64 133.8 1574.82 133.906 1574 133.905ZM1574 132.305C1574.68 132.308 1575.35 132.218 1576 132.036C1576.62 131.861 1577.22 131.607 1577.78 131.28C1578.33 130.958 1578.83 130.564 1579.28 130.11C1580.17 129.18 1580.82 128.044 1581.17 126.803C1581.61 125.184 1581.5 123.465 1580.86 121.915C1580.3 120.562 1579.35 119.406 1578.13 118.594C1576.9 117.783 1575.47 117.353 1574 117.359C1573.01 117.352 1572.02 117.552 1571.1 117.945C1570.22 118.322 1569.42 118.865 1568.75 119.544C1568.07 120.228 1567.53 121.033 1567.16 121.915C1566.77 122.831 1566.57 123.817 1566.58 124.812C1566.58 125.483 1566.67 126.151 1566.85 126.798C1567.02 127.424 1567.27 128.026 1567.59 128.588C1567.91 129.141 1568.3 129.653 1568.75 130.11C1569.19 130.564 1569.7 130.958 1570.25 131.28C1570.81 131.607 1571.4 131.861 1572.02 132.036C1572.67 132.217 1573.33 132.307 1574 132.304V132.305ZM1570.62 129.422V119.847H1573.91C1574.43 119.841 1574.94 119.887 1575.45 119.983C1575.87 120.053 1576.26 120.213 1576.61 120.452C1576.94 120.674 1577.19 120.979 1577.36 121.334C1577.55 121.768 1577.64 122.238 1577.62 122.71C1577.66 123.356 1577.49 123.997 1577.13 124.539C1576.81 124.98 1576.35 125.309 1575.83 125.48L1578.5 129.422H1576.16L1573.76 125.807H1572.56V129.422L1570.62 129.422ZM1572.56 124.139H1573.84C1574.14 124.145 1574.44 124.12 1574.74 124.066C1574.93 124.032 1575.11 123.953 1575.26 123.837C1575.39 123.728 1575.48 123.583 1575.52 123.422C1575.56 123.221 1575.59 123.015 1575.59 122.808C1575.59 122.608 1575.56 122.41 1575.51 122.218C1575.46 122.064 1575.37 121.925 1575.25 121.818C1575.1 121.703 1574.93 121.625 1574.74 121.588C1574.48 121.534 1574.21 121.509 1573.93 121.515H1572.56L1572.56 124.139Z" fill="#FF943A"/>
<path d="M435.031 91.6499H412.245L384.161 213.219L355.895 92.6526L355.657 91.6499H330.381L302.315 212.277L274.688 91.6499H251.567L288.267 248.125L288.511 249.127H314.67L342.736 129.54L370.466 248.125L370.704 249.127H397.302L434.641 93.2664L435.031 91.6499Z" fill="#DD1100"/>
<path d="M485.347 125.777C478.048 125.34 470.744 126.541 463.97 129.291C457.197 132.041 451.127 136.271 446.207 141.67C437.19 152.162 432.62 168.226 432.62 189.412C432.62 210.226 437.17 226.118 446.149 236.646C451.065 242.07 457.141 246.32 463.926 249.081C470.712 251.843 478.033 253.044 485.347 252.597C492.656 253.053 499.972 251.836 506.738 249.041C513.504 246.246 519.541 241.946 524.388 236.468C533.248 225.83 537.741 209.999 537.741 189.412C537.741 168.605 533.268 152.645 524.446 141.967C519.604 136.464 513.561 132.143 506.783 129.336C500.004 126.529 492.671 125.311 485.347 125.777ZM507.889 222.784C505.059 226.06 501.554 228.687 497.612 230.484C493.671 232.282 489.386 233.208 485.053 233.199C480.719 233.191 476.438 232.247 472.504 230.433C468.57 228.619 465.076 225.978 462.26 222.69C456.701 212.518 454.177 200.97 454.987 189.412C454.987 173.876 457.523 162.441 462.523 155.432C465.157 151.938 468.625 149.159 472.612 147.348C476.6 145.537 480.978 144.752 485.347 145.066C489.656 144.759 493.973 145.544 497.896 147.348C501.82 149.152 505.223 151.916 507.789 155.384C512.822 162.36 515.373 173.808 515.373 189.412C515.373 204.505 512.854 215.732 507.889 222.784Z" fill="#DD1100"/>
<path d="M581.09 79.8994H559.388V249.13H581.09V79.8994Z" fill="#DD1100"/>
<path d="M674.824 80.9028C667.528 77.8362 659.674 76.3138 651.759 76.4319C638.075 76.4319 628.334 79.9639 622.806 86.9374C616.611 96.4449 613.721 107.722 614.582 119.03V129.134H597.476V147.863H614.582V249.13H636.285V147.863H662.165V129.134H636.285V119.03C635.647 112.58 636.865 106.083 639.794 100.298C641.374 98.645 643.317 97.3807 645.471 96.6054C647.624 95.8301 649.929 95.5649 652.202 95.8307C655.061 95.8842 657.902 96.2842 660.664 97.0218C663.371 97.6576 665.996 98.5982 668.49 99.8255L669.859 100.541L675.901 81.3721L674.824 80.9028Z" fill="#DD1100"/>
<path d="M733.846 127.344C726.533 127.308 719.4 129.608 713.49 133.906C708.258 137.669 703.319 141.82 698.713 146.325V129.134H677.011V249.13H698.713V167.242C703.886 161.704 709.88 156.991 716.485 153.266C721.416 150.759 726.869 149.445 732.402 149.43C735.247 149.298 738.09 149.719 740.774 150.669L742.214 151.291L746.883 130.319L746.016 129.849C742.227 128.029 738.047 127.168 733.846 127.344V127.344Z" fill="#DD1100"/>
<path d="M835.35 135.256C827.885 128.966 815.496 125.777 798.527 125.777C789.008 125.489 779.543 127.308 770.812 131.103C763.673 134.329 757.764 139.762 753.956 146.597L753.355 147.695L771.214 158.663L771.882 157.507C774.091 154.029 777.084 151.116 780.624 149C785.954 146.072 792.006 144.708 798.081 145.066C805.065 144.683 812.011 146.319 818.086 149.78C820.611 151.859 822.569 154.541 823.777 157.577C824.986 160.613 825.406 163.904 824.999 167.145V171.655L797.486 174.125C788.367 174.856 779.443 177.154 771.108 180.917C765.223 183.863 760.301 188.421 756.919 194.058C753.459 200.416 751.767 207.582 752.018 214.813C751.644 224.702 754.99 234.373 761.399 241.924C764.79 245.548 768.939 248.383 773.551 250.228C778.163 252.072 783.125 252.881 788.086 252.597C795.423 252.701 802.657 250.868 809.055 247.285C814.698 244.011 820.034 240.237 824.999 236.009V249.13H846.698V168.039C846.698 152.635 842.88 141.605 835.35 135.256ZM793.974 232.752C788.683 233.157 783.424 231.642 779.164 228.485C777.409 226.605 776.076 224.373 775.252 221.939C774.429 219.505 774.135 216.923 774.389 214.366C774.191 211.342 774.749 208.315 776.014 205.56C777.279 202.804 779.211 200.406 781.636 198.581C789.587 194.002 798.578 191.526 807.757 191.387L824.999 189.733V216.306C822.707 218.122 820.37 219.988 817.986 221.903C815.528 223.883 812.927 225.678 810.203 227.274C807.601 228.805 804.878 230.123 802.062 231.214C799.484 232.22 796.742 232.741 793.973 232.752H793.974Z" fill="#DD1100"/>
<path d="M1022.87 144.273C1021.11 138.762 1017.63 133.954 1012.95 130.543C1007.63 127.151 1001.4 125.486 995.099 125.777C987.316 125.729 979.714 128.12 973.365 132.611C967.218 136.973 961.503 141.91 956.296 147.355C955.071 141.178 951.78 135.6 946.964 131.533C941.258 127.469 934.346 125.441 927.344 125.777C919.94 125.799 912.718 128.059 906.628 132.262C901.263 135.864 896.283 140.006 891.765 144.622V129.134H870.062V249.13H891.765V165.452C896.826 160.224 902.506 155.628 908.679 151.767C912.805 148.979 917.594 147.324 922.565 146.969C925.788 146.718 929.011 147.469 931.789 149.119C933.977 151.056 935.414 153.698 935.851 156.585C936.961 163.891 937.397 171.284 937.152 178.67V249.13H958.854V165.478C964.394 159.997 970.505 155.123 977.083 150.939C980.79 148.577 985.045 147.21 989.436 146.969C992.692 146.743 995.948 147.425 998.837 148.941C1001.05 150.663 1002.52 153.16 1002.95 155.924C1004.07 163.451 1004.51 171.065 1004.24 178.67V249.13H1025.94V169.495C1026.26 160.979 1025.23 152.465 1022.87 144.273V144.273Z" fill="#DD1100"/>
<path d="M1122.01 91.6479H1093.49L1040.06 249.13H1063.82L1076.93 208.846H1137.69L1151.02 249.13H1175.44L1122.31 92.5317L1122.01 91.6479ZM1130.39 187.434H1084.01L1107.2 117.457L1130.39 187.434Z" fill="#FF7E00"/>
<path d="M1211.62 79.8994H1189.92V249.13H1211.62V79.8994Z" fill="#FF7E00"/>
<path d="M1292.14 125.777C1285.12 125.738 1278.17 127.271 1271.82 130.264C1266.79 132.606 1262.11 135.621 1257.9 139.225V129.134H1236.2V292H1257.9V240.978C1266.65 248.351 1277.69 252.459 1289.15 252.597C1296.05 252.826 1302.9 251.338 1309.08 248.267C1315.27 245.196 1320.59 240.639 1324.57 235.005C1333.68 221.181 1338.15 204.819 1337.32 188.292C1337.32 168.408 1333.35 152.881 1325.51 142.142C1321.75 136.864 1316.73 132.604 1310.9 129.747C1305.08 126.89 1298.63 125.525 1292.14 125.777V125.777ZM1314.95 188.742C1314.95 203.968 1312.23 215.256 1306.88 222.298C1304.62 225.572 1301.59 228.238 1298.05 230.062C1294.51 231.885 1290.57 232.809 1286.59 232.752C1275.91 232.301 1265.73 228.064 1257.9 220.802V159.87C1262.04 155.987 1266.67 152.65 1271.66 149.941C1276.8 147.057 1282.58 145.532 1288.48 145.512C1306.29 145.512 1314.95 159.654 1314.95 188.742H1314.95Z" fill="#FF7E00"/>
<path d="M1416.97 125.777C1409.08 125.9 1401.37 128.145 1394.66 132.275C1388.57 135.819 1382.89 140.025 1377.73 144.817V79.8994H1356.03V249.13H1377.73V165.504C1383.35 160.541 1389.46 156.15 1395.96 152.395C1400.89 149.22 1406.56 147.352 1412.42 146.969C1416.04 146.729 1419.64 147.546 1422.8 149.32C1425.24 151.137 1426.97 153.755 1427.67 156.714C1429.02 163.951 1429.54 171.316 1429.23 178.67V249.13H1450.93V169.495C1450.93 153.888 1448.18 142.596 1442.75 135.933C1439.52 132.386 1435.51 129.626 1431.04 127.865C1426.58 126.104 1421.76 125.39 1416.97 125.777V125.777Z" fill="#FF7E00"/>
<path d="M1553.24 135.256C1545.78 128.966 1533.39 125.777 1516.42 125.777C1506.9 125.489 1497.43 127.308 1488.7 131.103C1481.56 134.329 1475.65 139.762 1471.85 146.597L1471.25 147.695L1489.1 158.663L1489.77 157.507C1491.98 154.029 1494.98 151.116 1498.51 149C1503.85 146.072 1509.9 144.708 1515.97 145.066C1522.96 144.683 1529.9 146.319 1535.98 149.78C1538.5 151.859 1540.46 154.541 1541.67 157.577C1542.88 160.613 1543.3 163.904 1542.89 167.145V171.655L1515.38 174.125C1506.26 174.856 1497.33 177.154 1489 180.917C1483.11 183.863 1478.19 188.421 1474.81 194.058C1471.35 200.416 1469.66 207.582 1469.91 214.813C1469.53 224.702 1472.88 234.373 1479.29 241.924C1482.68 245.548 1486.83 248.383 1491.44 250.228C1496.05 252.072 1501.02 252.881 1505.98 252.597C1513.31 252.701 1520.55 250.868 1526.95 247.285C1532.59 244.011 1537.92 240.237 1542.89 236.009V249.13H1564.59V168.039C1564.59 152.635 1560.77 141.605 1553.24 135.256ZM1511.86 232.752C1506.57 233.157 1501.31 231.642 1497.06 228.485C1495.3 226.605 1493.97 224.373 1493.14 221.939C1492.32 219.505 1492.03 216.923 1492.28 214.366C1492.08 211.342 1492.64 208.315 1493.9 205.56C1495.17 202.804 1497.1 200.406 1499.53 198.581C1507.48 194.002 1516.47 191.526 1525.65 191.387L1542.89 189.733V216.306C1540.6 218.122 1538.26 219.988 1535.88 221.903C1533.42 223.883 1530.82 225.678 1528.09 227.274C1525.49 228.805 1522.77 230.123 1519.95 231.214C1517.37 232.22 1514.63 232.741 1511.86 232.752H1511.86Z" fill="#FF7E00"/>
<path d="M225.127 206.163L177.21 216.33L182.088 263.882L137.197 244.667L112.463 285.923L87.722 244.655L42.8257 263.864L47.7093 216.324L-0.201172 206.133L32.4313 170.462L-0.188993 134.778L47.7154 124.611L42.8501 77.0593L87.7403 96.2745L112.463 55.0061L137.204 96.2745L182.1 77.0714L177.222 124.617L225.127 134.802L192.506 170.48L225.127 206.163Z" fill="#F16850"/>
<path d="M112.463 127.078L87.7403 96.2623L42.8501 77.041L69.5699 112.208L112.463 127.078Z" fill="#FD694F"/>
<path d="M47.7157 124.593L-0.194824 134.766L32.4255 170.449L70.8245 156.564L47.7157 124.593Z" fill="#FF3413"/>
<path d="M69.5699 112.208L42.8501 77.041L47.7154 124.593L70.8243 156.564L69.5699 112.208Z" fill="#DC1D23"/>
<path d="M137.204 96.2623L112.463 55L87.7407 96.2623L112.463 127.078L137.204 96.2623Z" fill="#FF9281"/>
<path d="M192.501 170.468L225.127 134.79L177.223 124.611L154.102 156.564L192.501 170.468Z" fill="#FF8B79"/>
<path d="M154.102 156.564L177.223 124.611L182.1 77.0532L155.356 112.208L154.102 156.564Z" fill="#FD694F"/>
<path d="M155.356 112.208L182.1 77.0532L137.204 96.2624L112.463 127.078L155.356 112.208Z" fill="#EF5240"/>
<path d="M181.863 191.725L225.121 206.145L192.501 170.468L154.102 156.564L181.863 191.725Z" fill="#FF482C"/>
<path d="M70.8243 156.564L32.4252 170.449L-0.201172 206.121L43.0632 191.725L70.8243 156.564Z" fill="#EC2101"/>
<path d="M112.463 240.869V285.911L137.191 244.655L138.196 204.273L112.463 240.869Z" fill="#D21C22"/>
<path d="M181.863 191.725L138.196 204.273L177.21 216.318L225.121 206.145L181.863 191.725Z" fill="#C90901"/>
<path d="M137.191 244.655L182.082 263.87L177.21 216.318L138.196 204.273L137.191 244.655Z" fill="#EC2101"/>
<path d="M43.0632 191.725L-0.201172 206.121L47.7093 216.306L86.7295 204.273L43.0632 191.725Z" fill="#B6171E"/>
<path d="M86.7295 204.273L87.722 244.649L112.463 285.911V240.869L86.7295 204.273Z" fill="#B4151B"/>
<path d="M47.7098 216.306L42.8262 263.852L87.7225 244.649L86.7299 204.273L47.7098 216.306Z" fill="#D21C22"/>
<path d="M154.101 156.564L155.356 112.208L112.463 127.078V170.237L154.101 156.564Z" fill="#E63320"/>
<path d="M112.463 127.078L69.5703 112.208L70.8247 156.564L112.463 170.237V127.078Z" fill="#FF4527"/>
<path d="M86.7295 204.273L112.463 240.869L138.196 204.273L112.463 170.237L86.7295 204.273Z" fill="#FF9281"/>
<path d="M112.463 170.237L138.196 204.274L181.862 191.725L154.101 156.564L112.463 170.237Z" fill="#FD684D"/>
<path d="M70.8245 156.564L43.0635 191.725L86.7298 204.274L112.463 170.237L70.8245 156.564Z" fill="#FD745C"/>
</g>
<defs>
<clipPath id="clip0_301_92">
<rect width="1583" height="346" fill="white"/>
</clipPath>
</defs>
</svg>